<svg viewBox="0 0 612.01 612.01" xmlns="http://www.w3.org/2000/svg" xmlns:xlink="http://www.w3.org/1999/xlink"><style>:root&gt;svg{display:none}:root&gt;svg:target{display:block}</style><svg viewBox="0 0 6.35 6.35" id="arrow-right" xmlns="http://www.w3.org/2000/svg"><path d="M.534 3.44h4.648l-.871.87c-.25.25.125.626.375.376l.793-.794.53-.53a.265.265 0 000-.374L4.685 1.664a.265.265 0 00-.192-.08.265.265 0 00-.183.456l.873.87H.52c-.367.019-.34.548.014.53z"/></svg><svg viewBox="0 0 409.603 409.603" id="bookmark" xmlns="http://www.w3.org/2000/svg"><path d="M375.468.002h-141.87c-9.385 0-22.502 5.437-29.133 12.063L9.961 206.568c-13.281 13.266-13.281 35.016 0 48.266l144.824 144.819c13.251 13.266 34.98 13.266 48.251-.015L397.54 205.165c6.625-6.625 12.063-19.763 12.063-29.128v-141.9c0-18.77-15.366-34.135-34.135-34.135zm-68.271 136.535c-18.852 0-34.135-15.299-34.135-34.135 0-18.867 15.283-34.135 34.135-34.135 18.852 0 34.14 15.268 34.14 34.135.001 18.836-15.288 34.135-34.14 34.135z"/></svg><svg viewBox="0 0 18 14" id="check" xmlns="http://www.w3.org/2000/svg"><path d="M1 7l6 6L17 1"/></svg><svg viewBox="0 0 491.996 491.996" id="chevron" xmlns="http://www.w3.org/2000/svg"><path d="M484.132 124.986l-16.116-16.228c-5.072-5.068-11.82-7.86-19.032-7.86-7.208 0-13.964 2.792-19.036 7.86l-183.84 183.848L62.056 108.554c-5.064-5.068-11.82-7.856-19.028-7.856s-13.968 2.788-19.036 7.856l-16.12 16.128c-10.496 10.488-10.496 27.572 0 38.06l219.136 219.924c5.064 5.064 11.812 8.632 19.084 8.632h.084c7.212 0 13.96-3.572 19.024-8.632l218.932-219.328c5.072-5.064 7.856-12.016 7.864-19.224 0-7.212-2.792-14.068-7.864-19.128z"/></svg><svg viewBox="0 0 492.004 492.004" id="chevron-right" xmlns="http://www.w3.org/2000/svg"><path d="M382.678 226.804L163.73 7.86C158.666 2.792 151.906 0 144.698 0s-13.968 2.792-19.032 7.86l-16.124 16.12c-10.492 10.504-10.492 27.576 0 38.064L293.398 245.9l-184.06 184.06c-5.064 5.068-7.86 11.824-7.86 19.028 0 7.212 2.796 13.968 7.86 19.04l16.124 16.116c5.068 5.068 11.824 7.86 19.032 7.86s13.968-2.792 19.032-7.86L382.678 265c5.076-5.084 7.864-11.872 7.848-19.088.016-7.244-2.772-14.028-7.848-19.108z"/></svg><svg viewBox="0 0 512 512" id="email" xmlns="http://www.w3.org/2000/svg"><path d="M298.789 313.693c-12.738 8.492-27.534 12.981-42.789 12.981-15.254 0-30.05-4.489-42.788-12.981L3.409 173.82A76.269 76.269 0 010 171.403V400.6c0 26.278 21.325 47.133 47.133 47.133h417.733c26.278 0 47.133-21.325 47.133-47.133V171.402a75.21 75.21 0 01-3.416 2.422z"/><path d="M20.05 148.858l209.803 139.874c7.942 5.295 17.044 7.942 26.146 7.942 9.103 0 18.206-2.648 26.148-7.942L491.95 148.858c12.555-8.365 20.05-22.365 20.05-37.475 0-25.981-21.137-47.117-47.117-47.117H47.117C21.137 64.267 0 85.403 0 111.408a44.912 44.912 0 0020.05 37.45z"/></svg><svg viewBox="0 0 169.063 169.063" id="instagram" xmlns="http://www.w3.org/2000/svg"><path d="M122.406 0H46.654C20.929 0 0 20.93 0 46.655v75.752c0 25.726 20.929 46.655 46.654 46.655h75.752c25.727 0 46.656-20.93 46.656-46.655V46.655C169.063 20.93 148.133 0 122.406 0zm31.657 122.407c0 17.455-14.201 31.655-31.656 31.655H46.654C29.2 154.063 15 139.862 15 122.407V46.655C15 29.201 29.2 15 46.654 15h75.752c17.455 0 31.656 14.201 31.656 31.655v75.752z"/><path d="M84.531 40.97c-24.021 0-43.563 19.542-43.563 43.563 0 24.02 19.542 43.561 43.563 43.561s43.563-19.541 43.563-43.561c0-24.021-19.542-43.563-43.563-43.563zm0 72.123c-15.749 0-28.563-12.812-28.563-28.561 0-15.75 12.813-28.563 28.563-28.563s28.563 12.813 28.563 28.563c0 15.749-12.814 28.561-28.563 28.561zm45.39-84.842c-2.89 0-5.729 1.17-7.77 3.22a11.053 11.053 0 00-3.23 7.78c0 2.891 1.18 5.73 3.23 7.78 2.04 2.04 4.88 3.22 7.77 3.22 2.9 0 5.73-1.18 7.78-3.22 2.05-2.05 3.22-4.89 3.22-7.78 0-2.9-1.17-5.74-3.22-7.78-2.04-2.05-4.88-3.22-7.78-3.22z"/></svg><svg viewBox="0 0 24 24" id="location" xmlns="http://www.w3.org/2000/svg"><path d="M17.718 3.049a9.061 9.061 0 00-7.524-1.873 9 9 0 00-3.671 15.957 15.25 15.25 0 013.921 4.217l.7 1.164a1 1 0 001.714 0l.671-1.118a12.72 12.72 0 013.578-4 8.99 8.99 0 00.612-14.352zM12 14a4 4 0 114-4 4 4 0 01-4 4z" data-name="Layer 2"/></svg><svg viewBox="0 0 32 32" id="navigation" xmlns="http://www.w3.org/2000/svg"><path d="M28.91 4.417l-11 24a1 1 0 01-1.907-.334l-.93-11.157-11.156-.93a1 1 0 01-.334-1.906l24-11a1 1 0 011.326 1.326z"/></svg><svg viewBox="0 0 384 384" id="phone" xmlns="http://www.w3.org/2000/svg"><path d="M353.188 252.052c-23.51 0-46.594-3.677-68.469-10.906-10.719-3.656-23.896-.302-30.438 6.417l-43.177 32.594c-50.073-26.729-80.917-57.563-107.281-107.26l31.635-42.052c8.219-8.208 11.167-20.198 7.635-31.448-7.26-21.99-10.948-45.063-10.948-68.583C132.146 13.823 118.323 0 101.333 0h-70.52C13.823 0 0 13.823 0 30.813 0 225.563 158.438 384 353.188 384c16.99 0 30.813-13.823 30.813-30.813v-70.323c-.001-16.989-13.824-30.812-30.813-30.812z"/></svg><svg viewBox="0 0 11 14" id="play" xmlns="http://www.w3.org/2000/svg"><path d="M0 14l11-7L0 0v14z"/></svg><svg viewBox="0 0 612.01 612.01" id="search" xmlns="http://www.w3.org/2000/svg"><path d="M606.209 578.714L448.198 423.228C489.576 378.272 515 318.817 515 253.393 514.98 113.439 399.704 0 257.493 0S.006 113.439.006 253.393s115.276 253.393 257.487 253.393c61.445 0 117.801-21.253 162.068-56.586l158.624 156.099c7.729 7.614 20.277 7.614 28.006 0a19.291 19.291 0 00.018-27.585zM257.493 467.8c-120.326 0-217.869-95.993-217.869-214.407S137.167 38.986 257.493 38.986c120.327 0 217.869 95.993 217.869 214.407S377.82 467.8 257.493 467.8z"/></svg><svg viewBox="0 0 32 32" id="star" xmlns="http://www.w3.org/2000/svg"><path d="M29.911 13.75l-6.229 6.072 1.471 8.576a1 1 0 01-1.451 1.054L16 25.403l-7.701 4.048a1 1 0 01-1.451-1.054l1.471-8.576-6.23-6.071a1 1 0 01.555-1.706l8.609-1.25 3.85-7.802c.337-.683 1.457-.683 1.794 0l3.85 7.802 8.609 1.25a1.002 1.002 0 01.555 1.706z"/></svg><svg viewBox="0 0 512 512" id="user" xmlns="http://www.w3.org/2000/svg"><path d="M437.02 330.98c-27.883-27.882-61.071-48.523-97.281-61.018C378.521 243.251 404 198.548 404 148 404 66.393 337.607 0 256 0S108 66.393 108 148c0 50.548 25.479 95.251 64.262 121.962-36.21 12.495-69.398 33.136-97.281 61.018C26.629 379.333 0 443.62 0 512h40c0-119.103 96.897-216 216-216s216 96.897 216 216h40c0-68.38-26.629-132.667-74.98-181.02zM256 256c-59.551 0-108-48.448-108-108S196.449 40 256 40s108 48.448 108 108-48.449 108-108 108z"/></svg><svg viewBox="0 0 548.358 548.358" id="vk" xmlns="http://www.w3.org/2000/svg"><path d="M545.451 400.298c-.664-1.431-1.283-2.618-1.858-3.569-9.514-17.135-27.695-38.167-54.532-63.102l-.567-.571-.284-.28-.287-.287h-.288c-12.18-11.611-19.893-19.418-23.123-23.415-5.91-7.614-7.234-15.321-4.004-23.13 2.282-5.9 10.854-18.36 25.696-37.397 7.807-10.089 13.99-18.175 18.556-24.267 32.931-43.78 47.208-71.756 42.828-83.939l-1.701-2.847c-1.143-1.714-4.093-3.282-8.846-4.712-4.764-1.427-10.853-1.663-18.278-.712l-82.224.568c-1.332-.472-3.234-.428-5.712.144l-3.713.859-1.431.715-1.136.859c-.952.568-1.999 1.567-3.142 2.995-1.137 1.423-2.088 3.093-2.848 4.996-8.952 23.031-19.13 44.444-30.553 64.238-7.043 11.803-13.511 22.032-19.418 30.693-5.899 8.658-10.848 15.037-14.842 19.126-4 4.093-7.61 7.372-10.852 9.849-3.237 2.478-5.708 3.525-7.419 3.142-1.715-.383-3.33-.763-4.859-1.143-2.663-1.714-4.805-4.045-6.42-6.995-1.622-2.95-2.714-6.663-3.285-11.136-.568-4.476-.904-8.326-1-11.563-.089-3.233-.048-7.806.145-13.706.198-5.903.287-9.897.287-11.991 0-7.234.141-15.085.424-23.555.288-8.47.521-15.181.716-20.125.194-4.949.284-10.185.284-15.705s-.336-9.849-1-12.991a44.442 44.442 0 00-2.99-9.137c-1.335-2.95-3.289-5.232-5.853-6.852-2.569-1.618-5.763-2.902-9.564-3.856-10.089-2.283-22.936-3.518-38.547-3.71-35.401-.38-58.148 1.906-68.236 6.855-3.997 2.091-7.614 4.948-10.848 8.562-3.427 4.189-3.905 6.475-1.431 6.851 11.422 1.711 19.508 5.804 24.267 12.275l1.715 3.429c1.334 2.474 2.666 6.854 3.999 13.134 1.331 6.28 2.19 13.227 2.568 20.837.95 13.897.95 25.793 0 35.689-.953 9.9-1.853 17.607-2.712 23.127-.859 5.52-2.143 9.993-3.855 13.418-1.715 3.426-2.856 5.52-3.428 6.28-.571.76-1.047 1.239-1.425 1.427a21.387 21.387 0 01-7.71 1.431c-2.667 0-5.901-1.334-9.707-4-3.805-2.666-7.754-6.328-11.847-10.992-4.093-4.665-8.709-11.184-13.85-19.558-5.137-8.374-10.467-18.271-15.987-29.691l-4.567-8.282c-2.855-5.328-6.755-13.086-11.704-23.267-4.952-10.185-9.329-20.037-13.134-29.554-1.521-3.997-3.806-7.04-6.851-9.134l-1.429-.859c-.95-.76-2.475-1.567-4.567-2.427a30.301 30.301 0 00-6.567-1.854l-78.229.568c-7.994 0-13.418 1.811-16.274 5.428l-1.143 1.711c-.571.953-.859 2.475-.859 4.57 0 2.094.571 4.664 1.714 7.707 11.42 26.84 23.839 52.725 37.257 77.659 13.418 24.934 25.078 45.019 34.973 60.237 9.897 15.229 19.985 29.602 30.264 43.112 10.279 13.515 17.083 22.176 20.412 25.981 3.333 3.812 5.951 6.662 7.854 8.565l7.139 6.851c4.568 4.569 11.276 10.041 20.127 16.416 8.853 6.379 18.654 12.659 29.408 18.85 10.756 6.181 23.269 11.225 37.546 15.126 14.275 3.905 28.169 5.472 41.684 4.716h32.834c6.659-.575 11.704-2.669 15.133-6.283l1.136-1.431c.764-1.136 1.479-2.901 2.139-5.276.668-2.379 1-5 1-7.851-.195-8.183.428-15.558 1.852-22.124 1.423-6.564 3.045-11.513 4.859-14.846 1.813-3.33 3.859-6.14 6.136-8.418 2.282-2.283 3.908-3.666 4.862-4.142.948-.479 1.705-.804 2.276-.999 4.568-1.522 9.944-.048 16.136 4.429 6.187 4.473 11.99 9.996 17.418 16.56 5.425 6.57 11.943 13.941 19.555 22.124 7.617 8.186 14.277 14.271 19.985 18.274l5.708 3.426c3.812 2.286 8.761 4.38 14.853 6.283 6.081 1.902 11.409 2.378 15.984 1.427l73.087-1.14c7.229 0 12.854-1.197 16.844-3.572 3.998-2.379 6.373-5 7.139-7.851.764-2.854.805-6.092.145-9.712-.677-3.611-1.344-6.136-2.008-7.563z"/></svg><svg viewBox="0 0 4 28" id="warn" xmlns="http://www.w3.org/2000/svg"><path fill-rule="evenodd" clip-rule="evenodd" d="M2 0a2 2 0 012 2v18a2 2 0 01-4 0V2a2 2 0 012-2zm0 28a2 2 0 100-4 2 2 0 000 4z"/></svg></svg>