<svg viewBox="0 0 612.01 612.01" xmlns="http://www.w3.org/2000/svg" xmlns:xlink="http://www.w3.org/1999/xlink"><style>:root&gt;svg{display:none}:root&gt;svg:target{display:block}</style><svg viewBox="0 0 512.056 512.056" id="analyze" xmlns="http://www.w3.org/2000/svg"><path d="M456.464 101.224H320.421a157.71 157.71 0 00-2.682-2.751c-44.05-44.048-108.226-55.986-163.195-35.834l-43.615-43.616c-25.331-25.328-66.546-25.328-91.876 0C-1.938 40.015-6.053 72.498 9.046 98.016a7.497 7.497 0 0010.274 2.636 7.5 7.5 0 002.635-10.275c-11.609-19.62-8.441-44.6 7.703-60.745 19.481-19.482 51.18-19.484 70.662 0l39.354 39.354c-14.876 7.304-28.818 17.131-41.173 29.487-12.356 12.356-22.183 26.298-29.487 41.174l-24.732-24.732a7.502 7.502 0 00-10.607 10.608l28.992 28.993c-20.152 54.97-8.214 119.147 35.834 163.195a156.185 156.185 0 009.215 8.497l16.393 130.6c3.951 31.48 30.857 55.22 62.586 55.22h198.237c31.729 0 58.634-23.74 62.586-55.221l.91-7.256a7.5 7.5 0 00-6.508-8.376 7.493 7.493 0 00-8.376 6.508l-.91 7.256c-3.012 23.994-23.519 42.088-47.702 42.088H186.695c-24.183 0-44.69-18.094-47.702-42.088l-14.608-116.376c25.408 16.313 54.569 24.48 83.735 24.48 39.698 0 79.397-15.11 109.619-45.332.894-.894 1.772-1.797 2.64-2.707 17.006 3.638 35.218 6.423 55.748 6.423 21.851 0 46.332-3.164 74.748-11.794l-12.966 103.295a7.5 7.5 0 0014.883 1.869l25.993-207.079c19.568-8.616 33.271-28.182 33.271-50.899 0-30.656-24.939-55.595-55.592-55.595zM109.108 307.103c-54.595-54.594-54.595-143.428 0-198.022 27.298-27.298 63.154-40.946 99.012-40.946 35.857 0 71.714 13.648 99.011 40.946 54.595 54.594 54.595 143.428 0 198.022-54.594 54.596-143.428 54.595-198.023 0zm343.822-13.849c-51.026 16.68-88.809 14.868-121.422 8.692 20.122-26.417 30.623-57.865 31.498-89.536h93.459c2.257 0 4.478-.151 6.665-.414zm3.534-95.845h-93.763c-1.966-28.71-11.863-56.972-29.696-81.184h123.459c22.382 0 40.591 18.209 40.591 40.591s-18.209 40.593-40.591 40.593z"/><path d="M284.988 131.223c-42.385-42.384-111.352-42.384-153.737 0-20.533 20.533-31.84 47.832-31.84 76.869s11.308 56.336 31.84 76.869c21.195 21.195 49.027 31.791 76.869 31.789 27.834-.003 55.678-10.599 76.868-31.789 20.533-20.533 31.841-47.832 31.841-76.869s-11.308-56.336-31.841-76.869zm-10.608 143.13c-36.535 36.538-95.985 36.537-132.522 0-17.699-17.698-27.447-41.23-27.447-66.261s9.748-48.563 27.447-66.261c18.268-18.269 42.265-27.403 66.261-27.403s47.993 9.134 66.26 27.403c17.699 17.698 27.447 41.23 27.447 66.261s-9.746 48.563-27.446 66.261zm-51.842 118.875a7.5 7.5 0 00-7.5 7.495l-.009 11.877a7.502 7.502 0 0015.001.011l.009-11.877a7.5 7.5 0 00-7.495-7.506h-.006zm126.61.124a7.5 7.5 0 00-7.5 7.495l-.009 11.877a7.5 7.5 0 1015.001.011l.009-11.877a7.5 7.5 0 00-7.495-7.506h-.006zm-80.002 17.073a7.5 7.5 0 10-.013 15.001l33.38.029a7.5 7.5 0 10.013-15.001z"/></svg><svg viewBox="0 0 6.35 6.35" id="arrow-right" xmlns="http://www.w3.org/2000/svg"><path d="M.534 3.44h4.648l-.871.87c-.25.25.125.626.375.376l.793-.794.53-.53a.265.265 0 000-.374L4.685 1.664a.265.265 0 00-.192-.08.265.265 0 00-.183.456l.873.87H.52c-.367.019-.34.548.014.53z"/></svg><svg viewBox="0 0 409.603 409.603" id="bookmark" xmlns="http://www.w3.org/2000/svg"><path d="M375.468.002h-141.87c-9.385 0-22.502 5.437-29.133 12.063L9.961 206.568c-13.281 13.266-13.281 35.016 0 48.266l144.824 144.819c13.251 13.266 34.98 13.266 48.251-.015L397.54 205.165c6.625-6.625 12.063-19.763 12.063-29.128v-141.9c0-18.77-15.366-34.135-34.135-34.135zm-68.271 136.535c-18.852 0-34.135-15.299-34.135-34.135 0-18.867 15.283-34.135 34.135-34.135 18.852 0 34.14 15.268 34.14 34.135.001 18.836-15.288 34.135-34.14 34.135z"/></svg><svg viewBox="0 0 64 64" id="cardiology" xmlns="http://www.w3.org/2000/svg"><path d="M52.21 36.429C45.643 45.875 34.305 51.762 32 52.892c-2.305-1.13-13.642-7.017-20.208-16.462a.999.999 0 10-1.643 1.141c7.618 10.959 20.875 17.084 21.437 17.34a1 1 0 00.828 0c.562-.256 13.818-6.381 21.438-17.339a1.002 1.002 0 00-.25-1.393.998.998 0 00-1.392.25zM8.641 30.632C5.326 22.266 6.556 11 16 11c6.08 0 11.029 3.518 15.13 10.753.355.627 1.385.627 1.74 0C36.971 14.518 41.92 11 48 11c9.351 0 10.709 11.18 7.361 19.632-.489 1.236 1.374 1.963 1.859.736C61.118 21.533 58.986 9 48 9c-6.333 0-11.71 3.466-16 10.307C27.71 12.466 22.333 9 16 9 5.058 9 2.866 21.486 6.781 31.368c.485 1.228 2.347.497 1.86-.736z"/><path d="M62 33H47c-1.045 0-1.001 1.109-2.591 3.946L40.98 19.804c-.223-1.111-1.779-1.041-1.966.025l-3.052 17.547-1.98-10.561c-.194-1.039-1.656-1.093-1.944-.09L30.246 33c-1.469.143-2.892-.427-3.211.737l-1.688 6.19-2.355-18.057c-.141-1.094-1.697-1.173-1.961-.113L18.219 33H2a1 1 0 100 2h17c.459 0 .858-.313.97-.758l1.721-6.882 2.318 17.769c.141 1.083 1.669 1.187 1.956.134L28.764 35H31c1.224 0 1.017-1.541 1.798-3.652l2.22 11.837c.203 1.092 1.776 1.085 1.968-.014l3.083-17.729 2.951 14.754a1 1 0 001.875.251L47.618 35H62a1 1 0 100-2z"/></svg><svg viewBox="0 0 512.008 512.008" id="caries" xmlns="http://www.w3.org/2000/svg"><path d="M463.485 46.53C434.127 16.904 394.864.384 352.926.014c-23.695-.295-48.86 5.209-70.538 15.933-16.767 8.193-35.999 8.193-52.756.006C208.518 5.534 183.357-.338 158.936.015c-41.55.405-80.535 16.69-109.774 45.854a7.5 7.5 0 00-.013 10.606 7.5 7.5 0 0010.606.014c17.336-17.293 38.468-29.578 61.562-36.094 7.689 3.103 15.929 19.094 14.585 35.332-.892 10.165-6.382 28.161-33.125 34.482-29.676 7.014-41.939 27.142-51.793 43.314-9.067 14.88-15.919 26.065-32.941 27.407-.789-26.842 6.831-55.446 21.074-78.371a7.5 7.5 0 00-12.769-7.87C11.076 99.468 3.004 128.106 3.004 157.508c0 40.687 15.464 79.294 43.543 108.709 9.274 9.716 16.085 21.77 19.694 34.858 15.703 56.935 30.277 113.927 42.148 164.816 6.366 27.291 27.106 45.617 51.619 45.616h.046c27.916-.026 50.458-22.381 52.433-52.001 1.104-16.561 2.673-34.021 4.663-51.895a7.501 7.501 0 00-6.624-8.284 7.491 7.491 0 00-8.284 6.624c-2.014 18.093-3.603 35.775-4.722 52.556-1.443 21.645-17.556 37.98-37.479 37.999h-.033c-20.083 0-33.059-17.084-37.011-34.023-11.915-51.08-26.541-108.273-42.295-165.397-4.267-15.469-12.325-29.725-23.306-41.227-21.13-22.136-34.355-50.03-38.208-79.973 24.719-1.941 35.23-19.171 44.607-34.559 9.697-15.916 18.856-30.949 42.435-36.521 26.234-6.201 42.496-23.612 44.616-47.768 1.329-15.134-3.245-30.436-11.208-40.523a145.381 145.381 0 0119.445-1.5c21.301-.267 44.341 4.694 63.952 14.41 20.954 10.238 44.987 10.237 65.951-.006 18.927-9.346 41.809-14.69 63.808-14.405 77.865.688 141.212 64.611 141.211 142.496 0 36.729-13.938 71.602-39.243 98.194-9.35 9.824-16.425 21.34-21.029 34.229a7.5 7.5 0 1014.124 5.046c3.896-10.903 9.874-20.638 17.77-28.935 27.973-29.395 43.378-67.939 43.378-108.535 0-41.943-16.166-81.356-45.52-110.979z"/><path d="M433.239 319.179a7.497 7.497 0 00-9.191 5.293c-13.686 50.852-25.072 95.539-33.844 132.817-2.652 11.788-12.512 39.998-38.565 39.716-19.614-.187-36.063-16.052-37.448-36.119-3.738-54.184-15.336-136.366-19.947-153.343-6.389-23.562-19.969-36.537-38.238-36.537-18.146 0-31.723 12.963-38.229 36.5-2.378 8.594-6.756 31.563-11.175 63.506a7.5 7.5 0 0014.859 2.056c4.301-31.093 8.599-53.707 10.772-61.563 4.677-16.919 12.675-25.498 23.771-25.498 13.933 0 20.611 13.847 23.763 25.466 3.903 14.373 15.618 94.787 19.458 150.446 1.92 27.825 24.88 49.825 52.271 50.085 25.304.305 45.812-18.95 53.31-51.28 8.612-36.602 20.274-82.37 33.727-132.354a7.501 7.501 0 00-5.294-9.191zm.318-154.503a7.492 7.492 0 007.821-7.165c.718-16.393-3.553-31.692-12.352-44.242-9.654-13.772-24.421-23.468-42.703-28.038-18.427-4.607-35.793-2.294-50.222 6.687-15.418 9.595-26.691 26.364-30.917 45.955-3.145 14.081.121 26.575 3.278 38.657 3.093 11.832 6.29 24.066 3.774 38.749-4.316 25.189 12.068 49.583 36.525 54.377 2.987.585 5.966.868 8.904.868 21.625 0 41.052-15.276 45.454-37.245 2.252-11.236 9.439-19.816 17.049-28.899 2.593-3.094 5.272-6.294 7.77-9.627a7.5 7.5 0 00-1.507-10.499 7.499 7.499 0 00-10.499 1.507c-2.252 3.006-4.686 5.911-7.262 8.987-8.482 10.125-17.254 20.596-20.258 35.584-3.383 16.878-19.872 27.917-36.766 24.605-16.252-3.186-27.529-20.187-24.626-37.124 3.062-17.875-.715-32.326-4.047-45.075-2.953-11.301-5.505-21.061-3.141-31.648 3.386-15.695 12.204-28.975 24.192-36.436 11.055-6.88 24.062-8.519 38.657-4.87 33.699 8.425 44.674 35.006 43.707 57.072a7.505 7.505 0 007.169 7.82zM97.653 61.705l-10.076 3.387a7.502 7.502 0 002.388 14.611c.792 0 1.599-.126 2.391-.393l10.076-3.387a7.502 7.502 0 004.72-9.499 7.503 7.503 0 00-9.499-4.719z"/><path d="M340.215 144.99a7.5 7.5 0 00-5.697 8.946l2.303 10.377c.674 2.826 4.364 6.742 8.947 5.697a7.5 7.5 0 005.697-8.946l-2.303-10.377a7.498 7.498 0 00-8.947-5.697zm52.4-8.099a7.5 7.5 0 005.488-12.61l-7.242-7.782a7.5 7.5 0 00-10.981 10.219l7.242 7.782a7.48 7.48 0 005.493 2.391zm-20.678 76.385c.965.414 1.968.61 2.954.61a7.501 7.501 0 006.896-4.544l4.192-9.769a7.499 7.499 0 00-3.934-9.85 7.498 7.498 0 00-9.851 3.934l-4.192 9.769a7.5 7.5 0 003.935 9.85zm26.513-46.319c.439 2.845 4.029 6.899 8.614 6.189a7.5 7.5 0 006.188-8.614l-1.719-10.49a7.494 7.494 0 00-8.614-6.189 7.5 7.5 0 00-6.188 8.614zM35.016 114.434a7.5 7.5 0 0013.785 5.915l4.191-9.769a7.5 7.5 0 00-3.936-9.85 7.5 7.5 0 00-9.85 3.935z"/><circle cx="112.504" cy="46.507" r="7.5"/><path d="M352.519 134.017a7.5 7.5 0 100-15 7.5 7.5 0 000 15zM374.524 165a7.5 7.5 0 100-15 7.5 7.5 0 000 15zm-22.005 29.021a7.5 7.5 0 100-15 7.5 7.5 0 000 15zm6.995 45.998a7.5 7.5 0 100-15 7.5 7.5 0 000 15z"/><circle cx="63.504" cy="81.507" r="7.5"/></svg><svg viewBox="0 0 18 14" id="check" xmlns="http://www.w3.org/2000/svg"><path d="M1 7l6 6L17 1"/></svg><svg viewBox="0 0 491.996 491.996" id="chevron" xmlns="http://www.w3.org/2000/svg"><path d="M484.132 124.986l-16.116-16.228c-5.072-5.068-11.82-7.86-19.032-7.86-7.208 0-13.964 2.792-19.036 7.86l-183.84 183.848L62.056 108.554c-5.064-5.068-11.82-7.856-19.028-7.856s-13.968 2.788-19.036 7.856l-16.12 16.128c-10.496 10.488-10.496 27.572 0 38.06l219.136 219.924c5.064 5.064 11.812 8.632 19.084 8.632h.084c7.212 0 13.96-3.572 19.024-8.632l218.932-219.328c5.072-5.064 7.856-12.016 7.864-19.224 0-7.212-2.792-14.068-7.864-19.128z"/></svg><svg viewBox="0 0 492.004 492.004" id="chevron-right" xmlns="http://www.w3.org/2000/svg"><path d="M382.678 226.804L163.73 7.86C158.666 2.792 151.906 0 144.698 0s-13.968 2.792-19.032 7.86l-16.124 16.12c-10.492 10.504-10.492 27.576 0 38.064L293.398 245.9l-184.06 184.06c-5.064 5.068-7.86 11.824-7.86 19.028 0 7.212 2.796 13.968 7.86 19.04l16.124 16.116c5.068 5.068 11.824 7.86 19.032 7.86s13.968-2.792 19.032-7.86L382.678 265c5.076-5.084 7.864-11.872 7.848-19.088.016-7.244-2.772-14.028-7.848-19.108z"/></svg><svg viewBox="0 0 16 16" id="close" xmlns="http://www.w3.org/2000/svg"><path d="M9.175 8l6.075-6.075A.833.833 0 0014.075.75L8 6.825 1.925.742A.833.833 0 00.75 1.917L6.825 8 .742 14.075a.834.834 0 101.175 1.175L8 9.175l6.075 6.075a.833.833 0 001.175-1.175L9.175 8z"/></svg><svg viewBox="0 0 60 58" id="dermis" xmlns="http://www.w3.org/2000/svg"><path d="M59 30H41.53a1 1 0 00-.886 1.463 12 12 0 11-21.288 0A1 1 0 0018.47 30H1a1 1 0 000 2h15.925a14 14 0 1026.15 0H59a1 1 0 000-2z"/><path d="M35.768 3.955c-2.966 3.437-6.885 9.729-8.712 20.191a12.874 12.874 0 01-3.544 6.627 9 9 0 1013.977 1.237A14.547 14.547 0 0134.9 21.991a54.886 54.886 0 014.19-15.882 2 2 0 00-3.322-2.154zM32.922 21.73a16.744 16.744 0 002.9 11.39 7 7 0 11-10.872-.961 14.857 14.857 0 004.073-7.669c1.751-10.012 5.457-15.983 8.256-19.229a56.828 56.828 0 00-4.357 16.469z"/><circle cx="6" cy="37" r="1"/><circle cx="12" cy="37" r="1"/><circle cx="3" cy="41" r="1"/><circle cx="9" cy="41" r="1"/><circle cx="6" cy="45" r="1"/><circle cx="12" cy="45" r="1"/><circle cx="3" cy="49" r="1"/><circle cx="9" cy="49" r="1"/><circle cx="15" cy="49" r="1"/><circle cx="6" cy="53" r="1"/><circle cx="12" cy="53" r="1"/><circle cx="18" cy="53" r="1"/><circle cx="24" cy="53" r="1"/><circle cx="30" cy="53" r="1"/><circle cx="54" cy="37" r="1"/><circle cx="48" cy="37" r="1"/><circle cx="57" cy="41" r="1"/><circle cx="51" cy="41" r="1"/><circle cx="54" cy="45" r="1"/><circle cx="48" cy="45" r="1"/><circle cx="57" cy="49" r="1"/><circle cx="51" cy="49" r="1"/><circle cx="45" cy="49" r="1"/><circle cx="54" cy="53" r="1"/><circle cx="48" cy="53" r="1"/><circle cx="42" cy="53" r="1"/><circle cx="36" cy="53" r="1"/><circle cx="3" cy="57" r="1"/><circle cx="9" cy="57" r="1"/><circle cx="15" cy="57" r="1"/><circle cx="21" cy="57" r="1"/><circle cx="27" cy="57" r="1"/><circle cx="51" cy="57" r="1"/><circle cx="57" cy="57" r="1"/><circle cx="45" cy="57" r="1"/><circle cx="39" cy="57" r="1"/><circle cx="33" cy="57" r="1"/><path d="M11.825 1.337c-2.361 3.07-6.772 10.354-6.772 14.087a9.474 9.474 0 1018.947 0c0-3.733-4.411-11.017-6.772-14.087a3.4 3.4 0 00-5.403 0zM14.526 23a7.533 7.533 0 01-7.473-7.576c0-2.852 3.7-9.416 6.358-12.868a1.4 1.4 0 012.231 0C18.3 6.008 22 12.572 22 15.424A7.534 7.534 0 0114.526 23z"/><path d="M13.561 18.262a2.812 2.812 0 01-2.045-1.416 4.453 4.453 0 01.277-3.3A1 1 0 0010 12.663c-.056.111-1.34 2.762-.3 5.014a4.722 4.722 0 003.37 2.523 1 1 0 00.491-1.939zm30.732-.555a1 1 0 001.414 0l1-1a1 1 0 00-1.414-1.414l-1 1a1 1 0 000 1.414zm-4 2.586l-1 1a1 1 0 001.414 1.414l1-1a1 1 0 00-1.414-1.414zm4 1.414C45.353 22.768 45.48 23 46 23a1 1 0 00.707-1.707l-1-1a1 1 0 00-1.414 1.414zm-2.586-5.414l-1-1a1 1 0 00-1.414 1.414l1 1a1 1 0 001.414-1.414zM51 7c.53 0 .675-.261 1.707-1.293a1 1 0 10-1.414-1.414l-1 1A1 1 0 0051 7zm-5.707 4.707a1 1 0 001.414 0l1-1a1 1 0 00-1.414-1.414l-1 1a1 1 0 000 1.414zm5-1C51.353 11.768 51.48 12 52 12a1 1 0 00.707-1.707l-1-1a1 1 0 00-1.414 1.414zm-4-4a1 1 0 001.414-1.414l-1-1a1 1 0 00-1.414 1.414z"/></svg><svg viewBox="0 0 128 128" id="digestion" xmlns="http://www.w3.org/2000/svg"><path d="M120.76 2.29c-7.46-4.53-17-2.39-31 6.93C76.94 17.76 55.35 21.31 36 10 29 5.89 14.43-2.61 5.22 8.63c-4.19 5.11-3 13-1.88 20.58C5 40.31 4.76 41.88 2.41 51.86c-2 8.31-4.18 17.72-.17 27.2 2.42 5.72 6.56 9.52 12 11 6.88 1.85 14-.38 17.74-2.61 2.65 1.81 9.38 5.91 16.11 5.91h.56a19 19 0 00-.61 8c1.84 14.33 11.21 25.56 11.61 26a2 2 0 103.05-2.58c-.09-.11-9-10.79-10.69-24a14.65 14.65 0 017-14.62c6.56-4.23 9.29-2.73 14.85-.58 7.93 3.07 18.8 7.28 25.3 1.08 4-3.78 3.16-13.37 2.14-25.49-1-11.62-2.08-24.78 1.74-31.37a1.63 1.63 0 00.09-.19 50.08 50.08 0 005.53-4.14 2 2 0 00-2.62-3c-24.87 21.51-69.46 13.71-85.4 3.67a2 2 0 00-2.13 3.39 53.56 53.56 0 0010.27 4.8c-1.24 2.53-3.41 12.39-1.94 14.79a71.62 71.62 0 017.38 15.32 2 2 0 00.08.33v.09C36 70.41 36 75 34.38 78.57a13.69 13.69 0 01-3.59 4.84 20.4 20.4 0 01-15.54 2.76C11 85 7.87 82.12 5.92 77.5c-3.5-8.28-1.53-16.64.38-24.72 2.46-10.43 2.7-12.52.99-24.16-1-7-2-13.71 1-17.45 6.2-7.57 16-3.38 25.64 2.26 20.87 12.2 44.17 8.35 58-.88 16.23-10.82 23-9.09 26.72-6.84 8.86 5.37 4.91 14.87.49 22.54-6.17 10.68-5.4 18.8-4.14 28.69 1.11 8.78 4.08 32.11-5.12 39.46-12 9.62-24.52 8.42-41.74-4a2 2 0 10-2.34 3.24q2.94 2.12 5.74 3.84c-.61 8.56-2 23.11-3.12 25.75a2 2 0 003.68 1.56c1.52-3.55 2.84-19.33 3.29-25.11 13 6.87 25 7.47 37-2.15 11-8.75 7.89-32.81 6.58-43.08-1.14-9-1.9-16.59 3.64-26.19 2.86-4.92 11.49-19.88-1.85-27.97zM96.65 38a9.19 9.19 0 01-8.85 5.52h-4a2 2 0 000 4h4a13.38 13.38 0 008.53-2.8c0 5.08.93 16.62 1 17.09 0 4-3.83 7.57-8.16 7.57h-4a2 2 0 000 4h4a12.41 12.41 0 008.75-3.65c.38 6.49.28 12.24-1.54 14-4.51 4.27-13.44 1.05-20.29-1.6a21.68 21.68 0 01-1.83-23.89 13.14 13.14 0 008.55 3.54 2 2 0 000-4c-2.78 0-5.87-1.87-7.87-4.76-1.53-2.21-3.66-6.86-1.37-13.6a71.43 71.43 0 0024-6.72 36.58 36.58 0 00-.92 5.3zm-27.37 1.8a18.36 18.36 0 002.2 15.2C66 64.29 66.8 73.25 70.05 80a15.42 15.42 0 00-8.88.65c1-4.11 1.59-10.31-1.13-16-.29-.59-.62-1.17-1-1.75 3.3-5 6.64-14.43 1.66-22.91.9.01 6.73.01 8.58-.19zM39.5 71.07a13.53 13.53 0 007 2.33c1.11 0 2.18-.22 2.13-2.05a2 2 0 00-2-1.95c-2.17.07-7-2-8.53-6.08a.46.46 0 00-.07-.14A73.75 73.75 0 0030.24 47c-.5-1.89 1.58-10.23 2.35-11.5a105.9 105.9 0 0023.09 4.19c6.23 7.33 3 15.65.84 19.59a45.35 45.35 0 00-5.41-5.45A2 2 0 0048.58 57c.05 0 5.55 4.58 7.85 9.38 3.2 6.67.58 14.71-.19 16.78a19.57 19.57 0 00-5.7 5.93c-5.5 1.32-12.16-2.27-15.38-4.31a18.33 18.33 0 004.34-13.71z"/></svg><svg viewBox="0 0 512 512" id="email" xmlns="http://www.w3.org/2000/svg"><path d="M298.789 313.693c-12.738 8.492-27.534 12.981-42.789 12.981-15.254 0-30.05-4.489-42.788-12.981L3.409 173.82A76.269 76.269 0 010 171.403V400.6c0 26.278 21.325 47.133 47.133 47.133h417.733c26.278 0 47.133-21.325 47.133-47.133V171.402a75.21 75.21 0 01-3.416 2.422z"/><path d="M20.05 148.858l209.803 139.874c7.942 5.295 17.044 7.942 26.146 7.942 9.103 0 18.206-2.648 26.148-7.942L491.95 148.858c12.555-8.365 20.05-22.365 20.05-37.475 0-25.981-21.137-47.117-47.117-47.117H47.117C21.137 64.267 0 85.403 0 111.408a44.912 44.912 0 0020.05 37.45z"/></svg><svg viewBox="0 0 512 512" id="endocrine" xmlns="http://www.w3.org/2000/svg"><path d="M464.394 235.845a205.577 205.577 0 00-39.859-106.235l-13.43-18.104c-8.552-11.528-21.363-18.823-35.15-20.014a48.302 48.302 0 00-10.896.298 145.767 145.767 0 0110.151-19.043 53.285 53.285 0 008.276-28.543V22.128C383.486 9.927 373.559 0 361.358 0h-1.469a22.108 22.108 0 00-20.333 13.396l-3.706 8.632a40.493 40.493 0 01-37.243 24.536c-15.195 0-28.11 10.359-31.408 25.192l-2.92 13.134c-.871 3.917-4.281 6.652-8.293 6.652s-7.422-2.735-8.293-6.651l-2.92-13.135c-3.298-14.833-16.213-25.192-31.408-25.192-2.25-.021-3.621.08-7.78-.493-4.093-.641-7.931 2.15-8.575 6.241a7.498 7.498 0 006.241 8.576c1.935.309 6.043.72 10.114.676 8.111 0 15.005 5.53 16.766 13.447l2.92 13.135c2.408 10.831 11.84 18.396 22.936 18.396s20.527-7.565 22.936-18.396l2.92-13.134c1.761-7.918 8.654-13.448 16.766-13.448a55.477 55.477 0 0051.025-33.617l3.706-8.631A7.124 7.124 0 01359.891 15h1.469c3.931 0 7.128 3.198 7.128 7.128v22.075a38.311 38.311 0 01-5.949 20.519 160.88 160.88 0 00-16.224 33.842c-9.415 5.639-18.035 16.39-21.278 28.133h-43.389c-4.143 0-7.5 3.358-7.5 7.5s3.357 7.5 7.5 7.5h39.012l-17.864 61.221c-1.219 4.175-5.107 7.091-9.457 7.091-5.432 0-9.851-4.419-9.851-9.851v-15.372c0-15.164-12.337-27.5-27.5-27.5s-27.5 12.336-27.5 27.5v15.372c0 5.432-4.419 9.851-9.851 9.851-4.35 0-8.238-2.916-9.456-7.091l-17.865-61.221h55.331c4.143 0 7.5-3.358 7.5-7.5s-3.357-7.5-7.5-7.5h-59.708c-2.955-11.123-11.433-22.163-21.277-28.13a160.857 160.857 0 00-16.224-33.845 38.295 38.295 0 01-5.95-20.519V22.128A7.135 7.135 0 01150.616 15a7.12 7.12 0 016.55 4.315l3.708 8.633a55.495 55.495 0 007.895 13.067 7.5 7.5 0 0011.649-9.45 40.51 40.51 0 01-5.76-9.536l-3.708-8.633A22.114 22.114 0 00150.614 0c-12.201 0-22.128 9.927-22.128 22.128v22.075a53.278 53.278 0 008.277 28.544 145.84 145.84 0 0110.153 19.044 48.213 48.213 0 00-10.899-.299c-13.787 1.191-26.599 8.486-35.15 20.014l-13.43 18.104c-18.714 25.227-31.573 54.883-37.188 85.765-5.556 30.558-4.069 62.496 4.3 92.362 1.118 3.988 5.265 6.319 9.245 5.198a7.5 7.5 0 005.198-9.246c-15.797-56.373-4.397-118.108 30.492-165.142l13.43-18.104c5.994-8.08 14.886-13.185 24.395-14.006 15.876-1.37 30.632 8.711 35.087 23.978l22.385 76.707c3.073 10.533 12.884 17.889 23.855 17.889 13.702 0 24.851-11.148 24.851-24.851v-15.372c0-6.893 5.607-12.5 12.5-12.5s12.5 5.607 12.5 12.5v15.372c0 13.703 11.147 24.851 24.851 24.851 10.972 0 20.782-7.356 23.856-17.889l22.384-76.707c4.453-15.266 19.21-25.351 35.087-23.978 9.509.822 18.4 5.927 24.395 14.006l13.43 18.104c43.157 58.178 49.474 137.31 16.09 201.598-6.653 12.813-19.755 20.773-34.193 20.773-14.476 0-27.594-7.99-34.235-20.853-11.863-22.976-35.297-37.249-61.154-37.249H212.98c-25.858 0-49.291 14.273-61.154 37.249-6.642 12.862-19.76 20.853-34.235 20.853-16.208-.063-30.324-10.147-36.703-25.783a7.5 7.5 0 00-13.508 6.522c7.77 19.403 28.32 34.782 50.211 34.261 20.111 0 38.337-11.101 47.563-28.971a53.845 53.845 0 0115.835-18.623V344.5c0 8.798 6.534 16.081 15 17.3v15.4c-8.466 1.22-15 8.502-15 17.3v25c0 8.798 6.534 16.081 15 17.3v15.4c-8.466 1.22-15 8.502-15 17.3v25c0 9.649 7.851 17.5 17.5 17.5h115c9.649 0 17.5-7.851 17.5-17.5v-25c0-8.798-6.534-16.081-15-17.3v-15.4c8.466-1.22 15-8.502 15-17.3v-25c0-8.798-6.534-16.081-15-17.3v-15.4c8.466-1.22 15-8.502 15-17.3v-16.176a53.845 53.845 0 0115.835 18.623c9.228 17.87 27.452 28.971 47.563 28.971 20.06 0 38.263-11.059 47.506-28.861a205.613 205.613 0 0022.501-111.212zM210.986 377v-15h90v15zm105 117.5c0 1.378-1.121 2.5-2.5 2.5h-115a2.503 2.503 0 01-2.5-2.5v-25c0-1.378 1.121-2.5 2.5-2.5h115c1.379 0 2.5 1.122 2.5 2.5zm0-75c0 1.378-1.121 2.5-2.5 2.5H276.22c-4.143 0-7.5 3.358-7.5 7.5s3.357 7.5 7.5 7.5h24.766v15h-90v-15h29.234c4.143 0 7.5-3.358 7.5-7.5s-3.357-7.5-7.5-7.5h-41.734a2.503 2.503 0 01-2.5-2.5v-25c0-1.378 1.121-2.5 2.5-2.5h115c1.379 0 2.5 1.122 2.5 2.5zm0-75c0 1.378-1.121 2.5-2.5 2.5h-115a2.503 2.503 0 01-2.5-2.5v-23.95a54.01 54.01 0 0116.991-2.734h86.018a54.01 54.01 0 0116.991 2.734z"/><path d="M95.443 321.66c0 12.407 10.094 22.5 22.5 22.5s22.5-10.093 22.5-22.5-10.094-22.5-22.5-22.5-22.5 10.093-22.5 22.5zm22.5-7.5c4.136 0 7.5 3.364 7.5 7.5s-3.364 7.5-7.5 7.5-7.5-3.364-7.5-7.5 3.364-7.5 7.5-7.5zm255.83-186.463c-12.406 0-22.5 10.093-22.5 22.5s10.094 22.5 22.5 22.5 22.5-10.093 22.5-22.5-10.094-22.5-22.5-22.5zm0 30c-4.136 0-7.5-3.364-7.5-7.5s3.364-7.5 7.5-7.5 7.5 3.364 7.5 7.5-3.364 7.5-7.5 7.5zM426.273 271c0-12.407-10.094-22.5-22.5-22.5s-22.5 10.093-22.5 22.5 10.094 22.5 22.5 22.5 22.5-10.093 22.5-22.5zm-30 0c0-4.136 3.364-7.5 7.5-7.5s7.5 3.364 7.5 7.5-3.364 7.5-7.5 7.5-7.5-3.364-7.5-7.5zm-20.277 34.713c-4.142 0-7.495 3.358-7.495 7.5s3.363 7.5 7.505 7.5c4.143 0 7.5-3.358 7.5-7.5s-3.357-7.5-7.5-7.5zm19 19c-4.142 0-7.495 3.358-7.495 7.5s3.363 7.5 7.505 7.5c4.143 0 7.5-3.358 7.5-7.5s-3.357-7.5-7.5-7.5zm-116.51-65.364c0-12.407-10.094-22.5-22.5-22.5s-22.5 10.093-22.5 22.5 10.094 22.5 22.5 22.5 22.5-10.094 22.5-22.5zm-30 0c0-4.136 3.364-7.5 7.5-7.5s7.5 3.364 7.5 7.5-3.364 7.5-7.5 7.5-7.5-3.365-7.5-7.5zM130.305 141.436c-12.406 0-22.5 10.093-22.5 22.5s10.094 22.5 22.5 22.5 22.5-10.093 22.5-22.5-10.093-22.5-22.5-22.5zm0 30c-4.136 0-7.5-3.364-7.5-7.5s3.364-7.5 7.5-7.5 7.5 3.364 7.5 7.5-3.364 7.5-7.5 7.5zM136.188 240c0 15.164 12.337 27.5 27.5 27.5s27.5-12.336 27.5-27.5-12.337-27.5-27.5-27.5-27.5 12.336-27.5 27.5zm27.5-12.5c6.893 0 12.5 5.607 12.5 12.5s-5.607 12.5-12.5 12.5-12.5-5.607-12.5-12.5 5.608-12.5 12.5-12.5zM333.486 216c0 15.164 12.337 27.5 27.5 27.5s27.5-12.336 27.5-27.5-12.337-27.5-27.5-27.5-27.5 12.336-27.5 27.5zm27.5-12.5c6.893 0 12.5 5.607 12.5 12.5s-5.607 12.5-12.5 12.5-12.5-5.607-12.5-12.5 5.607-12.5 12.5-12.5zm-247.587 66.754c4.143 0 7.5-3.358 7.5-7.5s-3.357-7.5-7.5-7.5h-.01c-4.142 0-7.495 3.358-7.495 7.5s3.363 7.5 7.505 7.5zm-19.287-14.69a7.5 7.5 0 00-7.5-7.5h-.01c-4.142 0-7.495 3.358-7.495 7.5s3.363 7.5 7.505 7.5c4.143 0 7.5-3.357 7.5-7.5zm4.129 26.872a7.5 7.5 0 00-7.5-7.5h-.01c-4.142 0-7.495 3.358-7.495 7.5s3.363 7.5 7.505 7.5 7.5-3.358 7.5-7.5zm234.85-30.911c-4.142 0-7.495 3.358-7.495 7.5s3.363 7.5 7.505 7.5c4.143 0 7.5-3.358 7.5-7.5s-3.357-7.5-7.5-7.5zm-28.181 10.261h-.01c-4.142 0-7.495 3.358-7.495 7.5s3.363 7.5 7.505 7.5a7.5 7.5 0 000-15zm5.742-26.572h-.01c-4.142 0-7.495 3.358-7.495 7.5s3.363 7.5 7.505 7.5c4.143 0 7.5-3.358 7.5-7.5s-3.357-7.5-7.5-7.5z"/></svg><svg viewBox="0 0 60 50" id="eye" xmlns="http://www.w3.org/2000/svg"><path d="M59 18a12.13 12.13 0 01-9.33-5.47 25 25 0 00-41.79-2.34C2.65 12.61 0 17.59 0 25s2.65 12.39 7.88 14.81a25 25 0 0041.79-2.34A12.13 12.13 0 0159 32a1 1 0 001-1V19a1 1 0 00-1-1zM47.93 36.47a23 23 0 01-38.6 2 1 1 0 00-.48-.36C4.3 36 2 31.62 2 25s2.29-11 6.81-13a1 1 0 00.52-.38 23 23 0 0138.6 2A14.19 14.19 0 0058 20v2h-4.71a8.94 8.94 0 01-8.09-5.08A19.11 19.11 0 0028 6a18.91 18.91 0 00-15.58 8.16C9.31 15 7 19.46 7 25s2.31 10 5.42 10.84a19 19 0 0032.78-2.76A8.94 8.94 0 0153.29 28H58v2a14.19 14.19 0 00-10.07 6.47zM58 26h-4.71a11 11 0 00-9.9 6.23c-.08.17-.18.34-.26.5A22.41 22.41 0 0142 25.1a22.17 22.17 0 011.17-7.76c.07.14.15.28.22.43a11 11 0 009.9 6.23H58zM9.68 21C10 21 11 22.38 11 25s-1 4-1.32 4a.57.57 0 01-.24-.14 17.15 17.15 0 010-7.72.57.57 0 01.24-.14zM13 25c0-3.18-1.17-5.56-2.85-5.94C11 17.13 12.29 16 13.5 16c2.17 0 4.5 3.62 4.5 9s-2.33 9-4.5 9c-1.21 0-2.47-1.13-3.35-3.06C11.83 30.56 13 28.18 13 25zm7 0c0-5.38-2.17-9.73-5.14-10.76A17 17 0 0142 15.32C40.91 17 40.2 20 40 23.5c-1.53-.5-3-1.5-3-3.5a12.23 12.23 0 00-.44-3.46.64.64 0 000-.07C35.6 13.41 33.17 12 29 12a1 1 0 000 2c2.51 0 4.1.51 5 1.75a5.8 5.8 0 00-4.38 2.09 3.37 3.37 0 01-.32.33 2.42 2.42 0 01-3.62 0 1 1 0 10-1.38 1.44A4.49 4.49 0 0027.45 21a4.8 4.8 0 003.24-1.39c.13-.12.26-.26.4-.41a4.09 4.09 0 013.72-1.46c.137.745.2 1.502.19 2.26 0 2.45 1.48 4.31 4.1 5.27a10.61 10.61 0 00-3.1 2.35c-2-1.22-4.78-.33-5.93.14l-2.55-1.61a1.002 1.002 0 10-1.06 1.7l2 1.24-1.17 1.22a1 1 0 000 1.42A1 1 0 0028 32a1 1 0 00.73-.31l1.86-2c.91-.42 3-1.09 4.27-.42a8.35 8.35 0 00-.86 2.57 6.1 6.1 0 01-2.62 4.22 4.52 4.52 0 01-4 0 1 1 0 00-.74 1.86 7.71 7.71 0 002.9.6 5.76 5.76 0 002.84-.73A8.07 8.07 0 0036 32.16 6.93 6.93 0 0140.06 27a18 18 0 001.84 7.73A17.11 17.11 0 0128 42a16.93 16.93 0 01-13.14-6.24C17.83 34.73 20 30.37 20 25z"/></svg><svg viewBox="0 0 512 512" id="gynecology" xmlns="http://www.w3.org/2000/svg"><path d="M478.386 222.367c-28.5-46.301-74.285-74.754-99.041-87.592-12.789-6.632-29.109-.629-34.488 12.906l-6.786 17.07c-4.701 11.824.22 25.209 11.446 31.134a232.037 232.037 0 0113.978 8.041l-22.457 18.556a24.215 24.215 0 00-6.27 7.882l-21.704 43.407H210.483l-6.139-17.057c17.252-7.596 25.957-27.421 19.479-45.421l-18.985-52.752c-5.161-14.341-18.865-23.976-34.1-23.976-3.338 0-6.642.469-9.856 1.381l-3.917-10.885c17.252-7.596 25.957-27.421 19.479-45.42l-16.867-46.865c-5.161-14.341-18.865-23.977-34.1-23.977-3.702 0-7.363.57-10.905 1.69a25.765 25.765 0 00-9.787-8.008C98.524-.467 91.49-.799 84.979 1.545L47.124 15.168C33.86 19.941 26.743 35.043 31.52 48.316L54.223 111.4a7.5 7.5 0 0014.115-5.08L45.634 43.237c-2.017-5.605.98-11.945 6.569-13.956l37.855-13.624c5.599-2.015 11.948.99 13.956 6.569l94.141 261.582a7.498 7.498 0 007.057 4.96h198.06c9.399 0 17.046 7.647 17.046 17.046v48.654c0 9.399-7.647 17.046-17.046 17.046h-45.223a7.5 7.5 0 000 15h32.869l-3.985 7.663a26.603 26.603 0 01-23.677 14.373H238.754a26.602 26.602 0 01-23.677-14.373l-3.985-7.663h117.015a7.5 7.5 0 000-15H198.739c-20.911 0-39.718-13.22-46.799-32.895L79.564 137.52a7.5 7.5 0 10-14.114 5.079l72.375 201.102c8.689 24.144 30.945 40.811 56.269 42.641l7.675 14.758c4.892 9.407 13.004 16.383 22.594 19.897l-32.024 36.19h-48.442c-16.887 0-32.548 9.822-39.903 25.023-6.564 13.565 3.667 29.79 18.68 29.79h284.009c15.053 0 25.24-16.235 18.682-29.79-7.354-15.201-23.017-25.023-39.903-25.023H270.918l29.764-33.635h62.574c15.61 0 29.78-8.603 36.983-22.452l7.768-14.936c15.432-2.296 27.31-15.633 27.31-31.693v-48.654c0-17.67-14.376-32.045-32.045-32.045H367.52l8.511-17.021 26.395-21.81c6.141 6.392 12.036 13.565 17.077 21.464 6.645 10.413 20.363 14.502 31.57 9.247l16.658-7.811c13.196-6.189 18.317-23.027 10.655-35.474zM151.867 110.9l-31.149-86.555a21.06 21.06 0 014.758-.545c8.929 0 16.961 5.648 19.987 14.056l16.866 46.865c3.675 10.213-.985 21.435-10.462 26.179zm47.38 131.652l-33.268-92.441a21.075 21.075 0 014.759-.545c8.929 0 16.961 5.648 19.986 14.056l18.985 52.751c3.675 10.213-.985 21.434-10.462 26.179zm186.214 229.636c11.173 0 21.536 6.498 26.403 16.559 1.833 3.794-1.006 8.255-5.18 8.255H122.676c-4.187 0-6.998-4.5-5.18-8.258 4.865-10.058 15.229-16.556 26.401-16.556h241.564zm-134.573-15h-38.52l29.764-33.635h38.52l-29.764 33.635zm114.366-210.991a7.514 7.514 0 00-1.931 2.427l-12.574 25.148h-20.916l18.35-36.699a9.303 9.303 0 012.408-3.028l25.928-21.424a198.777 198.777 0 0114.965 11.902l-26.23 21.674zm101.349-8.075c-.781 2.609-2.613 4.906-5.241 6.138l-16.658 7.811c-4.496 2.108-9.906.421-12.558-3.734-6.958-10.904-15.324-20.485-23.818-28.683-8.642-8.342-17.868-16.095-27.95-22.653-.01-.007-.022-.011-.032-.018a246.843 246.843 0 00-23.83-14.362c-4.434-2.341-6.373-7.641-4.509-12.329l6.786-17.071c2.113-5.315 8.561-7.768 13.645-5.132 23.378 12.125 66.569 38.917 93.171 82.14 1.512 2.455 1.762 5.325.994 7.893z"/></svg><svg viewBox="0 0 169.063 169.063" id="instagram" xmlns="http://www.w3.org/2000/svg"><path d="M122.406 0H46.654C20.929 0 0 20.93 0 46.655v75.752c0 25.726 20.929 46.655 46.654 46.655h75.752c25.727 0 46.656-20.93 46.656-46.655V46.655C169.063 20.93 148.133 0 122.406 0zm31.657 122.407c0 17.455-14.201 31.655-31.656 31.655H46.654C29.2 154.063 15 139.862 15 122.407V46.655C15 29.201 29.2 15 46.654 15h75.752c17.455 0 31.656 14.201 31.656 31.655v75.752z"/><path d="M84.531 40.97c-24.021 0-43.563 19.542-43.563 43.563 0 24.02 19.542 43.561 43.563 43.561s43.563-19.541 43.563-43.561c0-24.021-19.542-43.563-43.563-43.563zm0 72.123c-15.749 0-28.563-12.812-28.563-28.561 0-15.75 12.813-28.563 28.563-28.563s28.563 12.813 28.563 28.563c0 15.749-12.814 28.561-28.563 28.561zm45.39-84.842c-2.89 0-5.729 1.17-7.77 3.22a11.053 11.053 0 00-3.23 7.78c0 2.891 1.18 5.73 3.23 7.78 2.04 2.04 4.88 3.22 7.77 3.22 2.9 0 5.73-1.18 7.78-3.22 2.05-2.05 3.22-4.89 3.22-7.78 0-2.9-1.17-5.74-3.22-7.78-2.04-2.05-4.88-3.22-7.78-3.22z"/></svg><svg viewBox="0 0 24 24" id="location" xmlns="http://www.w3.org/2000/svg"><path d="M17.718 3.049a9.061 9.061 0 00-7.524-1.873 9 9 0 00-3.671 15.957 15.25 15.25 0 013.921 4.217l.7 1.164a1 1 0 001.714 0l.671-1.118a12.72 12.72 0 013.578-4 8.99 8.99 0 00.612-14.352zM12 14a4 4 0 114-4 4 4 0 01-4 4z" data-name="Layer 2"/></svg><svg viewBox="0 0 512 512" id="lungs" xmlns="http://www.w3.org/2000/svg"><path d="M356.811 157.956h-9.994c-25.84 0-46.862 21.023-46.862 46.863v37.807c0 4.142 3.357 7.5 7.5 7.5s7.5-3.358 7.5-7.5v-37.807c0-17.569 14.293-31.863 31.862-31.863h9.994c77.3 0 140.189 62.889 140.189 140.189v148.973c0 17.569-14.293 31.862-31.862 31.862H400.59c-4.143 0-7.5 3.358-7.5 7.5s3.357 7.5 7.5 7.5h64.548c25.84 0 46.862-21.022 46.862-46.862V313.146c0-85.572-69.617-155.19-155.189-155.19z"/><path d="M396.728 414.948l-2.719-14.085 28.061 16.107c11.06 6.349 25.225 2.517 31.574-8.543a22.977 22.977 0 002.269-17.559 22.982 22.982 0 00-10.811-14.02l-58.482-33.572 18.412-5.455c5.923-1.754 10.809-5.71 13.756-11.14s3.604-11.681 1.85-17.603c-3.622-12.228-16.52-19.226-28.742-15.607l-60.708 17.98-16.231-9.318v-26.822c0-4.142-3.357-7.5-7.5-7.5s-7.5 3.358-7.5 7.5v18.211l-20.826-11.955V151.48h9.171c4.143 0 7.5-3.358 7.5-7.5s-3.357-7.5-7.5-7.5h-9.171v-35.013h9.171c4.143 0 7.5-3.358 7.5-7.5s-3.357-7.5-7.5-7.5h-9.171V51.454h9.171c4.143 0 7.5-3.358 7.5-7.5s-3.357-7.5-7.5-7.5h-9.171V15.729c0-7.008-5.701-12.71-12.71-12.71h-20.838c-7.008 0-12.71 5.701-12.71 12.71v20.725H223.7c-4.143 0-7.5 3.358-7.5 7.5s3.357 7.5 7.5 7.5h9.171v35.013H223.7c-4.143 0-7.5 3.358-7.5 7.5s3.357 7.5 7.5 7.5h9.171v35.013H223.7c-4.143 0-7.5 3.358-7.5 7.5s3.357 7.5 7.5 7.5h9.171v130.1l-20.826 11.956V204.82c0-25.84-21.022-46.863-46.862-46.863h-9.994C69.617 157.956 0 227.574 0 313.146v148.973c0 25.84 21.022 46.862 46.862 46.862h118.32c25.84 0 46.862-21.022 46.862-46.862v-10.827c0-4.142-3.357-7.5-7.5-7.5s-7.5 3.358-7.5 7.5v10.827c0 17.569-14.293 31.862-31.862 31.862H46.862C29.293 493.98 15 479.687 15 462.118V313.146c0-77.3 62.889-140.189 140.189-140.189h9.994c17.569 0 31.862 14.294 31.862 31.863v97.327l-16.189 9.294-60.634-17.966a22.97 22.97 0 00-17.604 1.849 22.974 22.974 0 00-11.14 13.755c-1.754 5.923-1.098 12.174 1.85 17.603s7.833 9.385 13.755 11.139l18.342 5.434-73.656 42.283a22.98 22.98 0 00-10.811 14.019 22.973 22.973 0 002.271 17.557c6.351 11.056 20.516 14.884 31.566 8.538l43.315-24.865-2.729 14.164c-2.414 12.523 5.811 24.675 18.333 27.089 6.067 1.17 12.227-.093 17.344-3.556s8.579-8.712 9.748-14.778l10.28-53.326 25.958-14.901v63.125c0 4.142 3.357 7.5 7.5 7.5s7.5-3.358 7.5-7.5V346.87L256 321.638l43.955 25.232v115.248c0 25.84 21.022 46.862 46.862 46.862h21.086c4.143 0 7.5-3.358 7.5-7.5s-3.357-7.5-7.5-7.5h-21.086c-17.569 0-31.862-14.293-31.862-31.862V355.481l26.083 14.973 10.27 53.256a22.977 22.977 0 009.748 14.777c3.872 2.62 8.34 3.98 12.914 3.98 1.47 0 2.951-.141 4.427-.425a22.973 22.973 0 0014.777-9.749 22.977 22.977 0 003.554-17.345zM247.871 18.02h16.258v18.435h-16.258zm0 33.434h16.258v35.013h-16.258zm0 50.013h16.258v35.013h-16.258zm139.405 278.236a7.499 7.499 0 00-11.098 7.926L382 417.79a8.079 8.079 0 01-1.249 6.096 8.077 8.077 0 01-5.194 3.427 8.07 8.07 0 01-6.095-1.25 8.076 8.076 0 01-3.426-5.193l-10.647-55.222a10.616 10.616 0 00-5.145-7.206l-88.954-51.064a10.634 10.634 0 00-5.291-1.405 10.62 10.62 0 00-5.288 1.405l-88.827 50.989a10.618 10.618 0 00-5.146 7.206l-10.659 55.294a8.075 8.075 0 01-3.427 5.195 8.08 8.08 0 01-6.097 1.25c-4.401-.849-7.293-5.12-6.444-9.522l4.535-23.539c.796-4.13-.837-8.214-4.26-10.658-3.426-2.445-7.817-2.66-11.463-.567l-51.596 29.618c-3.886 2.229-8.861.884-11.093-3.001a8.077 8.077 0 01-.798-6.169 8.071 8.071 0 013.8-4.926l82.515-47.369c3.692-2.12 5.758-6.222 5.263-10.451s-3.453-7.743-7.535-8.952l-28.136-8.335c-4.296-1.273-6.756-5.803-5.482-10.1a8.07 8.07 0 013.914-4.833 8.07 8.07 0 016.186-.65l62.428 18.498c2.774.824 5.804.468 8.312-.972l55.836-32.055a10.651 10.651 0 005.336-9.215V151.48h16.258v132.622c0 3.794 2.044 7.324 5.336 9.215l55.88 32.078a10.68 10.68 0 008.306.972l62.504-18.512c4.289-1.273 8.827 1.187 10.101 5.485.616 2.081.386 4.278-.65 6.186s-2.752 3.298-4.834 3.915l-28.206 8.356c-4.083 1.209-7.041 4.723-7.536 8.952s1.571 8.332 5.264 10.452l67.341 38.658a8.08 8.08 0 013.801 4.928 8.083 8.083 0 01-.797 6.173c-2.232 3.889-7.209 5.234-11.1 3.003z"/></svg><svg viewBox="0 0 32 32" id="navigation" xmlns="http://www.w3.org/2000/svg"><path d="M28.91 4.417l-11 24a1 1 0 01-1.907-.334l-.93-11.157-11.156-.93a1 1 0 01-.334-1.906l24-11a1 1 0 011.326 1.326z"/></svg><svg viewBox="0 0 512 512" id="neoplasm" xmlns="http://www.w3.org/2000/svg"><path d="M512 268.852c0-40.482-24.796-76.206-60.418-89.21a60.795 60.795 0 002.612-17.627c0-32.133-24.994-58.275-55.715-58.275-5.822 0-11.526.934-16.961 2.75-4.978-23.599-25.153-41.308-49.213-41.308-4.676 0-9.238.654-13.643 1.952-13.114-20.242-34.84-32.476-58.614-32.476-35.214 0-64.516 27.038-70.004 62.345a64.477 64.477 0 00-12.903-1.295 64.482 64.482 0 00-25.946 5.458c-9.291-12.227-21.977-21.063-36.511-25.272-5.34-1.542-10.934 1.53-12.483 6.877-1.548 5.346 1.53 10.935 6.877 12.483 12.543 3.633 23.206 12.187 30.027 24.088 2.81 4.902 9.356 6.53 14.136 3.504 7.213-4.567 15.478-6.983 23.9-6.983a44.068 44.068 0 0118.003 3.821c3.672 1.63 8.09.874 11.011-1.885 2.569-2.427 3.122-5.439 3.122-8.8 0-29.878 22.776-54.186 50.772-54.186 19.058 0 36.348 11.25 45.12 29.359 2.452 5.059 8.822 7.147 13.795 4.508 4.179-2.218 8.668-3.343 13.343-3.343 16.672 0 30.235 14.578 30.235 32.497 0 4.658-.709 8.847 3.235 12.266 3.517 3.049 8.831 3.269 12.583.5 5.943-4.386 12.9-6.705 20.121-6.705 19.607 0 35.56 17.101 35.56 38.119 0 6.793-1.699 13.471-4.911 19.312-3.207 5.83.242 13.329 6.727 14.713 32.444 6.922 55.991 37.544 55.991 72.812 0 40.952-31.306 74.268-69.787 74.268-5.803 0-11.886-1.333-15.422 4.581-3.104 5.19.02 11.904.02 17.546 0 22.348-16.976 40.53-37.841 40.53-9.363 0-18.352-3.697-25.31-10.409-4.491-4.334-12.079-3.459-15.463 1.784-1.6 2.479-1.868 5.291-1.257 8.12.821 3.8 1.526 7.473 1.526 11.386 0 22.348-16.976 40.53-37.841 40.53-16.4 0-30.851-11.214-35.959-27.906-2.086-6.813-10.771-9.351-16.192-4.704-7.729 6.619-17.049 10.118-26.952 10.118-18.755 0-35.253-12.81-41.051-31.876-2.064-6.784-10.69-9.365-16.135-4.774-8.497 7.161-18.707 10.945-29.524 10.945-26.317 0-47.729-22.866-47.729-50.972 0-7.87 1.636-15.417 4.863-22.43 2.44-5.305-.297-11.765-5.792-13.712-14.913-5.28-24.933-20.132-24.933-36.957 0-4.836.827-9.571 2.457-14.072 2.094-5.777-1.64-12.257-7.679-13.35-14.885-2.696-25.689-16.439-25.689-32.681 0-16.418 10.937-30.187 26.006-32.742 6.885-1.167 10.562-9.172 6.935-15.158-5.31-8.763-8.115-18.915-8.115-29.36 0-6.814 1.168-13.454 3.473-19.735 1.916-5.226-.766-11.016-5.991-12.933-5.228-1.914-11.016.767-12.933 5.991-3.122 8.512-4.705 17.487-4.705 26.678 0 9.852 1.855 19.528 5.426 28.522C12.156 184.421 0 203.216 0 224.816c0 22.14 12.889 41.443 31.837 49.42a61.735 61.735 0 00-.926 10.682c0 21.722 11.325 41.346 29.006 51.627-2.089 6.9-3.144 14.088-3.144 21.472 0 39.22 30.453 71.128 67.884 71.128 10.985 0 21.814-2.832 31.475-8.124 11.023 20.66 31.907 33.829 55.235 33.829 10.157 0 20.151-2.584 29.09-7.421 10.238 18.302 29.056 29.912 50.014 29.912 30.258 0 55.178-24.374 57.774-55.341a55.703 55.703 0 0020.57 3.931c16.282 0 30.886-7.181 41.562-18.401 17.449-18.337 16.423-43.685 16.4-44.384 47.409-2.584 85.223-43.89 85.223-94.294z"/><path d="M181.108 332.182c-9.219 12.764-12.676 26.316-12.819 26.886-1.331 5.322 2.009 10.891 7.332 12.221 5.324 1.33 10.89-2.008 12.221-7.332.026-.102 2.745-10.476 9.604-19.975 8.611-11.923 19.264-16.776 32.572-14.824 5.505.815 10.626-3.005 11.431-8.512.806-5.507-3.005-10.625-8.512-11.431-20.859-3.054-38.776 4.89-51.829 22.967zm191.384-87.198c-4.757-2.893-10.956-1.377-13.845 3.38-10.943 18.01-10.62 37.612.933 56.683 8.158 13.467 19.288 21.936 19.759 22.29 4.767 3.591 11.745 2.146 14.759-2.968 2.561-4.345 1.392-10.099-2.632-13.131-.084-.063-8.576-6.613-14.646-16.634-7.62-12.579-7.93-24.281-.948-35.774 2.89-4.757 1.376-10.956-3.38-13.846zm-244.696-32.823c-4.425 2.704-6.084 8.543-3.729 13.167 2.627 5.159 9.292 7.054 14.24 4.032 22.339-13.652 28.359-32.161 29.476-45.285 1.172-13.772-2.72-24.267-3.168-25.418-2.019-5.188-7.86-7.758-13.045-5.741-5.188 2.018-7.758 7.859-5.741 13.045.028.069 2.645 7.3 1.871 16.405-1.05 12.342-7.747 22.365-19.904 29.795zm186.729-88.551c-5.01-2.426-11.035-.335-13.463 4.675-11.416 23.561-6.477 42.388-.323 54.033 6.459 12.22 15.407 18.946 16.406 19.672 4.823 3.51 11.778 1.948 14.707-3.215 2.488-4.387 1.223-10.122-2.852-13.085-.06-.043-6.172-4.712-10.441-12.791-5.787-10.951-5.571-23.005.641-35.826 2.427-5.009.333-11.036-4.675-13.463z"/><circle cx="147.496" cy="274.508" r="10"/><circle cx="309.732" cy="331.991" r="10"/><circle cx="236.501" cy="173.434" r="10"/><circle cx="79.749" cy="226.334" r="10.078"/><circle cx="67.824" cy="90.284" r="10"/><circle cx="440.442" cy="268.451" r="10"/><circle cx="246.652" cy="252.452" r="10"/><circle cx="282.932" cy="384.807" r="10"/><circle cx="395.803" cy="173.174" r="10"/><path d="M285.92 241.552l12.396 28.31c2.322 5.305 8.863 7.576 13.983 4.846 4.579-2.442 6.561-8.18 4.48-12.93l-12.396-28.31c-2.233-5.099-8.18-7.422-13.273-5.189-5.099 2.231-7.423 8.175-5.19 13.273zm-179.292 80.383c.495 5.217 4.884 9.126 10.021 9.126.319 0 31.73-2.966 31.73-2.966 5.542-.526 9.607-5.443 9.081-10.984-.526-5.542-5.44-9.593-10.985-9.081l-30.766 2.92c-5.542.525-9.608 5.443-9.081 10.985zm158.2-189.856c5.421-1.266 8.789-6.685 7.523-12.105l-7.027-30.096c-1.266-5.421-6.687-8.79-12.105-7.523-5.421 1.266-8.789 6.685-7.523 12.105l7.027 30.096c1.247 5.342 6.761 8.772 12.105 7.523z"/></svg><svg viewBox="0 0 512 512" id="neuroimaging" xmlns="http://www.w3.org/2000/svg"><path d="M220.007 281.505a7.489 7.489 0 005.028-9.322 28.915 28.915 0 00-7.407-12.346 14.034 14.034 0 016.006-3.64 7.489 7.489 0 005.028-9.322 7.487 7.487 0 00-9.322-5.028 28.919 28.919 0 00-14.98 10.486c-5.056-1.298-10.386-1.205-15.516.331-3.963 1.186-6.214 5.359-5.028 9.322s5.361 6.215 9.322 5.028c7.449-2.228 15.318 2.018 17.546 9.463 1.192 3.982 5.381 6.209 9.323 5.028zm81.176-5.028a14.004 14.004 0 016.813-8.365 14.004 14.004 0 0110.733-1.098 7.488 7.488 0 009.322-5.028 7.489 7.489 0 00-5.028-9.322 28.897 28.897 0 00-15.503-.313 28.918 28.918 0 00-14.993-10.503 7.49 7.49 0 10-4.294 14.35 14.026 14.026 0 016.017 3.651 28.884 28.884 0 00-7.417 12.335 7.489 7.489 0 005.028 9.322c3.938 1.179 8.13-1.044 9.322-5.029z"/><path d="M169.276 389.708a160.346 160.346 0 01-25.971-21.057c-62.104-62.105-62.104-163.155 0-225.26 44.905-44.904 112.098-58.857 171.182-35.546a7.49 7.49 0 005.497-13.933 174.235 174.235 0 00-56.56-12.021V63.375c14.018-3.381 24.466-16.019 24.466-31.06 0-17.62-14.335-31.955-31.955-31.955S223.98 14.695 223.98 32.315c0 15.041 10.448 27.68 24.466 31.06V81.89c-42.756 1.853-84.251 19.428-115.732 50.909a175.374 175.374 0 00-10.469 11.456H60.453c-11.584 0-21.008-9.424-21.008-21.008V63.375c14.018-3.381 24.466-16.019 24.466-31.06C63.911 14.695 49.576.36 31.956.36S0 14.694 0 32.315c0 15.041 10.448 27.68 24.466 31.06v59.873c0 19.843 16.144 35.987 35.987 35.987h50.559c-18.058 27.02-27.755 58.009-29.09 89.296H63.015c-3.38-14.018-16.019-24.466-31.06-24.466C14.335 224.064 0 238.399 0 256.02s14.335 31.955 31.955 31.955c15.041 0 27.68-10.448 31.06-24.466h18.907c1.343 31.511 11.172 62.718 29.48 89.875H60.453c-19.843 0-35.987 16.143-35.987 35.986v59.255C10.448 452.006 0 464.645 0 479.685c0 17.62 14.335 31.955 31.955 31.955s31.955-14.335 31.955-31.955c0-15.041-10.448-27.68-24.466-31.06V389.37c0-11.584 9.424-21.008 21.008-21.008h62.272a175.328 175.328 0 009.988 10.88 175.415 175.415 0 0028.402 23.026 7.488 7.488 0 0010.36-2.2 7.487 7.487 0 00-2.198-10.36zm69.682-357.393c0-9.361 7.615-16.976 16.976-16.976s16.976 7.615 16.976 16.976-7.615 16.976-16.976 16.976-16.976-7.615-16.976-16.976zM31.955 49.291c-9.361 0-16.976-7.615-16.976-16.976s7.615-16.976 16.976-16.976 16.976 7.615 16.976 16.976-7.615 16.976-16.976 16.976zm0 223.705c-9.361 0-16.976-7.615-16.976-16.976s7.615-16.976 16.976-16.976 16.976 7.615 16.976 16.976c0 9.36-7.615 16.976-16.976 16.976zm16.976 206.689c0 9.361-7.615 16.976-16.976 16.976s-16.976-7.615-16.976-16.976 7.615-16.976 16.976-16.976 16.976 7.615 16.976 16.976z"/><path d="M216.467 374.728c4.419 1.941 9.144 2.926 14.045 2.926 9.938 0 19.209-4.212 25.421-11.158 6.212 6.946 15.483 11.158 25.421 11.158 4.902 0 9.626-.984 14.046-2.926 1.675.152 3.364.229 5.022.229 25.445 0 47.302-17.328 51.496-40.536.326-1.293.191-3.8 2.684-6.034 15.788-14.157 18.144-32.258 10.173-47.87 12.534-15.319 11.92-36.931-1.85-51.596 7.127-18.528-1.82-39.779-21.968-48.182.171-1.355.257-2.725.257-4.091 0-18.953-16.293-34.41-36.515-34.744-6.541-19.659-33.889-26.202-48.766-9.745-14.636-16.187-42.084-10.333-48.765 9.744-20.19.302-36.515 15.772-36.515 34.745 0 1.366.086 2.736.257 4.091-20.137 8.398-29.098 29.648-21.968 48.181-13.766 14.661-14.39 36.271-1.851 51.597-7.943 15.561-5.675 33.66 10.174 47.87 2.482 2.226 2.377 4.814 2.683 6.03 4.193 23.211 26.05 40.54 51.497 40.54a55.016 55.016 0 005.022-.229zm46.956-50.927c0-5.307 4.318-9.625 9.625-9.625s9.625 4.318 9.625 9.625a7.49 7.49 0 0014.978 0c0-13.567-11.037-24.604-24.604-24.604-3.414 0-6.667.7-9.625 1.962V184.038a11.443 11.443 0 0114.672-2.661 7.49 7.49 0 007.558-12.932c-6.634-3.877-14.635-4.768-22.23-2.074v-14.626c0-17.011 23.319-18.372 27.211-4.633 1.629 5.752 7.138 9.767 13.45 9.766h.013c20.154 0 29.334 21.761 15.563 35.016a21.268 21.268 0 01-13.129 5.916 29.96 29.96 0 00-16.368-4.85 7.49 7.49 0 000 14.978c8.365 0 15.17 6.805 15.17 15.17a7.49 7.49 0 0014.978 0c0-4.477-.988-8.725-2.747-12.549a36.313 36.313 0 0012.482-7.873 36.602 36.602 0 006.098-7.702c12.105 5.595 17.187 18.358 12.488 29.328-2.091 4.878-1.004 10.466 2.768 14.237 9.255 9.252 9.914 23.206 1.235 33.131-3.693 4.223-4.313 10.087-1.579 14.941 4.141 7.352 4.466 16.809-1.145 24.715-4.155-11.847-13.005-21.547-24.959-26.227a7.49 7.49 0 00-5.461 13.949c12.322 4.824 19.59 18.001 17.79 32.131-2.825 17.559-20.621 30.499-40.672 28.61a14.33 14.33 0 00-7.145 1.179c-2.533 1.127-5.261 1.699-8.108 1.699-9.338 0-17.932-6.514-17.932-15.497v-23.379zm-88.833 7.403c-1.809-14.135 5.461-27.321 17.788-32.147a7.49 7.49 0 10-5.461-13.949c-11.955 4.68-20.805 14.38-24.959 26.228-5.561-7.835-5.333-17.28-1.145-24.716 2.733-4.853 2.114-10.717-1.579-14.94-8.685-9.932-8.015-23.884 1.235-33.131 3.771-3.77 4.857-9.358 2.768-14.236-4.709-10.991.4-23.743 12.487-29.329a36.538 36.538 0 006.098 7.702 36.31 36.31 0 0012.482 7.874 29.964 29.964 0 00-2.747 12.549 7.49 7.49 0 0014.978 0c0-8.365 6.805-15.17 15.17-15.17a7.49 7.49 0 000-14.978 29.967 29.967 0 00-16.367 4.849 21.29 21.29 0 01-13.131-5.915c-13.813-13.295-4.53-35.016 15.613-35.016h.012c6.261 0 11.77-4.014 13.401-9.766 3.889-13.731 27.21-12.381 27.21 4.633v14.626c-7.567-2.684-15.569-1.818-22.23 2.074a7.49 7.49 0 007.558 12.932c4.94-2.887 11.164-1.641 14.672 2.665v117.118a24.47 24.47 0 00-9.625-1.962c-13.566 0-24.604 11.037-24.604 24.604a7.49 7.49 0 0014.978 0c0-5.307 4.318-9.625 9.625-9.625s9.625 4.318 9.625 9.625v23.377c0 8.971-8.581 15.497-17.932 15.497-2.846 0-5.574-.571-8.107-1.698-4.36-1.941-7.164-.998-10.961-.998-18.441-.002-34.2-12.345-36.852-28.777z"/><path d="M448.984 263.509c3.38 14.018 16.019 24.467 31.06 24.467 17.62 0 31.956-14.335 31.956-31.955s-14.335-31.955-31.956-31.955c-15.04 0-27.679 10.447-31.06 24.464h-18.957c-1.355-32.244-11.434-62.922-29.121-89.296h50.509c19.843 0 35.986-16.144 35.986-35.987V63.405C501.486 60.072 512 47.402 512 32.315 512 14.695 497.665.36 480.044.36s-31.955 14.335-31.955 31.955c0 14.994 10.382 27.602 24.334 31.03v59.903c0 11.584-9.424 21.008-21.008 21.008h-61.78a175.53 175.53 0 00-37.118-33.32 7.49 7.49 0 00-8.314 12.46 160.574 160.574 0 0124.359 19.995c62.104 62.105 62.104 163.155 0 225.26-44.345 44.344-110.873 58.554-169.487 36.203a7.49 7.49 0 00-5.338 13.996 173.84 173.84 0 0054.705 11.263v18.512c-14.018 3.38-24.466 16.019-24.466 31.06 0 17.62 14.335 31.955 31.955 31.955s31.955-14.335 31.955-31.955c0-15.041-10.448-27.68-24.466-31.06v-18.532c42.789-1.883 84.344-19.463 115.732-50.851a177.533 177.533 0 009.996-10.88h62.264c11.584 0 21.008 9.424 21.008 21.008v59.286c-13.951 3.428-24.334 16.036-24.334 31.03 0 17.62 14.335 31.955 31.955 31.955S512 497.306 512 479.685c0-15.088-10.514-27.758-24.598-31.09V389.37c0-19.843-16.143-35.986-35.986-35.986h-50.904c17.929-26.504 28.152-57.393 29.516-89.875zm31.06-24.464c9.361 0 16.977 7.615 16.977 16.976s-7.616 16.976-16.977 16.976-16.976-7.615-16.976-16.976 7.616-16.976 16.976-16.976zm-16.976-206.73c0-9.361 7.615-16.976 16.976-16.976s16.977 7.615 16.977 16.976-7.616 16.976-16.977 16.976c-9.36 0-16.976-7.615-16.976-16.976zM272.91 479.685c0 9.361-7.615 16.976-16.976 16.976s-16.976-7.615-16.976-16.976 7.615-16.976 16.976-16.976 16.976 7.615 16.976 16.976zm207.134-16.976c9.361 0 16.977 7.615 16.977 16.976s-7.616 16.976-16.977 16.976-16.976-7.615-16.976-16.976 7.616-16.976 16.976-16.976z"/></svg><svg viewBox="0 0 384 384" id="phone" xmlns="http://www.w3.org/2000/svg"><path d="M353.188 252.052c-23.51 0-46.594-3.677-68.469-10.906-10.719-3.656-23.896-.302-30.438 6.417l-43.177 32.594c-50.073-26.729-80.917-57.563-107.281-107.26l31.635-42.052c8.219-8.208 11.167-20.198 7.635-31.448-7.26-21.99-10.948-45.063-10.948-68.583C132.146 13.823 118.323 0 101.333 0h-70.52C13.823 0 0 13.823 0 30.813 0 225.563 158.438 384 353.188 384c16.99 0 30.813-13.823 30.813-30.813v-70.323c-.001-16.989-13.824-30.812-30.813-30.812z"/></svg><svg viewBox="0 0 11 14" id="play" xmlns="http://www.w3.org/2000/svg"><path d="M0 14l11-7L0 0v14z"/></svg><svg viewBox="0 0 32 32" id="pulmonology" xmlns="http://www.w3.org/2000/svg"><path d="M28.501 30.729c-.245 0-.493-.036-.736-.11l-3.763-1.161A8.455 8.455 0 0118 21.33V10.675a.5.5 0 011 0V21.33a7.458 7.458 0 005.297 7.172l3.761 1.161A1.506 1.506 0 0030 28.23v-8.27c0-4.913-2.165-9.533-5.94-12.676l-1.78-1.48a1.958 1.958 0 00-2.127-.277A1.958 1.958 0 0019 7.34V8.5a.5.5 0 11-1 0V7.34c0-1.178.663-2.22 1.729-2.719a2.97 2.97 0 013.191.415l1.78 1.479A17.447 17.447 0 0131 19.96v8.27c0 .796-.368 1.526-1.008 2.001-.441.328-.96.498-1.491.498z"/><path d="M24.5 21h-1.082a3.399 3.399 0 01-3.057-1.89c-.236-.47-.361-1-.361-1.528v-3.041a.5.5 0 011 0v3.041c0 .374.088.748.255 1.081A2.406 2.406 0 0023.418 20H24.5a.5.5 0 010 1z"/><path d="M22.451 22.729a.5.5 0 01-.468-.324l-.836-2.23a.501.501 0 01.936-.352l.836 2.23a.501.501 0 01-.468.676zm1.123-5.83a.5.5 0 01-.374-.832l1.393-1.572a.5.5 0 11.748.664l-1.393 1.572a.498.498 0 01-.374.168z"/><path d="M26 17h-4c-1.103 0-2-.897-2-2v-1.5c0-1.378-1.122-2.5-2.5-2.5-.827 0-1.5-.673-1.5-1.5v-8a.5.5 0 011 0v8a.5.5 0 00.5.5c1.93 0 3.5 1.57 3.5 3.5V15c0 .551.449 1 1 1h4a.5.5 0 010 1z"/><path d="M21.5 15c-.827 0-1.5-.673-1.5-1.5a.5.5 0 011 0 .5.5 0 001 0v-1a.5.5 0 011 0v1c0 .827-.673 1.5-1.5 1.5zM3.498 30.728a2.485 2.485 0 01-1.49-.497A2.471 2.471 0 011 28.23v-8.27A17.443 17.443 0 017.3 6.516l1.78-1.48a2.97 2.97 0 013.19-.415A2.974 2.974 0 0114 7.34V8.5a.5.5 0 11-1 0V7.34c0-.797-.431-1.475-1.153-1.813a1.958 1.958 0 00-2.126.276L7.94 7.284A16.449 16.449 0 002 19.96v8.27c0 .477.22.914.604 1.199.388.288.876.373 1.341.233l3.757-1.159A7.46 7.46 0 0013 21.33V10.675a.5.5 0 011 0V21.33a8.454 8.454 0 01-6.004 8.128l-3.759 1.16c-.244.074-.493.11-.739.11z"/><path d="M8.582 21H7.5a.5.5 0 010-1h1.082c.921 0 1.75-.512 2.162-1.337.168-.333.256-.707.256-1.081v-3.041a.5.5 0 011 0v3.041c0 .529-.125 1.058-.362 1.529A3.397 3.397 0 018.582 21z"/><path d="M9.549 22.729a.5.5 0 01-.468-.676l.836-2.23a.5.5 0 11.936.352l-.836 2.23a.5.5 0 01-.468.324zm-1.123-5.83a.5.5 0 01-.374-.168l-1.393-1.572a.5.5 0 01.748-.664L8.8 16.068a.5.5 0 01-.374.831z"/><path d="M10 17H6a.5.5 0 010-1h4c.551 0 1-.449 1-1v-1.5c0-1.93 1.57-3.5 3.5-3.5a.5.5 0 00.5-.5v-8a.5.5 0 011 0v8c0 .827-.673 1.5-1.5 1.5a2.503 2.503 0 00-2.5 2.5V15c0 1.103-.897 2-2 2z"/><path d="M10.5 15c-.827 0-1.5-.673-1.5-1.5v-1a.5.5 0 011 0v1a.5.5 0 001 0 .5.5 0 011 0c0 .827-.673 1.5-1.5 1.5zm17.1 10h-.1a.5.5 0 010-1c.276 0 .55.224.55.5s-.174.5-.45.5zm-3-1h-.1a.5.5 0 010-1c.276 0 .55.224.55.5s-.174.5-.45.5zm2-3h-.1a.5.5 0 010-1c.276 0 .55.224.55.5s-.174.5-.45.5zm1-3h-.1a.5.5 0 010-1c.276 0 .55.224.55.5s-.174.5-.45.5zm-1-4h-.1a.5.5 0 010-1c.276 0 .55.224.55.5s-.174.5-.45.5zM4.5 25c-.276 0-.55-.224-.55-.5s.174-.5.45-.5h.1a.5.5 0 010 1zm3-1c-.276 0-.55-.224-.55-.5s.174-.5.45-.5h.1a.5.5 0 010 1zm-2-3c-.276 0-.55-.224-.55-.5s.174-.5.45-.5h.1a.5.5 0 010 1zm-1-3c-.276 0-.55-.224-.55-.5s.174-.5.45-.5h.1a.5.5 0 010 1zm1-4c-.276 0-.55-.224-.55-.5s.174-.5.45-.5h.1a.5.5 0 010 1z"/></svg><svg viewBox="0 0 612.01 612.01" id="search" xmlns="http://www.w3.org/2000/svg"><path d="M606.209 578.714L448.198 423.228C489.576 378.272 515 318.817 515 253.393 514.98 113.439 399.704 0 257.493 0S.006 113.439.006 253.393s115.276 253.393 257.487 253.393c61.445 0 117.801-21.253 162.068-56.586l158.624 156.099c7.729 7.614 20.277 7.614 28.006 0a19.291 19.291 0 00.018-27.585zM257.493 467.8c-120.326 0-217.869-95.993-217.869-214.407S137.167 38.986 257.493 38.986c120.327 0 217.869 95.993 217.869 214.407S377.82 467.8 257.493 467.8z"/></svg><svg viewBox="0 0 512.192 512.192" id="skin-allergy" xmlns="http://www.w3.org/2000/svg"><path d="M174.594 68.271a23.872 23.872 0 0012.103-20.747V7.5a7.5 7.5 0 00-15 0v40.024a8.848 8.848 0 01-4.486 7.69L98.514 94.067c-29.617 16.75-52.49 42.109-66.146 73.337a7.498 7.498 0 003.867 9.876 7.5 7.5 0 009.876-3.867c12.345-28.229 33.019-51.151 59.786-66.29zM35.337 247.151a140.75 140.75 0 011.624-44.524 7.5 7.5 0 00-5.907-8.81 7.499 7.499 0 00-8.81 5.907 155.755 155.755 0 00-1.794 49.261l3.642 29.575v151.354a7.5 7.5 0 0015 0V278.1a7.6 7.6 0 00-.056-.917zm93.482 205.443c-4.124-.283-7.715 2.829-8.002 6.961l-3.104 44.615a7.499 7.499 0 007.489 8.021 7.5 7.5 0 007.474-6.98l3.104-44.615a7.5 7.5 0 00-6.961-8.002zm3.255-98.573c-4.839-20.363-7.299-62.294-7.299-62.294v-68.938a7.5 7.5 0 00-15 0v107.667c0 14.441-3.019 28.435-8.974 41.593a7.5 7.5 0 1013.666 6.184 116.66 116.66 0 004.902-12.794l.64 2.692a157.052 157.052 0 013.88 47.265l-.849 12.197a7.499 7.499 0 007.489 8.021 7.5 7.5 0 007.474-6.98l.849-12.197c1.21-17.391-.22-34.81-4.25-51.773zm205.504-285.75l40.033 22.642a7.5 7.5 0 0010.221-2.836 7.5 7.5 0 00-2.836-10.221l-40.034-22.642a8.846 8.846 0 01-4.485-7.69V7.5c0-4.142-3.357-7.5-7.5-7.5s-7.5 3.358-7.5 7.5v40.024a23.872 23.872 0 0012.101 20.747zm76.081 25.795l-.754-.426a7.5 7.5 0 00-7.383 13.057l.753.426c49.868 28.204 77.565 83.168 70.562 140.028l-3.698 30.031a7.39 7.39 0 00-.057.917v151.814c0 4.142 3.357 7.5 7.5 7.5s7.5-3.358 7.5-7.5V278.56l3.642-29.574c7.748-62.907-22.894-123.716-78.065-154.92zm-20.078 397.489c-.286-4.132-3.881-7.246-8.002-6.961a7.5 7.5 0 00-6.961 8.002l.878 12.616a7.499 7.499 0 008.002 6.961 7.5 7.5 0 006.961-8.002zm-6.182-199.828a269.82 269.82 0 01-7.3 62.295l-2.528 10.641a172.816 172.816 0 00-3.646 21.175 7.5 7.5 0 0014.912 1.624c.71-6.524 1.83-13.028 3.328-19.331l.639-2.691a116.792 116.792 0 004.903 12.794 7.501 7.501 0 009.926 3.741 7.5 7.5 0 003.74-9.925c-5.954-13.156-8.974-27.15-8.974-41.593V222.79c0-4.142-3.357-7.5-7.5-7.5s-7.5 3.358-7.5 7.5zM207.524 135.489a7.5 7.5 0 00-7.5 7.5v38.264c0 13.39-2.966 26.893-8.576 39.049l-5.955 12.901a7.5 7.5 0 0013.619 6.286l5.955-12.901c6.514-14.114 9.957-29.79 9.957-45.335v-38.264a7.5 7.5 0 00-7.5-7.5zm105.536 104a7.501 7.501 0 006.814 4.359 7.5 7.5 0 006.805-10.645l-5.954-12.901c-5.61-12.155-8.576-25.658-8.576-39.049v-38.264c0-4.142-3.357-7.5-7.5-7.5s-7.5 3.358-7.5 7.5v38.264c0 15.546 3.443 31.223 9.957 45.335zm-68.498-134.766c12.472 0 22.618-10.146 22.618-22.618s-10.146-22.618-22.618-22.618-22.618 10.146-22.618 22.618 10.146 22.618 22.618 22.618zm0-30.236c4.201 0 7.618 3.417 7.618 7.618s-3.417 7.618-7.618 7.618-7.618-3.417-7.618-7.618 3.417-7.618 7.618-7.618zm-69.991 120.437c0-11.969-9.737-21.707-21.707-21.707-11.969 0-21.706 9.737-21.706 21.707 0 11.969 9.737 21.706 21.706 21.706 11.97 0 21.707-9.737 21.707-21.706zm-21.706 6.706c-3.698 0-6.706-3.008-6.706-6.706s3.008-6.707 6.706-6.707 6.707 3.008 6.707 6.707a6.715 6.715 0 01-6.707 6.706zm199.898 79.126c0-10.911-8.876-19.787-19.786-19.787-10.911 0-19.787 8.876-19.787 19.787s8.876 19.787 19.787 19.787c10.91 0 19.786-8.876 19.786-19.787zm-19.786 4.787c-2.64 0-4.787-2.147-4.787-4.787s2.147-4.787 4.787-4.787c2.639 0 4.786 2.147 4.786 4.787s-2.147 4.787-4.786 4.787zm-93.599 46.043c13.348 0 24.208-10.86 24.208-24.208s-10.86-24.208-24.208-24.208-24.208 10.86-24.208 24.208 10.86 24.208 24.208 24.208zm0-33.416c5.077 0 9.208 4.131 9.208 9.208s-4.131 9.208-9.208 9.208-9.208-4.131-9.208-9.208 4.131-9.208 9.208-9.208zm-56.968 87.762c-12.018 0-21.795 9.777-21.795 21.794s9.777 21.795 21.795 21.795 21.795-9.777 21.795-21.795-9.777-21.794-21.795-21.794zm0 28.589c-3.747 0-6.795-3.048-6.795-6.795s3.048-6.794 6.795-6.794 6.795 3.048 6.795 6.794-3.048 6.795-6.795 6.795zm115.554-72.575c-12.018 0-21.795 9.777-21.795 21.795s9.777 21.795 21.795 21.795 21.795-9.777 21.795-21.795-9.777-21.795-21.795-21.795zm0 28.59c-3.747 0-6.795-3.048-6.795-6.795s3.048-6.795 6.795-6.795 6.795 3.048 6.795 6.795-3.048 6.795-6.795 6.795zm-11.638 76.398h-1.412a27.206 27.206 0 00-2.855-10.272l2.451-2.451a7.5 7.5 0 00-10.607-10.606l-2.007 2.007a27.316 27.316 0 00-6.835-3.003v-2.587a7.5 7.5 0 00-15 0v2.587a27.3 27.3 0 00-6.835 3.003l-2.007-2.007a7.5 7.5 0 00-10.606 0 7.5 7.5 0 000 10.606l2.451 2.451a27.243 27.243 0 00-2.855 10.272h-1.412a7.5 7.5 0 000 15h1.412a27.206 27.206 0 002.855 10.272l-2.451 2.451a7.5 7.5 0 005.303 12.803 7.474 7.474 0 005.303-2.197l2.007-2.007a27.316 27.316 0 006.835 3.003v2.587a7.5 7.5 0 0015 0v-2.587a27.28 27.28 0 006.835-3.003l2.007 2.007c1.465 1.464 3.385 2.197 5.304 2.197s3.839-.732 5.304-2.197a7.5 7.5 0 000-10.606l-2.451-2.451a27.243 27.243 0 002.855-10.272h1.412a7.5 7.5 0 10-.001-15zm-28.765 25.376c-6.858 0-12.438-5.58-12.438-12.438v-10.875c0-6.858 5.58-12.438 12.438-12.438s12.438 5.58 12.438 12.438v10.875c0 6.858-5.58 12.438-12.438 12.438zm160.807-40.39h-6.575a30.127 30.127 0 00-3.305-7.944l4.66-4.66a7.5 7.5 0 00-10.607-10.606l-4.659 4.659a30.113 30.113 0 00-7.944-3.305v-6.575c0-4.142-3.357-7.5-7.5-7.5s-7.5 3.358-7.5 7.5v6.575a30.127 30.127 0 00-7.944 3.305l-4.659-4.659a7.5 7.5 0 00-10.607 10.606l4.659 4.659a30.127 30.127 0 00-3.305 7.944h-6.574c-4.143 0-7.5 3.358-7.5 7.5s3.357 7.5 7.5 7.5h6.574a30.113 30.113 0 003.305 7.944l-4.659 4.659a7.5 7.5 0 005.304 12.803 7.478 7.478 0 005.304-2.197l4.659-4.659a30.113 30.113 0 007.944 3.305v6.575c0 4.142 3.357 7.5 7.5 7.5s7.5-3.358 7.5-7.5v-6.575a30.113 30.113 0 007.944-3.305l4.659 4.659c1.465 1.464 3.385 2.197 5.304 2.197s3.839-.732 5.304-2.197a7.5 7.5 0 000-10.606l-4.66-4.66a30.113 30.113 0 003.305-7.944h6.575a7.5 7.5 0 10-.002-14.998zm-35.931-7.797c8.435 0 15.297 6.862 15.297 15.297s-6.862 15.297-15.297 15.297-15.297-6.862-15.297-15.297 6.862-15.297 15.297-15.297z"/></svg><svg viewBox="0 0 32 32" id="star" xmlns="http://www.w3.org/2000/svg"><path d="M29.911 13.75l-6.229 6.072 1.471 8.576a1 1 0 01-1.451 1.054L16 25.403l-7.701 4.048a1 1 0 01-1.451-1.054l1.471-8.576-6.23-6.071a1 1 0 01.555-1.706l8.609-1.25 3.85-7.802c.337-.683 1.457-.683 1.794 0l3.85 7.802 8.609 1.25a1.002 1.002 0 01.555 1.706z"/></svg><svg viewBox="0 0 16.933 16.933" id="stethoscope" xmlns="http://www.w3.org/2000/svg"><path d="M2.91.53a.801.801 0 00-.749.529h-.31a.796.796 0 00-.792.792v2.647H.794c-.358-.005-.358.534 0 .529h.793v.793a3.438 3.438 0 003.44 3.44 3.438 3.438 0 003.44-3.44v-.793h.529v.793a3.952 3.952 0 01-2.48 3.68c-.337.127-.134.63.197.49a4.487 4.487 0 002.812-4.17V4.762a.265.265 0 00-.265-.264h-.264V1.85a.798.798 0 00-.794-.792h-.309a.803.803 0 00-.75-.53c-.436 0-.793.358-.793.793s.357.795.793.795a.805.805 0 00.75-.53h.309c.15 0 .265.113.265.264v2.647h-.265a.265.265 0 00-.264.264V5.82a2.898 2.898 0 01-2.91 2.91 2.898 2.898 0 01-2.911-2.91V4.762a.265.265 0 00-.265-.264h-.264V1.85c0-.15.112-.263.264-.263h.31c.11.306.406.53.748.53a.794.794 0 000-1.587zm0 .529c.15 0 .264.114.264.263s-.114.266-.264.266-.263-.117-.263-.266.114-.263.263-.263zm4.233 0c.149 0 .265.114.265.263s-.116.266-.265.266c-.15 0-.264-.117-.264-.266s.114-.263.264-.263zM.79 5.552a.264.264 0 00-.26.268 4.478 4.478 0 003.703 4.41v.882c0 .146.119.265.265.265h.264v2.117a2.912 2.912 0 005.822 0V8.996c0-1.03.821-1.854 1.852-1.854 1.03 0 1.852.823 1.852 1.854v1.61c-.895.129-1.589.9-1.589 1.83 0 1.02.834 1.851 1.854 1.851s1.852-.832 1.852-1.851c0-.93-.693-1.702-1.588-1.831V8.996a2.381 2.381 0 00-4.762 0v4.498c0 1.324-1.06 2.381-2.383 2.381s-2.38-1.057-2.38-2.381v-2.117h.264a.265.265 0 00.265-.265v-1.094c.005-.358-.534-.358-.53 0v.83h-.529v-.83a.265.265 0 00-.232-.263A3.952 3.952 0 011.058 5.82a.265.265 0 00-.268-.268zm13.763 5.56c.734 0 1.323.59 1.323 1.324 0 .733-.59 1.321-1.323 1.321a1.32 1.32 0 01-1.324-1.321c0-.734.59-1.325 1.324-1.325zm0 .528c-.435 0-.795.36-.795.796s.36.792.795.792c.435 0 .793-.357.793-.792s-.358-.796-.793-.796zm0 .53a.26.26 0 01.264.266.26.26 0 01-.264.263.26.26 0 01-.266-.263c0-.15.117-.266.266-.266z"/></svg><svg viewBox="0 0 512 512" id="surgery" xmlns="http://www.w3.org/2000/svg"><path d="M489.6 371.2A72.36 72.36 0 01432 400h-32a8 8 0 00-5.946 2.648l-28.293 31.437 11.892 10.7L403.563 416H432a88.433 88.433 0 0070.4-35.2z"/><path d="M331.951 471.649A25.181 25.181 0 01313.7 480c-14.13.267-25.695-11.674-25.695-25.807v-.428a25.217 25.217 0 017.387-17.833l.21-.21 70.06-70.06-11.314-11.314-70.065 70.065a25.969 25.969 0 01-23.372 7.114 25 25 0 01-9.751-4.127 25.964 25.964 0 01-3.571-39.665l70.073-70.073-11.314-11.314-70.448 70.437A24.632 24.632 0 01218.483 384a26.646 26.646 0 01-18.213-6.948 25.881 25.881 0 01-4.009-33.192l58.33-56.792A47.992 47.992 0 00264 288h92.408l13.779 15.5A168.464 168.464 0 00496 360v-16a152.454 152.454 0 01-113.855-51.129l-16.166-18.186A8 8 0 00360 272h-95.363c-17.9 0-32.937-14.651-32.632-32.552A32.037 32.037 0 01264 208h152v-16h-63.777l57.514-56H496v-16h-69.831l33.2-32.325c16.01-15.589 16.569-42.846.958-58.984a42.449 42.449 0 00-44.913-9.751c-16.87 6.629-27.3 23.146-40.794 35.3l10.126 12.26c7.7-5.669 13.38-13.592 19.964-20.527s14.819-13.227 24.371-13.913a25.326 25.326 0 0121.6 10.012 26.126 26.126 0 01-2.475 34.133L329.289 192H264a48.261 48.261 0 00-4.939.253L372.746 78.568l-11.314-11.314L308.686 120H249.14a87.428 87.428 0 00-62.227 25.772l-15.974 15.975 11.313 11.315 15.97-15.971A72.01 72.01 0 01249.14 136h43.546l-58.343 58.343-87.578 87.578a26.716 26.716 0 01-19.007 8.018 25.867 25.867 0 01-20.43-10.252 25.439 25.439 0 01-5.038-12.187 25.873 25.873 0 017.367-21.844L168 187.311 156.69 176l-58.347 58.343a41.933 41.933 0 0024.7 71.3l-104.7 104.7A8 8 0 0016 416v72a8 8 0 007.977 8 142.265 142.265 0 00101.28-41.942l40.4-40.4A8 8 0 00168 408v-36.624l8.33-8.111A41.926 41.926 0 00217.94 400h6.511a41.924 41.924 0 0041.489 48 41.791 41.791 0 006.536-.519 41.782 41.782 0 00-.476 6.279v.24c0 22.612 17.884 41.609 40.493 41.992a41.179 41.179 0 0031.343-13.633l24.27-26.965-11.893-10.7zm-177.532-109.38A8 8 0 00152 368v36.687l-38.057 38.056A126.267 126.267 0 0132 479.754v-60.441l184.253-184.252a47.977 47.977 0 0022.1 45.483z"/><path d="M370.343 101.657l11.314-11.314 16 16-11.314 11.313zm-24 24l11.314-11.314 16 16-11.314 11.314zm48-48l11.314-11.314 16 16-11.314 11.313zm-72 72l11.314-11.314 16 16-11.314 11.314zm-24 24l11.314-11.314 16 16-11.314 11.314zm-104 103.999l11.314-11.313 16 16-11.314 11.313zm-24 24l11.314-11.313 16 16-11.314 11.313zM85.771 417.32a117.127 117.127 0 01-40.3 23.09l5.06 15.18a133.062 133.062 0 0045.777-26.229l44.961-39.34-10.536-12.042z"/></svg><svg viewBox="0 0 512 512" id="ultrasound" xmlns="http://www.w3.org/2000/svg"><path d="M489.5 134c-9.777 0-18.114 6.271-21.21 15H420.5c-.838 0-1.668.037-2.5.063V81.5c0-20.678-16.822-37.5-37.5-37.5h-343C16.822 44 0 60.822 0 81.5v241C0 343.178 16.822 360 37.5 360H179v12.5c0 9.649 7.851 17.5 17.5 17.5h4.5v45.5c0 17.92 14.579 32.5 32.5 32.5H363c17.921 0 32.5-14.58 32.5-32.5v-.5h5c9.649 0 17.5-7.851 17.5-17.5v-13.79c8.729-3.096 15-11.432 15-21.21v-60.167c0-4.142-3.357-7.5-7.5-7.5s-7.5 3.358-7.5 7.5V382.5c0 4.136-3.364 7.5-7.5 7.5h-45c-4.136 0-7.5-3.364-7.5-7.5v-156c0-34.462 28.037-62.5 62.5-62.5H467v94h-31.5c-9.649 0-17.5 7.851-17.5 17.5v11.833c0 4.142 3.357 7.5 7.5 7.5s7.5-3.358 7.5-7.5V275.5c0-1.378 1.121-2.5 2.5-2.5h32.79c3.096 8.729 11.433 15 21.21 15 12.406 0 22.5-10.093 22.5-22.5v-109c0-12.407-10.094-22.5-22.5-22.5zM15 322.5v-241C15 69.093 25.094 59 37.5 59h343c12.406 0 22.5 10.093 22.5 22.5v69.517a76.809 76.809 0 00-15 5.153V86.5c0-6.893-5.607-12.5-12.5-12.5h-288c-4.143 0-7.5 3.358-7.5 7.5s3.357 7.5 7.5 7.5H373v15H45V89h7.5c4.143 0 7.5-3.358 7.5-7.5S56.643 74 52.5 74h-10C35.607 74 30 79.607 30 86.5v231c0 6.893 5.607 12.5 12.5 12.5H343v15H37.5C25.094 345 15 334.907 15 322.5zm179 50V360h30v12.5c0 1.378-1.121 2.5-2.5 2.5h-25a2.503 2.503 0 01-2.5-2.5zm186.5 63c0 9.649-7.851 17.5-17.5 17.5H233.5c-9.649 0-17.5-7.851-17.5-17.5V390h5.5c9.649 0 17.5-7.851 17.5-17.5V360h104v22.5c0 9.777 6.271 18.114 15 21.21v13.79c0 9.649 7.851 17.5 17.5 17.5h5zm20-15.5h-25a2.503 2.503 0 01-2.5-2.5V405h30v12.5c0 1.378-1.121 2.5-2.5 2.5zM343 226.5V315H45V119h328v46c0 .107.011.21.016.316C354.771 179.508 343 201.648 343 226.5zm154 39c0 4.136-3.364 7.5-7.5 7.5s-7.5-3.364-7.5-7.5v-109c0-4.136 3.364-7.5 7.5-7.5s7.5 3.364 7.5 7.5z"/><path d="M308.059 258.289a12.417 12.417 0 00-.988-4.515l-44.15-103.477a12.384 12.384 0 00-6.88-6.705 12.478 12.478 0 00-9.675.183c-25.144 11.03-49.588 11.029-74.731 0a12.48 12.48 0 00-9.676-.184 12.388 12.388 0 00-6.88 6.704l-44.15 103.479c-2.58 6.047.017 13.123 5.89 16.085 30.584 15.387 61.383 23.081 92.182 23.081s61.598-7.693 92.182-23.081l.006-.003c4.277-2.156 6.796-6.477 6.869-10.997.001-.145.003-.525.001-.57zm-15.712-.791c-55.316 27.136-111.378 27.136-166.693 0l4.818-11.286c52.146 22.312 104.91 22.312 157.057 0zm-124.454-99.011c27.291 11.33 54.924 11.331 82.215 0l31.534 73.91c-48.238 20.623-97.045 20.623-145.284 0zM92.5 209h-25c-4.143 0-7.5 3.358-7.5 7.5s3.357 7.5 7.5 7.5h25c4.143 0 7.5-3.358 7.5-7.5s-3.357-7.5-7.5-7.5zm-25-15h45c4.143 0 7.5-3.358 7.5-7.5s-3.357-7.5-7.5-7.5h-45c-4.143 0-7.5 3.358-7.5 7.5s3.357 7.5 7.5 7.5zm0-30h45c4.143 0 7.5-3.358 7.5-7.5s-3.357-7.5-7.5-7.5h-45c-4.143 0-7.5 3.358-7.5 7.5s3.357 7.5 7.5 7.5z"/></svg><svg viewBox="0 0 512 512" id="urology" xmlns="http://www.w3.org/2000/svg"><path d="M483.186 36.669c-18.199-21.955-42.24-34.547-65.958-34.547h-8.4c-27.71 0-50.567 22.191-50.952 49.469-.176 12.498 4.196 24.378 12.358 33.713a49.987 49.987 0 00-8.647 14.017c-29.915 9.767-54.593 33.354-66.473 63.792a7.498 7.498 0 004.26 9.713c.896.35 1.817.516 2.725.516 3 0 5.832-1.813 6.988-4.775 9.122-23.371 26.922-42.04 48.818-51.779-.182 6.188.728 12.007 2.582 17.523-27.114 14.34-44.105 45.548-40.204 75.664 1.985 15.326 8.588 29.617 15.579 44.748 5.663 12.258 11.519 24.932 14.924 38.504 5.402 21.524 3.801 45.267-4.257 67.108-3.491-4.496-8.069-8.565-13.625-12.148 11.018-36.129-1.041-62.096-12.739-87.243-7.021-15.093-14.28-30.699-16.627-48.791a84.39 84.39 0 01-.689-11.928 7.5 7.5 0 00-7.396-7.603l-.105-.001a7.5 7.5 0 00-7.497 7.396 99.48 99.48 0 00.812 14.059c2.645 20.395 10.401 37.068 17.902 53.193 11.09 23.839 20.773 44.695 12.755 73.921-16.561-6.839-38.205-10.662-63.319-10.662-25.115 0-46.76 3.824-63.322 10.664-2.661-9.721-3.509-19.058-2.576-28.341a7.501 7.501 0 00-6.712-8.213c-4.116-.406-7.798 2.592-8.212 6.713-1.22 12.14.063 24.249 3.91 36.841-5.552 3.582-10.127 7.65-13.616 12.144-8.057-21.842-9.658-45.584-4.257-67.109 3.405-13.571 9.261-26.246 14.924-38.503 6.991-15.131 13.594-29.423 15.58-44.749 3.902-30.115-13.09-61.324-40.204-75.664 1.882-5.598 2.763-11.425 2.582-17.534 36.171 16.065 59.501 55.722 54.366 95.369-2.352 18.107-9.614 33.719-16.637 48.816-2.159 4.641-4.391 9.439-6.44 14.227a7.5 7.5 0 0013.789 5.905c1.959-4.575 4.044-9.058 6.252-13.805 7.503-16.129 15.261-32.807 17.912-53.214 6.425-49.614-25.403-99.231-72.925-114.754a50.002 50.002 0 00-8.646-14.015c8.162-9.337 12.535-21.217 12.358-33.712-.384-27.277-23.241-49.47-50.951-49.47h-8.4c-23.718 0-47.759 12.592-65.958 34.547C10.233 59.086 0 88.074 0 118.294s10.233 59.206 28.815 81.621c18.199 21.952 42.239 34.542 65.958 34.542h8.4c27.71 0 50.567-22.192 50.951-49.47.177-12.495-4.195-24.374-12.358-33.713a50.512 50.512 0 002.891-3.636c21.696 11.496 35.294 36.401 32.184 60.406-1.69 13.048-7.825 26.327-14.32 40.385-5.953 12.886-12.109 26.209-15.856 41.145-7.344 29.264-3.325 62.039 10.997 90.305-1.091 13.744 5.681 30.188 18.88 45.595 13.882 16.205 33.093 28.961 52.706 34.996 1.144.352 1.942 1.462 1.942 2.7v21.406c0 13.547 10.375 24.647 23.621 25.271 14.401.695 25.999-10.871 25.999-24.781V463.17c0-1.238.799-2.349 1.943-2.701 19.612-6.034 38.823-18.789 52.705-34.995 13.199-15.407 19.97-31.851 18.88-45.595 14.322-28.267 18.34-61.042 10.996-90.306-7.908-31.522-26.972-56.793-30.177-81.529-3.109-24.005 10.49-48.91 32.185-60.406a50.75 50.75 0 002.891 3.637c-8.162 9.337-12.534 21.216-12.358 33.712.385 27.278 23.241 49.47 50.951 49.47h8.401c23.719 0 47.759-12.59 65.957-34.542C501.767 177.5 512 148.514 512 118.294s-10.233-59.208-28.814-81.625zm-353.86 123.226c6.452 6.717 9.932 15.554 9.801 24.882-.27 19.123-16.398 34.681-35.953 34.681h-8.4c-19.239 0-39.07-10.612-54.41-29.115C24.007 170.613 15 145.026 15 118.294s9.007-52.32 25.363-72.052c15.34-18.507 35.171-29.12 54.41-29.12h8.4c19.555 0 35.684 15.558 35.953 34.681.131 9.328-3.349 18.164-9.8 24.881a12.413 12.413 0 00.005 17.245c13.069 13.611 13.07 35.107 0 48.722a12.416 12.416 0 00-.005 17.244zm194.74 255.821c-12.086 14.108-28.752 25.195-45.725 30.417-7.496 2.307-12.532 9.153-12.532 17.038v21.896c0 5.566-4.611 10.048-10.293 9.799-5.143-.243-9.326-4.857-9.326-10.288v-21.406c0-7.885-5.036-14.731-12.532-17.037-16.973-5.223-33.639-16.31-45.725-30.418-10.853-12.668-16.658-26.504-15.151-36.108 3.147-20.066 37.368-34.081 83.218-34.081s80.071 14.015 83.219 34.081c1.506 9.603-4.3 23.439-15.153 36.107zm147.571-225.374c-15.339 18.503-35.171 29.115-54.409 29.115h-8.401c-19.555 0-35.683-15.558-35.953-34.681-.131-9.329 3.35-18.165 9.803-24.883a12.417 12.417 0 00-.008-17.244c-13.092-13.633-13.045-35.135.001-48.721a12.419 12.419 0 00.005-17.246c-6.451-6.715-9.932-15.551-9.801-24.881.271-19.122 16.398-34.68 35.954-34.68h8.4c19.238 0 39.069 10.613 54.409 29.12C487.992 65.974 497 91.562 497 118.294s-9.008 52.319-25.363 72.048z"/></svg><svg viewBox="0 0 512 512" id="user" xmlns="http://www.w3.org/2000/svg"><path d="M437.02 330.98c-27.883-27.882-61.071-48.523-97.281-61.018C378.521 243.251 404 198.548 404 148 404 66.393 337.607 0 256 0S108 66.393 108 148c0 50.548 25.479 95.251 64.262 121.962-36.21 12.495-69.398 33.136-97.281 61.018C26.629 379.333 0 443.62 0 512h40c0-119.103 96.897-216 216-216s216 96.897 216 216h40c0-68.38-26.629-132.667-74.98-181.02zM256 256c-59.551 0-108-48.448-108-108S196.449 40 256 40s108 48.448 108 108-48.449 108-108 108z"/></svg><svg viewBox="0 0 512.001 512.001" id="vaccines" xmlns="http://www.w3.org/2000/svg"><path d="M179.611 412.517h51.704c9.386 0 9.813-15 0-15h-51.704c-9.386 0-9.813 15 0 15zm-78.81 0c9.386 0 9.813-15 0-15H49.096c-9.386 0-9.813 15 0 15z"/><path d="M504.091 421.857c-8.245-9.488-23.286-10.516-32.757-2.213l-23.701 20.779-61.419-70.684 14.263-12.505c7.057-6.188-2.508-17.746-9.889-11.279L310.58 416.1c-7.846 6.882-18.596-5.575-10.74-12.463L420.1 298.203c7.849-6.878 18.597 5.576 10.74 12.463l-12.022 10.54c-7.057 6.187 2.507 17.746 9.889 11.279l12.022-10.54c22.238-19.498-7.709-55.015-30.518-35.022l-13.264 11.629-32.679-37.608-10.223-11.766-.003-.004L220.079 95.007c-8.077-9.295-22.813-10.303-32.091-2.168l-5.406 4.739-17.558-20.208c-8.077-9.296-22.812-10.301-32.091-2.168l-1.506 1.32L67.1 2.493c-6.158-7.084-17.758 2.432-11.322 9.839l64.37 74.079-1.555 1.363c-9.427 8.265-10.411 22.682-2.193 32.139l17.602 20.257-5.455 4.782c-9.427 8.265-10.411 22.682-2.193 32.14l37.127 42.728a7.491 7.491 0 00-3.33 6.233v27.546a7.5 7.5 0 007.5 7.5h8.568v17.293l-34.48 40.624c-1.023 2.597-2.046 2.597-3.068 0l-34.48-40.624v-17.293h8.568a7.5 7.5 0 007.5-7.5v-27.546a7.5 7.5 0 00-7.5-7.5H37.137a7.5 7.5 0 00-7.5 7.5v27.546a7.5 7.5 0 007.5 7.5h8.568v17.293l-34.48 40.624a37.921 37.921 0 00-9.005 24.512v41.789c0 9.386 15 9.813 15 0v-16.829h115.456v69.643H17.22v-12.743c0-9.386-15-9.813-15 0v60.199c0 14.517 11.83 26.327 26.372 26.327h92.713c7.407 0 14.106-3.069 18.9-7.994 4.795 4.925 11.494 7.994 18.9 7.994h92.714c14.541 0 26.371-11.81 26.371-26.327V351.831l25.073 28.855-13.312 11.671c-22.492 19.722 7.978 54.781 30.518 35.021l54.465-47.751 61.419 70.684-23.749 20.821c-22.494 19.721 7.978 54.781 30.518 35.022l58.729-51.489c9.625-8.436 10.629-23.154 2.24-32.808zm-148.346-87.182L335.259 311.1l29.924-26.234 20.485 23.575zm-79.206-7.614l71.125-62.356 7.681 8.838-71.126 62.357zM127.722 110.074c-2.816-3.241-2.476-8.185.76-11.021l14.34-12.572c3.183-2.79 8.053-2.525 10.88.728l17.603 20.258-26.023 22.815zm10.714 46.158l59.441-52.113c3.831-2.779 7.458-2.537 10.88.728l14.1 16.227-9.377 8.221c-7.133 6.255 2.769 17.52 9.889 11.279l9.326-8.177 17.865 20.56-21.86 19.165c-7.133 6.255 2.77 17.521 9.889 11.279l21.812-19.123 17.865 20.559-9.377 8.221c-7.133 6.255 2.769 17.52 9.889 11.279l9.327-8.177 17.865 20.56-21.862 19.167c-7.133 6.255 2.77 17.521 9.889 11.279l21.812-19.123 22.018 25.339-71.127 62.356-31.995-37.347v-17.293h8.568a7.5 7.5 0 007.5-7.5v-27.546a7.5 7.5 0 00-7.5-7.5h-61.022l-44.576-51.299c-2.815-3.241-2.474-8.185.761-11.021zm36.716 77.321h60.622v12.546h-60.622zm44.553 27.546v12.546H191.22v-12.546zm43.486 177.031H147.735v-69.643h115.456zM44.637 233.553h60.622v12.546H44.637zm44.554 27.546v12.546H60.705v-12.546zM17.22 353.487c-.434-8.555-.416-17.864 5.44-24.766l34.017-40.077h36.542l34.017 40.077c5.856 6.901 5.875 16.21 5.44 24.766zm104.085 143.425H28.592c-6.271 0-11.372-5.081-11.372-11.327V453.13h115.456v32.456c0 6.245-5.101 11.326-11.371 11.326zm130.515 0h-92.714c-6.271 0-11.371-5.081-11.371-11.327V453.13h115.456v32.456c0 6.245-5.101 11.326-11.371 11.326zm5.93-168.19c5.856 6.901 5.875 16.21 5.44 24.766H147.735c-.434-8.555-.416-17.864 5.44-24.766l34.017-40.077h36.094zm36.307 18.5l29.923-26.234 20.486 23.575-29.923 26.234zm197.906 96.165l-58.729 51.489c-7.846 6.881-18.597-5.576-10.74-12.463l58.729-51.489c7.889-6.915 18.701 5.484 10.74 12.463z"/></svg><svg viewBox="0 0 548.358 548.358" id="vk" xmlns="http://www.w3.org/2000/svg"><path d="M545.451 400.298c-.664-1.431-1.283-2.618-1.858-3.569-9.514-17.135-27.695-38.167-54.532-63.102l-.567-.571-.284-.28-.287-.287h-.288c-12.18-11.611-19.893-19.418-23.123-23.415-5.91-7.614-7.234-15.321-4.004-23.13 2.282-5.9 10.854-18.36 25.696-37.397 7.807-10.089 13.99-18.175 18.556-24.267 32.931-43.78 47.208-71.756 42.828-83.939l-1.701-2.847c-1.143-1.714-4.093-3.282-8.846-4.712-4.764-1.427-10.853-1.663-18.278-.712l-82.224.568c-1.332-.472-3.234-.428-5.712.144l-3.713.859-1.431.715-1.136.859c-.952.568-1.999 1.567-3.142 2.995-1.137 1.423-2.088 3.093-2.848 4.996-8.952 23.031-19.13 44.444-30.553 64.238-7.043 11.803-13.511 22.032-19.418 30.693-5.899 8.658-10.848 15.037-14.842 19.126-4 4.093-7.61 7.372-10.852 9.849-3.237 2.478-5.708 3.525-7.419 3.142-1.715-.383-3.33-.763-4.859-1.143-2.663-1.714-4.805-4.045-6.42-6.995-1.622-2.95-2.714-6.663-3.285-11.136-.568-4.476-.904-8.326-1-11.563-.089-3.233-.048-7.806.145-13.706.198-5.903.287-9.897.287-11.991 0-7.234.141-15.085.424-23.555.288-8.47.521-15.181.716-20.125.194-4.949.284-10.185.284-15.705s-.336-9.849-1-12.991a44.442 44.442 0 00-2.99-9.137c-1.335-2.95-3.289-5.232-5.853-6.852-2.569-1.618-5.763-2.902-9.564-3.856-10.089-2.283-22.936-3.518-38.547-3.71-35.401-.38-58.148 1.906-68.236 6.855-3.997 2.091-7.614 4.948-10.848 8.562-3.427 4.189-3.905 6.475-1.431 6.851 11.422 1.711 19.508 5.804 24.267 12.275l1.715 3.429c1.334 2.474 2.666 6.854 3.999 13.134 1.331 6.28 2.19 13.227 2.568 20.837.95 13.897.95 25.793 0 35.689-.953 9.9-1.853 17.607-2.712 23.127-.859 5.52-2.143 9.993-3.855 13.418-1.715 3.426-2.856 5.52-3.428 6.28-.571.76-1.047 1.239-1.425 1.427a21.387 21.387 0 01-7.71 1.431c-2.667 0-5.901-1.334-9.707-4-3.805-2.666-7.754-6.328-11.847-10.992-4.093-4.665-8.709-11.184-13.85-19.558-5.137-8.374-10.467-18.271-15.987-29.691l-4.567-8.282c-2.855-5.328-6.755-13.086-11.704-23.267-4.952-10.185-9.329-20.037-13.134-29.554-1.521-3.997-3.806-7.04-6.851-9.134l-1.429-.859c-.95-.76-2.475-1.567-4.567-2.427a30.301 30.301 0 00-6.567-1.854l-78.229.568c-7.994 0-13.418 1.811-16.274 5.428l-1.143 1.711c-.571.953-.859 2.475-.859 4.57 0 2.094.571 4.664 1.714 7.707 11.42 26.84 23.839 52.725 37.257 77.659 13.418 24.934 25.078 45.019 34.973 60.237 9.897 15.229 19.985 29.602 30.264 43.112 10.279 13.515 17.083 22.176 20.412 25.981 3.333 3.812 5.951 6.662 7.854 8.565l7.139 6.851c4.568 4.569 11.276 10.041 20.127 16.416 8.853 6.379 18.654 12.659 29.408 18.85 10.756 6.181 23.269 11.225 37.546 15.126 14.275 3.905 28.169 5.472 41.684 4.716h32.834c6.659-.575 11.704-2.669 15.133-6.283l1.136-1.431c.764-1.136 1.479-2.901 2.139-5.276.668-2.379 1-5 1-7.851-.195-8.183.428-15.558 1.852-22.124 1.423-6.564 3.045-11.513 4.859-14.846 1.813-3.33 3.859-6.14 6.136-8.418 2.282-2.283 3.908-3.666 4.862-4.142.948-.479 1.705-.804 2.276-.999 4.568-1.522 9.944-.048 16.136 4.429 6.187 4.473 11.99 9.996 17.418 16.56 5.425 6.57 11.943 13.941 19.555 22.124 7.617 8.186 14.277 14.271 19.985 18.274l5.708 3.426c3.812 2.286 8.761 4.38 14.853 6.283 6.081 1.902 11.409 2.378 15.984 1.427l73.087-1.14c7.229 0 12.854-1.197 16.844-3.572 3.998-2.379 6.373-5 7.139-7.851.764-2.854.805-6.092.145-9.712-.677-3.611-1.344-6.136-2.008-7.563z"/></svg><svg viewBox="0 0 4 28" id="warn" xmlns="http://www.w3.org/2000/svg"><path fill-rule="evenodd" clip-rule="evenodd" d="M2 0a2 2 0 012 2v18a2 2 0 01-4 0V2a2 2 0 012-2zm0 28a2 2 0 100-4 2 2 0 000 4z"/></svg><svg viewBox="0 0 511.866 511.866" id="x-rays" xmlns="http://www.w3.org/2000/svg"><path d="M206.775 376.206a7.499 7.499 0 005.229-9.228c-4.104-14.841-17.226-17.149-23.6-16.308a7.5 7.5 0 101.983 14.869c.909-.128 5.537-.432 7.16 5.437a7.504 7.504 0 007.225 5.503 7.423 7.423 0 002.003-.273zm98.317 0a7.499 7.499 0 01-5.229-9.228c4.104-14.841 17.226-17.149 23.6-16.308a7.5 7.5 0 11-1.983 14.869c-.909-.128-5.537-.432-7.16 5.437a7.504 7.504 0 01-7.225 5.503 7.423 7.423 0 01-2.003-.273zm63.558 44.636c-6.994 0-12.684 5.689-12.684 12.684v14.376c0 6.994 5.689 12.685 12.684 12.685h25.171c6.994 0 12.684-5.69 12.684-12.685v-14.376c0-6.994-5.689-12.684-12.684-12.684zm22.854 24.744h-20.538v-9.744h20.538zm-274.949-14.095h23.833c4.143 0 7.5-3.357 7.5-7.5s-3.357-7.5-7.5-7.5h-23.833c-4.143 0-7.5 3.357-7.5 7.5s3.357 7.5 7.5 7.5zm0 25.002h16.833c4.143 0 7.5-3.357 7.5-7.5s-3.357-7.5-7.5-7.5h-16.833c-4.143 0-7.5 3.357-7.5 7.5s3.357 7.5 7.5 7.5z"/><path d="M89.581 297.94a7.499 7.499 0 00-7.5 7.5v168.926c0 4.143 3.357 7.5 7.5 7.5h332.704c4.143 0 7.5-3.357 7.5-7.5V141.343c0-4.143-3.357-7.5-7.5-7.5H89.581a7.499 7.499 0 00-7.5 7.5v134.109c0 4.143 3.357 7.5 7.5 7.5s7.5-3.357 7.5-7.5V148.843h317.704v318.022h-88.631c-.098-.619-.189-1.23-.274-1.832-2.494-17.6 6.059-35.044 21.803-44.449l.461-.277c14.678-8.918 24.293-24.574 25.723-41.881a7.5 7.5 0 00-6.857-8.092c-4.113-.351-7.751 2.729-8.092 6.857-1.035 12.537-7.975 23.863-18.56 30.294l-.38.229c-20.849 12.456-32.205 35.65-28.987 59.151h-27.168l-2.967-117.754 17.762-11.229c4.738-2.996 9.794-4.902 15.02-5.665l.5-.071c15.92-2.212 31.409 5.523 39.465 19.702a7.497 7.497 0 0010.226 2.817 7.501 7.501 0 002.816-10.227c-11.108-19.554-32.532-30.207-54.577-27.148l-.591.084c-7.325 1.069-14.349 3.703-20.875 7.829l-10.187 6.44-1.503-59.635c14.525 2.139 28.026 8.903 38.533 19.411l12.003 12.002c1.464 1.464 3.384 2.196 5.303 2.196s3.839-.732 5.304-2.197a7.498 7.498 0 00-.001-10.606l-12.002-12.001c-13.415-13.415-30.844-21.823-49.522-23.981l-.595-23.607c8.005-.423 15.891-.424 23.513.001 16.85.938 32.729 8.053 44.711 20.036l12.003 12.003c1.465 1.464 3.385 2.196 5.304 2.196s3.839-.732 5.304-2.196a7.5 7.5 0 000-10.607l-12.003-12.003c-14.597-14.596-33.946-23.263-54.486-24.405-8.028-.447-16.319-.454-24.723-.024l-.614-24.364c18.167-3.03 35.669-4.101 52.1-3.191 16.85.938 32.729 8.053 44.711 20.036l12.003 12.003c1.465 1.464 3.385 2.196 5.304 2.196s3.839-.732 5.304-2.196a7.5 7.5 0 000-10.607L384.363 200.1c-14.597-14.596-33.946-23.263-54.486-24.405-16.902-.938-34.805.081-53.324 3.032-.613-10.973-9.547-19.475-20.618-19.475s-20.005 8.501-20.618 19.475c-18.52-2.951-36.423-3.971-53.323-3.032-20.54 1.143-39.89 9.81-54.486 24.405l-12.003 12.003a7.5 7.5 0 1010.608 10.607l12.003-12.003c11.982-11.983 27.861-19.099 44.711-20.036 16.427-.911 33.932.16 52.099 3.19l-.614 24.364c-8.405-.43-16.695-.424-24.723.024-20.539 1.142-39.89 9.81-54.487 24.406L143.1 254.658a7.498 7.498 0 005.304 12.802 7.478 7.478 0 005.304-2.197l12.001-12.002c11.984-11.983 27.864-19.099 44.713-20.036 7.621-.424 15.506-.423 23.512 0l-.595 23.607c-18.678 2.159-36.107 10.566-49.52 23.98l-12.003 12.002a7.498 7.498 0 00-.001 10.606 7.476 7.476 0 005.304 2.197 7.477 7.477 0 005.303-2.196l12.004-12.003c10.506-10.507 24.007-17.271 38.531-19.41l-1.503 59.635-10.187-6.44c-6.527-4.126-13.551-6.76-20.954-7.84l-.518-.074c-14.283-1.984-28.521 1.77-40.084 10.57-11.716 8.918-19.23 21.856-21.16 36.436a108.569 108.569 0 00-.542 4.992c-1.733 20.449 8.36 40.475 25.7 51.009l.489.295c15.731 9.397 24.284 26.843 21.791 44.443-.085.602-.177 1.213-.274 1.831H97.081V305.44c0-4.143-3.357-7.5-7.5-7.5zm177.27 90.909c-7.312 2.529-14.522 2.529-21.837 0l.558-22.128a42.891 42.891 0 0010.361 1.285c3.455 0 6.911-.429 10.36-1.285zm-22.227 15.522c3.765.932 7.537 1.398 11.309 1.398s7.545-.466 11.31-1.398l.559 22.164c-7.952 2.655-15.786 2.656-23.736 0zm2.846-112.978a36.159 36.159 0 008.462 1.013c2.826 0 5.652-.338 8.463-1.012l.557 22.118c-6.079 2.293-11.957 2.293-18.04 0zm15.585-53.205c-4.795 1.947-9.447 1.947-14.243 0l.555-22.047c2.184.505 4.375.758 6.567.758 2.191 0 4.382-.253 6.565-.757zm-7.121 16.461c2.508 0 5.016-.295 7.513-.884l.556 22.081c-5.437 2.128-10.702 2.129-16.141 0l.556-22.081c2.498.589 5.007.884 7.516.884zm0 75.594c3.139 0 6.277-.388 9.411-1.165l.557 22.091c-6.676 2.394-13.261 2.394-19.938 0l.557-22.092a38.952 38.952 0 009.413 1.166zm-12.885 136.622l.626-24.835c4.08 1.004 8.169 1.506 12.258 1.506s8.178-.503 12.259-1.507l.626 24.836zm12.884-292.614c3.09 0 5.572 2.42 5.649 5.509l.524 20.776c-4.179 1.805-8.166 1.805-12.346-.001l.523-20.774a5.62 5.62 0 015.65-5.51zM171.881 407.71l-.369-.224c-12.531-7.612-19.816-22.109-18.559-36.935.118-1.406.275-2.851.466-4.29 1.401-10.587 6.861-19.986 15.374-26.467 8.359-6.361 18.635-9.078 28.93-7.649l.501.072c5.23.763 10.286 2.669 15.025 5.665l17.761 11.229-2.967 117.754h-27.168c3.217-23.501-8.138-46.696-28.994-59.155z"/><path d="M452.285 185.809c4.143 0 7.5-3.357 7.5-7.5v-55.131c0-10.661-8.674-19.334-19.335-19.334h-28.879l-.704-3.845c-4.025-21.961-22.338-38.994-44.531-41.42l-30.611-3.349c-14.767-1.615-27.171-12.367-30.866-26.755l-5.866-22.841c-1.031-4.012-5.118-6.424-9.13-5.399a7.5 7.5 0 00-5.399 9.13l5.866 22.842c5.24 20.399 22.828 35.645 43.765 37.934l30.611 3.35c15.653 1.711 28.569 13.724 31.408 29.213l.209 1.141H115.544l.209-1.14c2.839-15.49 15.754-27.503 31.407-29.215l30.611-3.349c20.938-2.289 38.525-17.534 43.766-37.935l5.866-22.841a7.5 7.5 0 00-5.399-9.13c-4.011-1.024-8.099 1.387-9.13 5.399l-5.866 22.84c-3.695 14.389-16.1 25.141-30.867 26.756l-30.611 3.348C123.337 61.005 105.025 78.038 101 100l-.704 3.844h-28.88c-10.661 0-19.335 8.673-19.335 19.334v369.354c0 10.661 8.674 19.335 19.335 19.335H440.45c10.661 0 19.335-8.674 19.335-19.335V208.296c0-4.143-3.357-7.5-7.5-7.5s-7.5 3.357-7.5 7.5v284.235a4.339 4.339 0 01-4.335 4.335H71.416a4.339 4.339 0 01-4.335-4.335V123.178a4.339 4.339 0 014.335-4.334H440.45a4.339 4.339 0 014.335 4.334v55.131a7.5 7.5 0 007.5 7.5z"/></svg></svg>