<svg id="&#x421;&#x43B;&#x43E;&#x439;_1" height="512" viewBox="0 0 128 128" width="512" xmlns="http://www.w3.org/2000/svg"><path d="m120.76 2.29c-7.46-4.53-17-2.39-31 6.93-12.82 8.54-34.41 12.09-53.76.78-7-4.11-21.57-12.61-30.78-1.37-4.19 5.11-3 13-1.88 20.58 1.66 11.1 1.42 12.67-.93 22.65-2 8.31-4.18 17.72-.17 27.2 2.42 5.72 6.56 9.52 12 11 6.88 1.85 14-.38 17.74-2.61 2.65 1.81 9.38 5.91 16.11 5.91h.56a19 19 0 0 0 -.61 8c1.84 14.33 11.21 25.56 11.61 26a2 2 0 1 0 3.05-2.58c-.09-.11-9-10.79-10.69-24a14.65 14.65 0 0 1 7-14.62c6.56-4.23 9.29-2.73 14.85-.58 7.93 3.07 18.8 7.28 25.3 1.08 4-3.78 3.16-13.37 2.14-25.49-1-11.62-2.08-24.78 1.74-31.37a1.63 1.63 0 0 0 .09-.19 50.08 50.08 0 0 0 5.53-4.14 2 2 0 0 0 -2.62-3c-24.87 21.51-69.46 13.71-85.4 3.67a2 2 0 0 0 -2.13 3.39 53.56 53.56 0 0 0 10.27 4.8c-1.24 2.53-3.41 12.39-1.94 14.79a71.62 71.62 0 0 1 7.38 15.32 2 2 0 0 0 .08.33v.09c1.7 5.55 1.7 10.14.08 13.71a13.69 13.69 0 0 1 -3.59 4.84 20.4 20.4 0 0 1 -15.54 2.76c-4.25-1.17-7.38-4.05-9.33-8.67-3.5-8.28-1.53-16.64.38-24.72 2.46-10.43 2.7-12.52.99-24.16-1-7-2-13.71 1-17.45 6.2-7.57 16-3.38 25.64 2.26 20.87 12.2 44.17 8.35 58-.88 16.23-10.82 23-9.09 26.72-6.84 8.86 5.37 4.91 14.87.49 22.54-6.17 10.68-5.4 18.8-4.14 28.69 1.11 8.78 4.08 32.11-5.12 39.46-12 9.62-24.52 8.42-41.74-4a2 2 0 1 0 -2.34 3.24q2.94 2.12 5.74 3.84c-.61 8.56-2 23.11-3.12 25.75a2 2 0 0 0 3.68 1.56c1.52-3.55 2.84-19.33 3.29-25.11 13 6.87 25 7.47 37-2.15 11-8.75 7.89-32.81 6.58-43.08-1.14-9-1.9-16.59 3.64-26.19 2.86-4.92 11.49-19.88-1.85-27.97zm-24.11 35.71a9.19 9.19 0 0 1 -8.85 5.52h-4a2 2 0 0 0 0 4h4a13.38 13.38 0 0 0 8.53-2.8c0 5.08.93 16.62 1 17.09 0 4-3.83 7.57-8.16 7.57h-4a2 2 0 0 0 0 4h4a12.41 12.41 0 0 0 8.75-3.65c.38 6.49.28 12.24-1.54 14-4.51 4.27-13.44 1.05-20.29-1.6a21.68 21.68 0 0 1 -1.83-23.89 13.14 13.14 0 0 0 8.55 3.54 2 2 0 0 0 0-4c-2.78 0-5.87-1.87-7.87-4.76-1.53-2.21-3.66-6.86-1.37-13.6a71.43 71.43 0 0 0 24-6.72 36.58 36.58 0 0 0 -.92 5.3zm-27.37 1.8a18.36 18.36 0 0 0 2.2 15.2c-5.48 9.29-4.68 18.25-1.43 25a15.42 15.42 0 0 0 -8.88.65c1-4.11 1.59-10.31-1.13-16-.29-.59-.62-1.17-1-1.75 3.3-5 6.64-14.43 1.66-22.91.9.01 6.73.01 8.58-.19zm-29.78 31.27a13.53 13.53 0 0 0 7 2.33c1.11 0 2.18-.22 2.13-2.05a2 2 0 0 0 -2-1.95c-2.17.07-7-2-8.53-6.08a.46.46 0 0 0 -.07-.14 73.75 73.75 0 0 0 -7.79-16.18c-.5-1.89 1.58-10.23 2.35-11.5a105.9 105.9 0 0 0 23.09 4.19c6.23 7.33 3 15.65.84 19.59a45.35 45.35 0 0 0 -5.41-5.45 2 2 0 0 0 -2.53 3.17c.05 0 5.55 4.58 7.85 9.38 3.2 6.67.58 14.71-.19 16.78a19.57 19.57 0 0 0 -5.7 5.93c-5.5 1.32-12.16-2.27-15.38-4.31a18.33 18.33 0 0 0 4.34-13.71z"/></svg>