<svg id="Capa_1" height="512" width="512" xmlns="http://www.w3.org/2000/svg"><path d="M256 0c-19.33 0-35 15.67-35 35v10c0 19.33 15.67 35 35 35s35-15.67 35-35V35c0-19.33-15.67-35-35-35zm48.647 88.044C292.729 101.497 275.343 110 256 110s-36.729-8.503-48.647-21.956C191.549 97.706 181 115.12 181 135v70c0 8.284 6.716 15 15 15h15v85c0 8.284 6.716 15 15 15h60c8.284 0 15-6.716 15-15v-85h15c8.284 0 15-6.716 15-15v-70c0-19.88-10.549-37.294-26.353-46.956zM75 192c-19.33 0-35 15.67-35 35v10c0 19.33 15.67 35 35 35s35-15.67 35-35v-10c0-19.33-15.67-35-35-35zm48.647 88.044C111.729 293.497 94.343 302 75 302s-36.729-8.503-48.647-21.956C10.549 289.706 0 307.12 0 327v70c0 8.284 6.716 15 15 15h15v85c0 8.284 6.716 15 15 15h60c8.284 0 15-6.716 15-15v-85h15c8.284 0 15-6.716 15-15v-70c0-19.88-10.549-37.294-26.353-46.956zM437 192c-19.33 0-35 15.67-35 35v10c0 19.33 15.67 35 35 35s35-15.67 35-35v-10c0-19.33-15.67-35-35-35zM271 406.077V350h-30v56.077l-91 49.417v34.138l106-57.563 106 57.563v-34.138zm214.647-126.033C473.729 293.497 456.343 302 437 302s-36.729-8.503-48.647-21.956C372.549 289.706 362 307.12 362 327v70c0 8.284 6.716 15 15 15h15v85c0 8.284 6.716 15 15 15h60c8.284 0 15-6.716 15-15v-85h15c8.284 0 15-6.716 15-15v-70c0-19.88-10.549-37.294-26.353-46.956z"/></svg>