<svg id="_x33_0" height="512" viewBox="0 0 61.989 61.965" width="512" xmlns="http://www.w3.org/2000/svg"><path d="M3.843 11.428l1.539.765a.974.974 0 00.43.101c.022 0 .042-.011.064-.013-3.864-6.132-4.368-9.215-3.595-9.987.789-.789 4.442-.397 13.11 5.679a8.947 8.947 0 011.789-1.117l.058-.027C8.605.661 3.093-1.347.867.88-.844 2.591-.01 6.314 3.327 11.946zm42.729-3.45c8.674-6.082 12.329-6.473 13.118-5.684.556.557.469 2.491-1.444 6.251l1.782.907c2.19-4.303 2.542-7.107 1.076-8.573-2.228-2.226-7.737-.218-16.367 5.945l.052.024a8.9 8.9 0 011.783 1.13zm12.338 3.521l-1.73-1.002a57.884 57.884 0 01-1.195 1.965l1.688 1.072c.445-.701.858-1.38 1.237-2.035zm-2.571 4.062l-1.654-1.125c-.438.645-.9 1.305-1.385 1.979l1.623 1.168c.495-.689.968-1.364 1.416-2.022zm-37.07 13.764c-.607-.667-1.203-1.33-1.786-1.989l-1.498 1.325c.589.666 1.191 1.337 1.805 2.011zm.378 3.357a204.59 204.59 0 001.908 2.01l1.441-1.387a212.21 212.21 0 01-1.889-1.99z"/><path d="M47.407 35.402a16.087 16.087 0 01-.648 1.891C57.929 50.446 61.093 58.3 59.69 59.703c-1.883 1.884-12.711-3.883-27.235-17.168a208.574 208.574 0 005.12-4.947 207.392 207.392 0 004.07-4.194L40.23 31.98a207.231 207.231 0 01-4.07 4.194 210.935 210.935 0 01-5.175 5.002 210.844 210.844 0 01-5.175-5.001l-.873-.88-1.423 1.406.881.887a208.574 208.574 0 005.12 4.947C14.992 55.82 4.166 61.586 2.281 59.703c-1.402-1.402 1.758-9.25 12.916-22.391a16.177 16.177 0 01-.724-2.243C9.75 40.557-3.489 56.762.867 61.117c.578.577 1.388.849 2.395.848 5.447 0 16.639-7.925 27.724-18.072C42.071 54.041 53.263 61.966 58.71 61.965c1.006 0 1.817-.271 2.395-.848 4.356-4.356-8.886-20.564-13.607-26.051z"/><path d="M30.985 59.998a5.008 5.008 0 004.899-4h-9.799a5.01 5.01 0 004.9 4zM15.74 19.369l.253-.083v-.566l-.253-.083a2.963 2.963 0 01-1.729-4.134l.125-.252-.391-.391-.252.125a2.965 2.965 0 01-4.134-1.728l-.083-.253H8.71l-.083.253a2.962 2.962 0 01-4.134 1.728l-.252-.125-.391.39.125.252a2.965 2.965 0 01-1.728 4.135l-.254.083v.565l.254.083a2.962 2.962 0 011.728 4.134l-.125.254.391.391.252-.125a2.965 2.965 0 014.135 1.729l.082.25h.567l.083-.25a2.963 2.963 0 014.135-1.729l.251.125.391-.391-.125-.252a2.964 2.964 0 011.728-4.135zm-6.747 1.634c-1.1 0-2-.9-2-2s.9-2 2-2 2 .9 2 2-.9 2-2 2zm44.731 5.366l.253-.083v-.566l-.253-.083a2.962 2.962 0 01-1.729-4.133l.125-.253-.39-.391-.252.125a2.965 2.965 0 01-4.134-1.728l-.083-.253h-.565l-.083.253a2.963 2.963 0 01-4.135 1.728l-.251-.125-.391.391.125.252a2.965 2.965 0 01-1.729 4.135l-.253.083v.565l.254.083a2.962 2.962 0 011.728 4.135l-.125.251.391.391.252-.125a2.957 2.957 0 012.46-.081 2.96 2.96 0 011.674 1.809l.083.25h.567l.083-.25a2.965 2.965 0 014.134-1.728l.251.125.391-.391-.125-.252a2.965 2.965 0 011.727-4.134zm-6.747 1.634c-1.1 0-2-.9-2-2s.9-2 2-2 2 .9 2 2-.9 2-2 2z"/><path d="M40.168 29.614a.962.962 0 00-.563-1.345l-1.628-.537v-3.459l1.628-.536a.965.965 0 00.563-1.344l-.765-1.54 2.423-2.424 1.54.765a.966.966 0 001.345-.562l.536-1.628h2.433a6.912 6.912 0 00.304-2.005 6.983 6.983 0 00-4.041-6.336 8.007 8.007 0 01-3.387 5.902l-1.145-1.64A6.013 6.013 0 0041.983 8c0-3.309-2.691-6-6-6-1.494 0-2.899.54-4 1.528v18.566a6.972 6.972 0 013.835-1.997l.331 1.973a4.982 4.982 0 00-4.166 4.931v3h7.993zM25.985 51.998h10v2h-10zM45.02 34.311l-.308-.937c-.024-.073-.075-.131-.115-.195l-.78.834a207.081 207.081 0 01-8.424 8.495c1.085.971 2.138 1.891 3.157 2.758a56.944 56.944 0 011.571-1.802c1.726-1.92 3.607-4.055 4.758-6.858l.025-.062c.098-.241.176-.457.253-.673.112-.321.224-.642.315-.981l.001-.005c-.18-.079-.284-.21-.4-.44zM18.026 8.668a6.971 6.971 0 00-3.339 3.304l1.88 1.881-.765 1.54a.963.963 0 00.563 1.345l1.628.536v3.459l-1.628.537a.963.963 0 00-.563 1.345l.765 1.54 1.09.359s5.851 6.43 6.329 6.93V30h6v-3.005a5.005 5.005 0 00-7.499-4.327l-1.002-1.73A6.998 6.998 0 0124.986 20c1.958 0 3.728.81 5 2.11V3.534a5.945 5.945 0 00-4-1.536c-3.309 0-6 2.691-6 6a6.01 6.01 0 002.572 4.925l-1.145 1.641a8.005 8.005 0 01-3.387-5.896zm-1.611 25.927c.164.672.377 1.333.634 1.964l.159.393c1.159 2.633 2.966 4.651 4.64 6.513.543.604 1.074 1.2 1.57 1.801 1.02-.867 2.073-1.786 3.158-2.758-1.237-1.178-8.912-9.016-8.912-9.016l-1.352-1.473c-.1-.11-.194-.218-.294-.327.036.833.116 1.63.266 2.369zm9.082-1.575l1.733 1.747a215.017 215.017 0 003.755 3.664 219.47 219.47 0 003.761-3.671c.916-.917 1.816-1.839 2.705-2.762H24.514zm1.579 16.978h7.818a186.65 186.65 0 01-3.909-3.412 184.132 184.132 0 01-3.909 3.412z"/></svg>