<svg id="Capa_1" enable-background="new 0 0 512 512" height="512" viewBox="0 0 512 512" width="512" xmlns="http://www.w3.org/2000/svg"><path d="m256 95.241c8.284 0 15-6.716 15-15v-49.541c0-8.284-6.716-15-15-15s-15 6.716-15 15v49.541c0 8.284 6.716 15 15 15z"/><path d="m326 120.7c3.839 0 7.678-1.465 10.606-4.394l40-40c5.858-5.857 5.858-15.355 0-21.213-5.857-5.857-15.355-5.857-21.213 0l-40 40c-5.858 5.857-5.858 15.355 0 21.213 2.929 2.929 6.768 4.394 10.607 4.394z"/><path d="m175.394 116.307c2.929 2.929 6.768 4.394 10.606 4.394s7.678-1.465 10.606-4.394c5.858-5.857 5.858-15.355 0-21.213l-40-40c-5.857-5.857-15.355-5.857-21.213 0s-5.858 15.355 0 21.213z"/><path d="m390.73 227.706-58.228-58.229c-11.253-11.253-26.514-17.574-42.428-17.574h-91.079c-22.705 0-44.05 8.842-60.104 24.896l-4.794 4.793-.31.31h-118.787c-8.284 0-15 6.716-15 15v160c0 8.284 6.716 15 15 15h74.787l35.607 35.606c2.813 2.813 6.628 4.394 10.606 4.394h13.582c-5.027-7.781-8.263-16.473-9.53-25.572-11.214-3.648-21.305-10.383-29.077-19.646-22.594-26.929-19.069-67.218 7.858-89.813l57.012-47.838h113.834c3.978 0 7.794 1.58 10.607 4.394l41.881 41.881c13.452 13.452 35.754 13.739 48.975.06 12.843-13.287 12.705-34.545-.412-47.662z"/><path d="m512 227.903c0-8.286-6.716-15.001-15-15h-79.466c19.179 25.071 17.327 61.18-5.59 84.099-12.079 12.078-28.151 18.729-45.255 18.729-17.105 0-33.177-6.651-45.254-18.729l-37.967-37.968h-99.511l-11.783 9.887-38.055 31.932c-14.279 11.981-16.141 33.269-4.16 47.548 11.981 14.279 33.269 16.141 47.548 4.16-14.279 11.981-16.141 33.269-4.16 47.548 11.981 14.279 33.269 16.141 47.548 4.16-14.279 11.981-16.141 33.269-4.16 47.548 11.981 14.279 33.269 16.141 47.548 4.16l26.565-22.291-3.583 3.007c-14.279 11.981-16.141 33.269-4.16 47.548 11.981 14.279 33.269 16.141 47.548 4.16l101.894-85.5h64.455c8.284 0 15-6.716 14.999-15z"/></svg>