<svg id="Capa_1" enable-background="new 0 0 512 512" height="512" viewBox="0 0 512 512" width="512" xmlns="http://www.w3.org/2000/svg"><g><g><path d="m256 0c-19.33 0-35 15.67-35 35v10c0 19.33 15.67 35 35 35 19.33 0 35-15.67 35-35v-10c0-19.33-15.67-35-35-35z"/><path d="m304.647 88.044c-11.918 13.453-29.304 21.956-48.647 21.956s-36.729-8.503-48.647-21.956c-15.804 9.662-26.353 27.076-26.353 46.956v70c0 8.284 6.716 15 15 15h15v85c0 8.284 6.716 15 15 15h60c8.284 0 15-6.716 15-15v-85h15c8.284 0 15-6.716 15-15v-70c0-19.88-10.549-37.294-26.353-46.956z"/></g><g><path d="m75 192c-19.33 0-35 15.67-35 35v10c0 19.33 15.67 35 35 35 19.33 0 35-15.67 35-35v-10c0-19.33-15.67-35-35-35z"/><path d="m123.647 280.044c-11.918 13.453-29.304 21.956-48.647 21.956s-36.729-8.503-48.647-21.956c-15.804 9.662-26.353 27.076-26.353 46.956v70c0 8.284 6.716 15 15 15h15v85c0 8.284 6.716 15 15 15h60c8.284 0 15-6.716 15-15v-85h15c8.284 0 15-6.716 15-15v-70c0-19.88-10.549-37.294-26.353-46.956z"/></g><g><path d="m437 192c-19.33 0-35 15.67-35 35v10c0 19.33 15.67 35 35 35 19.33 0 35-15.67 35-35v-10c0-19.33-15.67-35-35-35z"/><g><g><path d="m271 406.077v-56.077h-30v56.077l-91 49.417v34.138l106-57.563 106 57.563v-34.138z"/></g><path d="m485.647 280.044c-11.918 13.453-29.304 21.956-48.647 21.956s-36.729-8.503-48.647-21.956c-15.804 9.662-26.353 27.076-26.353 46.956v70c0 8.284 6.716 15 15 15h15v85c0 8.284 6.716 15 15 15h60c8.284 0 15-6.716 15-15v-85h15c8.284 0 15-6.716 15-15v-70c0-19.88-10.549-37.294-26.353-46.956z"/></g></g></g></svg>