<svg id="_x33_0" enable-background="new 0 0 61.989 61.965" height="512" viewBox="0 0 61.989 61.965" width="512" xmlns="http://www.w3.org/2000/svg"><g><path d="m3.843 11.428 1.539.765c.133.066.282.101.43.101.022 0 .042-.011.064-.013-3.864-6.132-4.368-9.215-3.595-9.987.789-.789 4.442-.397 13.11 5.679.549-.438 1.147-.817 1.789-1.117l.058-.027c-8.633-6.168-14.145-8.176-16.371-5.949-1.711 1.711-.877 5.434 2.46 11.066z"/><path d="m46.572 7.978c8.674-6.082 12.329-6.473 13.118-5.684.556.557.469 2.491-1.444 6.251l1.782.907c2.19-4.303 2.542-7.107 1.076-8.573-2.228-2.226-7.737-.218-16.367 5.945l.052.024c.649.303 1.237.694 1.783 1.13z"/><path d="m58.91 11.499-1.73-1.002c-.366.632-.766 1.288-1.195 1.965l1.688 1.072c.445-.701.858-1.38 1.237-2.035z"/><path d="m56.339 15.561-1.654-1.125c-.438.645-.9 1.305-1.385 1.979l1.623 1.168c.495-.689.968-1.364 1.416-2.022z"/><path d="m19.269 29.325c-.607-.667-1.203-1.33-1.786-1.989l-1.498 1.325c.589.666 1.191 1.337 1.805 2.011z"/><path d="m19.647 32.682c.625.667 1.261 1.338 1.908 2.01l1.441-1.387c-.641-.666-1.27-1.33-1.889-1.99z"/><path d="m47.407 35.402c-.178.666-.404 1.288-.648 1.891 11.17 13.153 14.334 21.007 12.931 22.41-1.883 1.884-12.711-3.883-27.235-17.168 1.723-1.609 3.437-3.264 5.12-4.947 1.385-1.385 2.745-2.792 4.07-4.194l-1.415-1.414c-1.324 1.401-2.684 2.808-4.07 4.194-1.766 1.766-3.493 3.431-5.175 5.002-1.682-1.571-3.409-3.235-5.175-5.001l-.873-.88-1.423 1.406.881.887c1.683 1.683 3.397 3.338 5.12 4.947-14.523 13.285-25.349 19.051-27.234 17.168-1.402-1.402 1.758-9.25 12.916-22.391-.286-.704-.53-1.451-.724-2.243-4.723 5.488-17.962 21.693-13.606 26.048.578.577 1.388.849 2.395.848 5.447 0 16.639-7.925 27.724-18.072 11.085 10.148 22.277 18.073 27.724 18.072 1.006 0 1.817-.271 2.395-.848 4.356-4.356-8.886-20.564-13.607-26.051z"/><path d="m30.985 59.998c2.415 0 4.435-1.721 4.899-4h-9.799c.465 2.279 2.486 4 4.9 4z"/><path d="m15.74 19.369.253-.083v-.566l-.253-.083c-.818-.269-1.478-.879-1.81-1.674-.331-.794-.302-1.69.081-2.46l.125-.252-.391-.391-.252.125c-.77.382-1.667.412-2.46.081-.794-.331-1.405-.99-1.674-1.809l-.083-.253h-.566l-.083.253c-.269.819-.88 1.478-1.675 1.81-.792.332-1.689.301-2.459-.082l-.252-.125-.391.39.125.252c.382.77.412 1.667.081 2.46-.331.795-.991 1.405-1.809 1.675l-.254.083v.565l.254.083c.818.269 1.478.879 1.809 1.675.331.793.301 1.689-.081 2.459l-.125.254.391.391.252-.125c.769-.383 1.666-.413 2.46-.081.795.332 1.406.992 1.675 1.81l.082.25h.567l.083-.25c.269-.818.879-1.478 1.674-1.81.794-.332 1.69-.302 2.461.081l.251.125.391-.391-.125-.252c-.382-.77-.412-1.666-.081-2.46.331-.796.99-1.406 1.809-1.675zm-6.747 1.634c-1.1 0-2-.9-2-2s.9-2 2-2 2 .9 2 2-.9 2-2 2z"/><path d="m53.724 26.369.253-.083v-.566l-.253-.083c-.818-.269-1.478-.879-1.81-1.675-.331-.792-.301-1.689.081-2.458l.125-.253-.39-.391-.252.125c-.771.382-1.667.412-2.46.081-.794-.331-1.405-.99-1.674-1.809l-.083-.253h-.565l-.083.253c-.27.819-.88 1.479-1.675 1.81-.793.331-1.69.3-2.46-.082l-.251-.125-.391.391.125.252c.383.77.412 1.666.081 2.46-.332.795-.992 1.406-1.81 1.675l-.253.083v.565l.254.083c.818.269 1.477.879 1.809 1.674.331.794.301 1.691-.081 2.461l-.125.251.391.391.252-.125c.769-.383 1.666-.413 2.46-.081.794.331 1.405.99 1.674 1.809l.083.25h.567l.083-.25c.27-.819.88-1.478 1.675-1.81.792-.33 1.689-.301 2.459.082l.251.125.391-.391-.125-.252c-.382-.77-.412-1.667-.081-2.46.33-.794.989-1.405 1.808-1.674zm-6.747 1.634c-1.1 0-2-.9-2-2s.9-2 2-2 2 .9 2 2-.9 2-2 2z"/><path d="m40.168 29.614c.125-.25.134-.542.026-.801-.108-.258-.323-.457-.589-.544l-1.628-.537v-3.459l1.628-.536c.266-.088.481-.287.589-.545.107-.258.098-.549-.026-.799l-.765-1.54 2.423-2.424 1.54.765c.25.124.542.134.801.026.258-.108.457-.322.544-.588l.536-1.628h2.433c.195-.646.304-1.315.304-2.005 0-2.763-1.612-5.205-4.041-6.336-.198 2.36-1.424 4.532-3.387 5.902l-1.145-1.64c1.61-1.124 2.572-2.965 2.572-4.925 0-3.309-2.691-6-6-6-1.494 0-2.899.54-4 1.528v18.566c1.004-1.023 2.326-1.744 3.835-1.997l.331 1.973c-2.414.405-4.166 2.479-4.166 4.931v3h7.993z"/><path d="m25.985 51.998h10v2h-10z"/><path d="m45.02 34.311-.308-.937c-.024-.073-.075-.131-.115-.195l-.78.834c-1.563 1.67-3.188 3.35-4.829 4.989-1.154 1.154-2.358 2.328-3.595 3.506 1.085.971 2.138 1.891 3.157 2.758.497-.601 1.027-1.198 1.571-1.802 1.726-1.92 3.607-4.055 4.758-6.858l.025-.062c.098-.241.176-.457.253-.673.112-.321.224-.642.315-.981 0-.001.001-.003.001-.005-.18-.079-.284-.21-.4-.44z"/><path d="m18.026 8.668c-1.463.683-2.641 1.849-3.339 3.304l1.88 1.881-.765 1.54c-.125.25-.134.542-.026.8.108.259.323.458.589.545l1.628.536v3.459l-1.628.537c-.267.088-.481.286-.589.545-.107.258-.098.55.026.8l.765 1.54 1.09.359s5.851 6.43 6.329 6.93v-1.444h6v-3.005c-.003-2.755-2.244-4.995-5-4.995-.88 0-1.744.231-2.499.668l-1.002-1.73c1.059-.613 2.27-.938 3.501-.938 1.958 0 3.728.81 5 2.11v-18.576c-1.102-.99-2.505-1.536-4-1.536-3.309 0-6 2.691-6 6 0 1.96.961 3.801 2.572 4.925l-1.145 1.641c-1.962-1.369-3.188-3.539-3.387-5.896z"/><path d="m16.415 34.595c.164.672.377 1.333.634 1.964l.159.393c1.159 2.633 2.966 4.651 4.64 6.513.543.604 1.074 1.2 1.57 1.801 1.02-.867 2.073-1.786 3.158-2.758-1.237-1.178-8.912-9.016-8.912-9.016l-1.352-1.473c-.1-.11-.194-.218-.294-.327.036.833.116 1.63.266 2.369z"/><path d="m25.497 33.02 1.733 1.747c1.286 1.286 2.535 2.502 3.755 3.664 1.221-1.164 2.473-2.383 3.761-3.671.916-.917 1.816-1.839 2.705-2.762h-12.937z"/><path d="m27.076 49.998h7.818c-1.313-1.114-2.621-2.256-3.909-3.412-1.288 1.156-2.595 2.298-3.909 3.412z"/></g></svg>