<svg id="Capa_1" height="512" viewBox="0 0 512.056 512.056" width="512" xmlns="http://www.w3.org/2000/svg"><path d="M456.464 101.224H320.421a157.71 157.71 0 00-2.682-2.751c-44.05-44.048-108.226-55.986-163.195-35.834l-43.615-43.616c-25.331-25.328-66.546-25.328-91.876 0C-1.938 40.015-6.053 72.498 9.046 98.016a7.497 7.497 0 0010.274 2.636 7.5 7.5 0 002.635-10.275c-11.609-19.62-8.441-44.6 7.703-60.745 19.481-19.482 51.18-19.484 70.662 0l39.354 39.354c-14.876 7.304-28.818 17.131-41.173 29.487-12.356 12.356-22.183 26.298-29.487 41.174l-24.732-24.732a7.502 7.502 0 00-10.607 10.608l28.992 28.993c-20.152 54.97-8.214 119.147 35.834 163.195a156.185 156.185 0 009.215 8.497l16.393 130.6c3.951 31.48 30.857 55.22 62.586 55.22h198.237c31.729 0 58.634-23.74 62.586-55.221l.91-7.256a7.5 7.5 0 00-6.508-8.376 7.493 7.493 0 00-8.376 6.508l-.91 7.256c-3.012 23.994-23.519 42.088-47.702 42.088H186.695c-24.183 0-44.69-18.094-47.702-42.088l-14.608-116.376c25.408 16.313 54.569 24.48 83.735 24.48 39.698 0 79.397-15.11 109.619-45.332.894-.894 1.772-1.797 2.64-2.707 17.006 3.638 35.218 6.423 55.748 6.423 21.851 0 46.332-3.164 74.748-11.794l-12.966 103.295a7.5 7.5 0 0014.883 1.869l25.993-207.079c19.568-8.616 33.271-28.182 33.271-50.899 0-30.656-24.939-55.595-55.592-55.595zM109.108 307.103c-54.595-54.594-54.595-143.428 0-198.022 27.298-27.298 63.154-40.946 99.012-40.946 35.857 0 71.714 13.648 99.011 40.946 54.595 54.594 54.595 143.428 0 198.022-54.594 54.596-143.428 54.595-198.023 0zm343.822-13.849c-51.026 16.68-88.809 14.868-121.422 8.692 20.122-26.417 30.623-57.865 31.498-89.536h93.459c2.257 0 4.478-.151 6.665-.414zm3.534-95.845h-93.763c-1.966-28.71-11.863-56.972-29.696-81.184h123.459c22.382 0 40.591 18.209 40.591 40.591s-18.209 40.593-40.591 40.593z"/><path d="M284.988 131.223c-42.385-42.384-111.352-42.384-153.737 0-20.533 20.533-31.84 47.832-31.84 76.869s11.308 56.336 31.84 76.869c21.195 21.195 49.027 31.791 76.869 31.789 27.834-.003 55.678-10.599 76.868-31.789 20.533-20.533 31.841-47.832 31.841-76.869s-11.308-56.336-31.841-76.869zm-10.608 143.13c-36.535 36.538-95.985 36.537-132.522 0-17.699-17.698-27.447-41.23-27.447-66.261s9.748-48.563 27.447-66.261c18.268-18.269 42.265-27.403 66.261-27.403s47.993 9.134 66.26 27.403c17.699 17.698 27.447 41.23 27.447 66.261s-9.746 48.563-27.446 66.261zm-51.842 118.875a7.5 7.5 0 00-7.5 7.495l-.009 11.877a7.502 7.502 0 0015.001.011l.009-11.877a7.5 7.5 0 00-7.495-7.506h-.006zm126.61.124a7.5 7.5 0 00-7.5 7.495l-.009 11.877a7.5 7.5 0 1015.001.011l.009-11.877a7.5 7.5 0 00-7.495-7.506h-.006zm-80.002 17.073a7.5 7.5 0 10-.013 15.001l33.38.029a7.5 7.5 0 10.013-15.001z"/></svg>