<svg height="512" viewBox="0 0 64 64" width="512" xmlns="http://www.w3.org/2000/svg"><g id="Image"><path d="M52.21 36.429C45.643 45.875 34.305 51.762 32 52.892c-2.305-1.13-13.642-7.017-20.208-16.462a.999.999 0 10-1.643 1.141c7.618 10.959 20.875 17.084 21.437 17.34a1 1 0 00.828 0c.562-.256 13.818-6.381 21.438-17.339a1.002 1.002 0 00-.25-1.393.998.998 0 00-1.392.25zM8.641 30.632C5.326 22.266 6.556 11 16 11c6.08 0 11.029 3.518 15.13 10.753.355.627 1.385.627 1.74 0C36.971 14.518 41.92 11 48 11c9.351 0 10.709 11.18 7.361 19.632-.489 1.236 1.374 1.963 1.859.736C61.118 21.533 58.986 9 48 9c-6.333 0-11.71 3.466-16 10.307C27.71 12.466 22.333 9 16 9 5.058 9 2.866 21.486 6.781 31.368c.485 1.228 2.347.497 1.86-.736z"/><path d="M62 33H47c-1.045 0-1.001 1.109-2.591 3.946L40.98 19.804c-.223-1.111-1.779-1.041-1.966.025l-3.052 17.547-1.98-10.561c-.194-1.039-1.656-1.093-1.944-.09L30.246 33c-1.469.143-2.892-.427-3.211.737l-1.688 6.19-2.355-18.057c-.141-1.094-1.697-1.173-1.961-.113L18.219 33H2a1 1 0 100 2h17c.459 0 .858-.313.97-.758l1.721-6.882 2.318 17.769c.141 1.083 1.669 1.187 1.956.134L28.764 35H31c1.224 0 1.017-1.541 1.798-3.652l2.22 11.837c.203 1.092 1.776 1.085 1.968-.014l3.083-17.729 2.951 14.754a1 1 0 001.875.251L47.618 35H62a1 1 0 100-2z"/></g></svg>