<svg id="Capa_1" height="512" viewBox="0 0 512.008 512.008" width="512" xmlns="http://www.w3.org/2000/svg"><path d="M463.485 46.53C434.127 16.904 394.864.384 352.926.014c-23.695-.295-48.86 5.209-70.538 15.933-16.767 8.193-35.999 8.193-52.756.006C208.518 5.534 183.357-.338 158.936.015c-41.55.405-80.535 16.69-109.774 45.854a7.5 7.5 0 00-.013 10.606 7.5 7.5 0 0010.606.014c17.336-17.293 38.468-29.578 61.562-36.094 7.689 3.103 15.929 19.094 14.585 35.332-.892 10.165-6.382 28.161-33.125 34.482-29.676 7.014-41.939 27.142-51.793 43.314-9.067 14.88-15.919 26.065-32.941 27.407-.789-26.842 6.831-55.446 21.074-78.371a7.5 7.5 0 00-12.769-7.87C11.076 99.468 3.004 128.106 3.004 157.508c0 40.687 15.464 79.294 43.543 108.709 9.274 9.716 16.085 21.77 19.694 34.858 15.703 56.935 30.277 113.927 42.148 164.816 6.366 27.291 27.106 45.617 51.619 45.616h.046c27.916-.026 50.458-22.381 52.433-52.001 1.104-16.561 2.673-34.021 4.663-51.895a7.501 7.501 0 00-6.624-8.284 7.491 7.491 0 00-8.284 6.624c-2.014 18.093-3.603 35.775-4.722 52.556-1.443 21.645-17.556 37.98-37.479 37.999h-.033c-20.083 0-33.059-17.084-37.011-34.023-11.915-51.08-26.541-108.273-42.295-165.397-4.267-15.469-12.325-29.725-23.306-41.227-21.13-22.136-34.355-50.03-38.208-79.973 24.719-1.941 35.23-19.171 44.607-34.559 9.697-15.916 18.856-30.949 42.435-36.521 26.234-6.201 42.496-23.612 44.616-47.768 1.329-15.134-3.245-30.436-11.208-40.523a145.381 145.381 0 0119.445-1.5c21.301-.267 44.341 4.694 63.952 14.41 20.954 10.238 44.987 10.237 65.951-.006 18.927-9.346 41.809-14.69 63.808-14.405 77.865.688 141.212 64.611 141.211 142.496 0 36.729-13.938 71.602-39.243 98.194-9.35 9.824-16.425 21.34-21.029 34.229a7.5 7.5 0 1014.124 5.046c3.896-10.903 9.874-20.638 17.77-28.935 27.973-29.395 43.378-67.939 43.378-108.535 0-41.943-16.166-81.356-45.52-110.979z"/><path d="M433.239 319.179a7.497 7.497 0 00-9.191 5.293c-13.686 50.852-25.072 95.539-33.844 132.817-2.652 11.788-12.512 39.998-38.565 39.716-19.614-.187-36.063-16.052-37.448-36.119-3.738-54.184-15.336-136.366-19.947-153.343-6.389-23.562-19.969-36.537-38.238-36.537-18.146 0-31.723 12.963-38.229 36.5-2.378 8.594-6.756 31.563-11.175 63.506a7.5 7.5 0 0014.859 2.056c4.301-31.093 8.599-53.707 10.772-61.563 4.677-16.919 12.675-25.498 23.771-25.498 13.933 0 20.611 13.847 23.763 25.466 3.903 14.373 15.618 94.787 19.458 150.446 1.92 27.825 24.88 49.825 52.271 50.085 25.304.305 45.812-18.95 53.31-51.28 8.612-36.602 20.274-82.37 33.727-132.354a7.501 7.501 0 00-5.294-9.191zm.318-154.503a7.492 7.492 0 007.821-7.165c.718-16.393-3.553-31.692-12.352-44.242-9.654-13.772-24.421-23.468-42.703-28.038-18.427-4.607-35.793-2.294-50.222 6.687-15.418 9.595-26.691 26.364-30.917 45.955-3.145 14.081.121 26.575 3.278 38.657 3.093 11.832 6.29 24.066 3.774 38.749-4.316 25.189 12.068 49.583 36.525 54.377 2.987.585 5.966.868 8.904.868 21.625 0 41.052-15.276 45.454-37.245 2.252-11.236 9.439-19.816 17.049-28.899 2.593-3.094 5.272-6.294 7.77-9.627a7.5 7.5 0 00-1.507-10.499 7.499 7.499 0 00-10.499 1.507c-2.252 3.006-4.686 5.911-7.262 8.987-8.482 10.125-17.254 20.596-20.258 35.584-3.383 16.878-19.872 27.917-36.766 24.605-16.252-3.186-27.529-20.187-24.626-37.124 3.062-17.875-.715-32.326-4.047-45.075-2.953-11.301-5.505-21.061-3.141-31.648 3.386-15.695 12.204-28.975 24.192-36.436 11.055-6.88 24.062-8.519 38.657-4.87 33.699 8.425 44.674 35.006 43.707 57.072a7.505 7.505 0 007.169 7.82zM97.653 61.705l-10.076 3.387a7.502 7.502 0 002.388 14.611c.792 0 1.599-.126 2.391-.393l10.076-3.387a7.502 7.502 0 004.72-9.499 7.503 7.503 0 00-9.499-4.719z"/><path d="M340.215 144.99a7.5 7.5 0 00-5.697 8.946l2.303 10.377c.674 2.826 4.364 6.742 8.947 5.697a7.5 7.5 0 005.697-8.946l-2.303-10.377a7.498 7.498 0 00-8.947-5.697zm52.4-8.099a7.5 7.5 0 005.488-12.61l-7.242-7.782a7.5 7.5 0 00-10.981 10.219l7.242 7.782a7.48 7.48 0 005.493 2.391zm-20.678 76.385c.965.414 1.968.61 2.954.61a7.501 7.501 0 006.896-4.544l4.192-9.769a7.499 7.499 0 00-3.934-9.85 7.498 7.498 0 00-9.851 3.934l-4.192 9.769a7.5 7.5 0 003.935 9.85zm26.513-46.319c.439 2.845 4.029 6.899 8.614 6.189a7.5 7.5 0 006.188-8.614l-1.719-10.49a7.494 7.494 0 00-8.614-6.189 7.5 7.5 0 00-6.188 8.614zM35.016 114.434a7.5 7.5 0 0013.785 5.915l4.191-9.769a7.5 7.5 0 00-3.936-9.85 7.5 7.5 0 00-9.85 3.935z"/><circle cx="112.504" cy="46.507" r="7.5"/><path d="M352.519 134.017a7.5 7.5 0 100-15 7.5 7.5 0 000 15zM374.524 165a7.5 7.5 0 100-15 7.5 7.5 0 000 15zm-22.005 29.021a7.5 7.5 0 100-15 7.5 7.5 0 000 15zm6.995 45.998a7.5 7.5 0 100-15 7.5 7.5 0 000 15z"/><circle cx="63.504" cy="81.507" r="7.5"/></svg>