<svg height="512" viewBox="0 0 60 58" width="512" xmlns="http://www.w3.org/2000/svg"><g id="029---Hair-Follicle-Moisturising"><path id="Shape" d="M59 30H41.53a1 1 0 00-.886 1.463 12 12 0 11-21.288 0A1 1 0 0018.47 30H1a1 1 0 000 2h15.925a14 14 0 1026.15 0H59a1 1 0 000-2z"/><path id="Shape" d="M35.768 3.955c-2.966 3.437-6.885 9.729-8.712 20.191a12.874 12.874 0 01-3.544 6.627 9 9 0 1013.977 1.237A14.547 14.547 0 0134.9 21.991a54.886 54.886 0 014.19-15.882 2 2 0 00-3.322-2.154zM32.922 21.73a16.744 16.744 0 002.9 11.39 7 7 0 11-10.872-.961 14.857 14.857 0 004.073-7.669c1.751-10.012 5.457-15.983 8.256-19.229a56.828 56.828 0 00-4.357 16.469z"/><circle id="Oval" cx="6" cy="37" r="1"/><circle id="Oval" cx="12" cy="37" r="1"/><circle id="Oval" cx="3" cy="41" r="1"/><circle id="Oval" cx="9" cy="41" r="1"/><circle id="Oval" cx="6" cy="45" r="1"/><circle id="Oval" cx="12" cy="45" r="1"/><circle id="Oval" cx="3" cy="49" r="1"/><circle id="Oval" cx="9" cy="49" r="1"/><circle id="Oval" cx="15" cy="49" r="1"/><circle id="Oval" cx="6" cy="53" r="1"/><circle id="Oval" cx="12" cy="53" r="1"/><circle id="Oval" cx="18" cy="53" r="1"/><circle id="Oval" cx="24" cy="53" r="1"/><circle id="Oval" cx="30" cy="53" r="1"/><circle id="Oval" cx="54" cy="37" r="1"/><circle id="Oval" cx="48" cy="37" r="1"/><circle id="Oval" cx="57" cy="41" r="1"/><circle id="Oval" cx="51" cy="41" r="1"/><circle id="Oval" cx="54" cy="45" r="1"/><circle id="Oval" cx="48" cy="45" r="1"/><circle id="Oval" cx="57" cy="49" r="1"/><circle id="Oval" cx="51" cy="49" r="1"/><circle id="Oval" cx="45" cy="49" r="1"/><circle id="Oval" cx="54" cy="53" r="1"/><circle id="Oval" cx="48" cy="53" r="1"/><circle id="Oval" cx="42" cy="53" r="1"/><circle id="Oval" cx="36" cy="53" r="1"/><circle id="Oval" cx="3" cy="57" r="1"/><circle id="Oval" cx="9" cy="57" r="1"/><circle id="Oval" cx="15" cy="57" r="1"/><circle id="Oval" cx="21" cy="57" r="1"/><circle id="Oval" cx="27" cy="57" r="1"/><circle id="Oval" cx="51" cy="57" r="1"/><circle id="Oval" cx="57" cy="57" r="1"/><circle id="Oval" cx="45" cy="57" r="1"/><circle id="Oval" cx="39" cy="57" r="1"/><circle id="Oval" cx="33" cy="57" r="1"/><path id="Shape" d="M11.825 1.337c-2.361 3.07-6.772 10.354-6.772 14.087a9.474 9.474 0 1018.947 0c0-3.733-4.411-11.017-6.772-14.087a3.4 3.4 0 00-5.403 0zM14.526 23a7.533 7.533 0 01-7.473-7.576c0-2.852 3.7-9.416 6.358-12.868a1.4 1.4 0 012.231 0C18.3 6.008 22 12.572 22 15.424A7.534 7.534 0 0114.526 23z"/><path id="Shape" d="M13.561 18.262a2.812 2.812 0 01-2.045-1.416 4.453 4.453 0 01.277-3.3A1 1 0 0010 12.663c-.056.111-1.34 2.762-.3 5.014a4.722 4.722 0 003.37 2.523 1 1 0 00.491-1.939zm30.732-.555a1 1 0 001.414 0l1-1a1 1 0 00-1.414-1.414l-1 1a1 1 0 000 1.414zm-4 2.586l-1 1a1 1 0 001.414 1.414l1-1a1 1 0 00-1.414-1.414zm4 1.414C45.353 22.768 45.48 23 46 23a1 1 0 00.707-1.707l-1-1a1 1 0 00-1.414 1.414zm-2.586-5.414l-1-1a1 1 0 00-1.414 1.414l1 1a1 1 0 001.414-1.414zM51 7c.53 0 .675-.261 1.707-1.293a1 1 0 10-1.414-1.414l-1 1A1 1 0 0051 7zm-5.707 4.707a1 1 0 001.414 0l1-1a1 1 0 00-1.414-1.414l-1 1a1 1 0 000 1.414zm5-1C51.353 11.768 51.48 12 52 12a1 1 0 00.707-1.707l-1-1a1 1 0 00-1.414 1.414zm-4-4a1 1 0 001.414-1.414l-1-1a1 1 0 00-1.414 1.414z"/></g></svg>