<svg id="Capa_1" height="512" width="512" xmlns="http://www.w3.org/2000/svg"><path d="M464.394 235.845a205.577 205.577 0 00-39.859-106.235l-13.43-18.104c-8.552-11.528-21.363-18.823-35.15-20.014a48.302 48.302 0 00-10.896.298 145.767 145.767 0 0110.151-19.043 53.285 53.285 0 008.276-28.543V22.128C383.486 9.927 373.559 0 361.358 0h-1.469a22.108 22.108 0 00-20.333 13.396l-3.706 8.632a40.493 40.493 0 01-37.243 24.536c-15.195 0-28.11 10.359-31.408 25.192l-2.92 13.134c-.871 3.917-4.281 6.652-8.293 6.652s-7.422-2.735-8.293-6.651l-2.92-13.135c-3.298-14.833-16.213-25.192-31.408-25.192-2.25-.021-3.621.08-7.78-.493-4.093-.641-7.931 2.15-8.575 6.241a7.498 7.498 0 006.241 8.576c1.935.309 6.043.72 10.114.676 8.111 0 15.005 5.53 16.766 13.447l2.92 13.135c2.408 10.831 11.84 18.396 22.936 18.396s20.527-7.565 22.936-18.396l2.92-13.134c1.761-7.918 8.654-13.448 16.766-13.448a55.477 55.477 0 0051.025-33.617l3.706-8.631A7.124 7.124 0 01359.891 15h1.469c3.931 0 7.128 3.198 7.128 7.128v22.075a38.311 38.311 0 01-5.949 20.519 160.88 160.88 0 00-16.224 33.842c-9.415 5.639-18.035 16.39-21.278 28.133h-43.389c-4.143 0-7.5 3.358-7.5 7.5s3.357 7.5 7.5 7.5h39.012l-17.864 61.221c-1.219 4.175-5.107 7.091-9.457 7.091-5.432 0-9.851-4.419-9.851-9.851v-15.372c0-15.164-12.337-27.5-27.5-27.5s-27.5 12.336-27.5 27.5v15.372c0 5.432-4.419 9.851-9.851 9.851-4.35 0-8.238-2.916-9.456-7.091l-17.865-61.221h55.331c4.143 0 7.5-3.358 7.5-7.5s-3.357-7.5-7.5-7.5h-59.708c-2.955-11.123-11.433-22.163-21.277-28.13a160.857 160.857 0 00-16.224-33.845 38.295 38.295 0 01-5.95-20.519V22.128A7.135 7.135 0 01150.616 15a7.12 7.12 0 016.55 4.315l3.708 8.633a55.495 55.495 0 007.895 13.067 7.5 7.5 0 0011.649-9.45 40.51 40.51 0 01-5.76-9.536l-3.708-8.633A22.114 22.114 0 00150.614 0c-12.201 0-22.128 9.927-22.128 22.128v22.075a53.278 53.278 0 008.277 28.544 145.84 145.84 0 0110.153 19.044 48.213 48.213 0 00-10.899-.299c-13.787 1.191-26.599 8.486-35.15 20.014l-13.43 18.104c-18.714 25.227-31.573 54.883-37.188 85.765-5.556 30.558-4.069 62.496 4.3 92.362 1.118 3.988 5.265 6.319 9.245 5.198a7.5 7.5 0 005.198-9.246c-15.797-56.373-4.397-118.108 30.492-165.142l13.43-18.104c5.994-8.08 14.886-13.185 24.395-14.006 15.876-1.37 30.632 8.711 35.087 23.978l22.385 76.707c3.073 10.533 12.884 17.889 23.855 17.889 13.702 0 24.851-11.148 24.851-24.851v-15.372c0-6.893 5.607-12.5 12.5-12.5s12.5 5.607 12.5 12.5v15.372c0 13.703 11.147 24.851 24.851 24.851 10.972 0 20.782-7.356 23.856-17.889l22.384-76.707c4.453-15.266 19.21-25.351 35.087-23.978 9.509.822 18.4 5.927 24.395 14.006l13.43 18.104c43.157 58.178 49.474 137.31 16.09 201.598-6.653 12.813-19.755 20.773-34.193 20.773-14.476 0-27.594-7.99-34.235-20.853-11.863-22.976-35.297-37.249-61.154-37.249H212.98c-25.858 0-49.291 14.273-61.154 37.249-6.642 12.862-19.76 20.853-34.235 20.853-16.208-.063-30.324-10.147-36.703-25.783a7.5 7.5 0 00-13.508 6.522c7.77 19.403 28.32 34.782 50.211 34.261 20.111 0 38.337-11.101 47.563-28.971a53.845 53.845 0 0115.835-18.623V344.5c0 8.798 6.534 16.081 15 17.3v15.4c-8.466 1.22-15 8.502-15 17.3v25c0 8.798 6.534 16.081 15 17.3v15.4c-8.466 1.22-15 8.502-15 17.3v25c0 9.649 7.851 17.5 17.5 17.5h115c9.649 0 17.5-7.851 17.5-17.5v-25c0-8.798-6.534-16.081-15-17.3v-15.4c8.466-1.22 15-8.502 15-17.3v-25c0-8.798-6.534-16.081-15-17.3v-15.4c8.466-1.22 15-8.502 15-17.3v-16.176a53.845 53.845 0 0115.835 18.623c9.228 17.87 27.452 28.971 47.563 28.971 20.06 0 38.263-11.059 47.506-28.861a205.613 205.613 0 0022.501-111.212zM210.986 377v-15h90v15zm105 117.5c0 1.378-1.121 2.5-2.5 2.5h-115a2.503 2.503 0 01-2.5-2.5v-25c0-1.378 1.121-2.5 2.5-2.5h115c1.379 0 2.5 1.122 2.5 2.5zm0-75c0 1.378-1.121 2.5-2.5 2.5H276.22c-4.143 0-7.5 3.358-7.5 7.5s3.357 7.5 7.5 7.5h24.766v15h-90v-15h29.234c4.143 0 7.5-3.358 7.5-7.5s-3.357-7.5-7.5-7.5h-41.734a2.503 2.503 0 01-2.5-2.5v-25c0-1.378 1.121-2.5 2.5-2.5h115c1.379 0 2.5 1.122 2.5 2.5zm0-75c0 1.378-1.121 2.5-2.5 2.5h-115a2.503 2.503 0 01-2.5-2.5v-23.95a54.01 54.01 0 0116.991-2.734h86.018a54.01 54.01 0 0116.991 2.734z"/><path d="M95.443 321.66c0 12.407 10.094 22.5 22.5 22.5s22.5-10.093 22.5-22.5-10.094-22.5-22.5-22.5-22.5 10.093-22.5 22.5zm22.5-7.5c4.136 0 7.5 3.364 7.5 7.5s-3.364 7.5-7.5 7.5-7.5-3.364-7.5-7.5 3.364-7.5 7.5-7.5zm255.83-186.463c-12.406 0-22.5 10.093-22.5 22.5s10.094 22.5 22.5 22.5 22.5-10.093 22.5-22.5-10.094-22.5-22.5-22.5zm0 30c-4.136 0-7.5-3.364-7.5-7.5s3.364-7.5 7.5-7.5 7.5 3.364 7.5 7.5-3.364 7.5-7.5 7.5zM426.273 271c0-12.407-10.094-22.5-22.5-22.5s-22.5 10.093-22.5 22.5 10.094 22.5 22.5 22.5 22.5-10.093 22.5-22.5zm-30 0c0-4.136 3.364-7.5 7.5-7.5s7.5 3.364 7.5 7.5-3.364 7.5-7.5 7.5-7.5-3.364-7.5-7.5zm-20.277 34.713c-4.142 0-7.495 3.358-7.495 7.5s3.363 7.5 7.505 7.5c4.143 0 7.5-3.358 7.5-7.5s-3.357-7.5-7.5-7.5zm19 19c-4.142 0-7.495 3.358-7.495 7.5s3.363 7.5 7.505 7.5c4.143 0 7.5-3.358 7.5-7.5s-3.357-7.5-7.5-7.5zm-116.51-65.364c0-12.407-10.094-22.5-22.5-22.5s-22.5 10.093-22.5 22.5 10.094 22.5 22.5 22.5 22.5-10.094 22.5-22.5zm-30 0c0-4.136 3.364-7.5 7.5-7.5s7.5 3.364 7.5 7.5-3.364 7.5-7.5 7.5-7.5-3.365-7.5-7.5zM130.305 141.436c-12.406 0-22.5 10.093-22.5 22.5s10.094 22.5 22.5 22.5 22.5-10.093 22.5-22.5-10.093-22.5-22.5-22.5zm0 30c-4.136 0-7.5-3.364-7.5-7.5s3.364-7.5 7.5-7.5 7.5 3.364 7.5 7.5-3.364 7.5-7.5 7.5zM136.188 240c0 15.164 12.337 27.5 27.5 27.5s27.5-12.336 27.5-27.5-12.337-27.5-27.5-27.5-27.5 12.336-27.5 27.5zm27.5-12.5c6.893 0 12.5 5.607 12.5 12.5s-5.607 12.5-12.5 12.5-12.5-5.607-12.5-12.5 5.608-12.5 12.5-12.5zM333.486 216c0 15.164 12.337 27.5 27.5 27.5s27.5-12.336 27.5-27.5-12.337-27.5-27.5-27.5-27.5 12.336-27.5 27.5zm27.5-12.5c6.893 0 12.5 5.607 12.5 12.5s-5.607 12.5-12.5 12.5-12.5-5.607-12.5-12.5 5.607-12.5 12.5-12.5zm-247.587 66.754c4.143 0 7.5-3.358 7.5-7.5s-3.357-7.5-7.5-7.5h-.01c-4.142 0-7.495 3.358-7.495 7.5s3.363 7.5 7.505 7.5zm-19.287-14.69a7.5 7.5 0 00-7.5-7.5h-.01c-4.142 0-7.495 3.358-7.495 7.5s3.363 7.5 7.505 7.5c4.143 0 7.5-3.357 7.5-7.5zm4.129 26.872a7.5 7.5 0 00-7.5-7.5h-.01c-4.142 0-7.495 3.358-7.495 7.5s3.363 7.5 7.505 7.5 7.5-3.358 7.5-7.5zm234.85-30.911c-4.142 0-7.495 3.358-7.495 7.5s3.363 7.5 7.505 7.5c4.143 0 7.5-3.358 7.5-7.5s-3.357-7.5-7.5-7.5zm-28.181 10.261h-.01c-4.142 0-7.495 3.358-7.495 7.5s3.363 7.5 7.505 7.5a7.5 7.5 0 000-15zm5.742-26.572h-.01c-4.142 0-7.495 3.358-7.495 7.5s3.363 7.5 7.505 7.5c4.143 0 7.5-3.358 7.5-7.5s-3.357-7.5-7.5-7.5z"/></svg>