<svg height="512" viewBox="0 0 60 50" width="512" xmlns="http://www.w3.org/2000/svg"><g id="Page-1" fill="none" fill-rule="evenodd"><g id="027---Eye-Diagram" fill="#000" fill-rule="nonzero"><path id="Shape" d="M59 18a12.13 12.13 0 01-9.33-5.47 25 25 0 00-41.79-2.34C2.65 12.61 0 17.59 0 25s2.65 12.39 7.88 14.81a25 25 0 0041.79-2.34A12.13 12.13 0 0159 32a1 1 0 001-1V19a1 1 0 00-1-1zM47.93 36.47a23 23 0 01-38.6 2 1 1 0 00-.48-.36C4.3 36 2 31.62 2 25s2.29-11 6.81-13a1 1 0 00.52-.38 23 23 0 0138.6 2A14.19 14.19 0 0058 20v2h-4.71a8.94 8.94 0 01-8.09-5.08A19.11 19.11 0 0028 6a18.91 18.91 0 00-15.58 8.16C9.31 15 7 19.46 7 25s2.31 10 5.42 10.84a19 19 0 0032.78-2.76A8.94 8.94 0 0153.29 28H58v2a14.19 14.19 0 00-10.07 6.47zM58 26h-4.71a11 11 0 00-9.9 6.23c-.08.17-.18.34-.26.5A22.41 22.41 0 0142 25.1a22.17 22.17 0 011.17-7.76c.07.14.15.28.22.43a11 11 0 009.9 6.23H58zM9.68 21C10 21 11 22.38 11 25s-1 4-1.32 4a.57.57 0 01-.24-.14 17.15 17.15 0 010-7.72.57.57 0 01.24-.14zM13 25c0-3.18-1.17-5.56-2.85-5.94C11 17.13 12.29 16 13.5 16c2.17 0 4.5 3.62 4.5 9s-2.33 9-4.5 9c-1.21 0-2.47-1.13-3.35-3.06C11.83 30.56 13 28.18 13 25zm7 0c0-5.38-2.17-9.73-5.14-10.76A17 17 0 0142 15.32C40.91 17 40.2 20 40 23.5c-1.53-.5-3-1.5-3-3.5a12.23 12.23 0 00-.44-3.46.64.64 0 000-.07C35.6 13.41 33.17 12 29 12a1 1 0 000 2c2.51 0 4.1.51 5 1.75a5.8 5.8 0 00-4.38 2.09 3.37 3.37 0 01-.32.33 2.42 2.42 0 01-3.62 0 1 1 0 10-1.38 1.44A4.49 4.49 0 0027.45 21a4.8 4.8 0 003.24-1.39c.13-.12.26-.26.4-.41a4.09 4.09 0 013.72-1.46c.137.745.2 1.502.19 2.26 0 2.45 1.48 4.31 4.1 5.27a10.61 10.61 0 00-3.1 2.35c-2-1.22-4.78-.33-5.93.14l-2.55-1.61a1.002 1.002 0 10-1.06 1.7l2 1.24-1.17 1.22a1 1 0 000 1.42A1 1 0 0028 32a1 1 0 00.73-.31l1.86-2c.91-.42 3-1.09 4.27-.42a8.35 8.35 0 00-.86 2.57 6.1 6.1 0 01-2.62 4.22 4.52 4.52 0 01-4 0 1 1 0 00-.74 1.86 7.71 7.71 0 002.9.6 5.76 5.76 0 002.84-.73A8.07 8.07 0 0036 32.16 6.93 6.93 0 0140.06 27a18 18 0 001.84 7.73A17.11 17.11 0 0128 42a16.93 16.93 0 01-13.14-6.24C17.83 34.73 20 30.37 20 25z"/></g></g></svg>