<svg id="Capa_1" height="512" width="512" xmlns="http://www.w3.org/2000/svg"><path d="M356.811 157.956h-9.994c-25.84 0-46.862 21.023-46.862 46.863v37.807c0 4.142 3.357 7.5 7.5 7.5s7.5-3.358 7.5-7.5v-37.807c0-17.569 14.293-31.863 31.862-31.863h9.994c77.3 0 140.189 62.889 140.189 140.189v148.973c0 17.569-14.293 31.862-31.862 31.862H400.59c-4.143 0-7.5 3.358-7.5 7.5s3.357 7.5 7.5 7.5h64.548c25.84 0 46.862-21.022 46.862-46.862V313.146c0-85.572-69.617-155.19-155.189-155.19z"/><path d="M396.728 414.948l-2.719-14.085 28.061 16.107c11.06 6.349 25.225 2.517 31.574-8.543a22.977 22.977 0 002.269-17.559 22.982 22.982 0 00-10.811-14.02l-58.482-33.572 18.412-5.455c5.923-1.754 10.809-5.71 13.756-11.14s3.604-11.681 1.85-17.603c-3.622-12.228-16.52-19.226-28.742-15.607l-60.708 17.98-16.231-9.318v-26.822c0-4.142-3.357-7.5-7.5-7.5s-7.5 3.358-7.5 7.5v18.211l-20.826-11.955V151.48h9.171c4.143 0 7.5-3.358 7.5-7.5s-3.357-7.5-7.5-7.5h-9.171v-35.013h9.171c4.143 0 7.5-3.358 7.5-7.5s-3.357-7.5-7.5-7.5h-9.171V51.454h9.171c4.143 0 7.5-3.358 7.5-7.5s-3.357-7.5-7.5-7.5h-9.171V15.729c0-7.008-5.701-12.71-12.71-12.71h-20.838c-7.008 0-12.71 5.701-12.71 12.71v20.725H223.7c-4.143 0-7.5 3.358-7.5 7.5s3.357 7.5 7.5 7.5h9.171v35.013H223.7c-4.143 0-7.5 3.358-7.5 7.5s3.357 7.5 7.5 7.5h9.171v35.013H223.7c-4.143 0-7.5 3.358-7.5 7.5s3.357 7.5 7.5 7.5h9.171v130.1l-20.826 11.956V204.82c0-25.84-21.022-46.863-46.862-46.863h-9.994C69.617 157.956 0 227.574 0 313.146v148.973c0 25.84 21.022 46.862 46.862 46.862h118.32c25.84 0 46.862-21.022 46.862-46.862v-10.827c0-4.142-3.357-7.5-7.5-7.5s-7.5 3.358-7.5 7.5v10.827c0 17.569-14.293 31.862-31.862 31.862H46.862C29.293 493.98 15 479.687 15 462.118V313.146c0-77.3 62.889-140.189 140.189-140.189h9.994c17.569 0 31.862 14.294 31.862 31.863v97.327l-16.189 9.294-60.634-17.966a22.97 22.97 0 00-17.604 1.849 22.974 22.974 0 00-11.14 13.755c-1.754 5.923-1.098 12.174 1.85 17.603s7.833 9.385 13.755 11.139l18.342 5.434-73.656 42.283a22.98 22.98 0 00-10.811 14.019 22.973 22.973 0 002.271 17.557c6.351 11.056 20.516 14.884 31.566 8.538l43.315-24.865-2.729 14.164c-2.414 12.523 5.811 24.675 18.333 27.089 6.067 1.17 12.227-.093 17.344-3.556s8.579-8.712 9.748-14.778l10.28-53.326 25.958-14.901v63.125c0 4.142 3.357 7.5 7.5 7.5s7.5-3.358 7.5-7.5V346.87L256 321.638l43.955 25.232v115.248c0 25.84 21.022 46.862 46.862 46.862h21.086c4.143 0 7.5-3.358 7.5-7.5s-3.357-7.5-7.5-7.5h-21.086c-17.569 0-31.862-14.293-31.862-31.862V355.481l26.083 14.973 10.27 53.256a22.977 22.977 0 009.748 14.777c3.872 2.62 8.34 3.98 12.914 3.98 1.47 0 2.951-.141 4.427-.425a22.973 22.973 0 0014.777-9.749 22.977 22.977 0 003.554-17.345zM247.871 18.02h16.258v18.435h-16.258zm0 33.434h16.258v35.013h-16.258zm0 50.013h16.258v35.013h-16.258zm139.405 278.236a7.499 7.499 0 00-11.098 7.926L382 417.79a8.079 8.079 0 01-1.249 6.096 8.077 8.077 0 01-5.194 3.427 8.07 8.07 0 01-6.095-1.25 8.076 8.076 0 01-3.426-5.193l-10.647-55.222a10.616 10.616 0 00-5.145-7.206l-88.954-51.064a10.634 10.634 0 00-5.291-1.405 10.62 10.62 0 00-5.288 1.405l-88.827 50.989a10.618 10.618 0 00-5.146 7.206l-10.659 55.294a8.075 8.075 0 01-3.427 5.195 8.08 8.08 0 01-6.097 1.25c-4.401-.849-7.293-5.12-6.444-9.522l4.535-23.539c.796-4.13-.837-8.214-4.26-10.658-3.426-2.445-7.817-2.66-11.463-.567l-51.596 29.618c-3.886 2.229-8.861.884-11.093-3.001a8.077 8.077 0 01-.798-6.169 8.071 8.071 0 013.8-4.926l82.515-47.369c3.692-2.12 5.758-6.222 5.263-10.451s-3.453-7.743-7.535-8.952l-28.136-8.335c-4.296-1.273-6.756-5.803-5.482-10.1a8.07 8.07 0 013.914-4.833 8.07 8.07 0 016.186-.65l62.428 18.498c2.774.824 5.804.468 8.312-.972l55.836-32.055a10.651 10.651 0 005.336-9.215V151.48h16.258v132.622c0 3.794 2.044 7.324 5.336 9.215l55.88 32.078a10.68 10.68 0 008.306.972l62.504-18.512c4.289-1.273 8.827 1.187 10.101 5.485.616 2.081.386 4.278-.65 6.186s-2.752 3.298-4.834 3.915l-28.206 8.356c-4.083 1.209-7.041 4.723-7.536 8.952s1.571 8.332 5.264 10.452l67.341 38.658a8.08 8.08 0 013.801 4.928 8.083 8.083 0 01-.797 6.173c-2.232 3.889-7.209 5.234-11.1 3.003z"/></svg>