<svg id="Capa_1" height="512" width="512" xmlns="http://www.w3.org/2000/svg"><path d="M512 268.852c0-40.482-24.796-76.206-60.418-89.21a60.795 60.795 0 002.612-17.627c0-32.133-24.994-58.275-55.715-58.275-5.822 0-11.526.934-16.961 2.75-4.978-23.599-25.153-41.308-49.213-41.308-4.676 0-9.238.654-13.643 1.952-13.114-20.242-34.84-32.476-58.614-32.476-35.214 0-64.516 27.038-70.004 62.345a64.477 64.477 0 00-12.903-1.295 64.482 64.482 0 00-25.946 5.458c-9.291-12.227-21.977-21.063-36.511-25.272-5.34-1.542-10.934 1.53-12.483 6.877-1.548 5.346 1.53 10.935 6.877 12.483 12.543 3.633 23.206 12.187 30.027 24.088 2.81 4.902 9.356 6.53 14.136 3.504 7.213-4.567 15.478-6.983 23.9-6.983a44.068 44.068 0 0118.003 3.821c3.672 1.63 8.09.874 11.011-1.885 2.569-2.427 3.122-5.439 3.122-8.8 0-29.878 22.776-54.186 50.772-54.186 19.058 0 36.348 11.25 45.12 29.359 2.452 5.059 8.822 7.147 13.795 4.508 4.179-2.218 8.668-3.343 13.343-3.343 16.672 0 30.235 14.578 30.235 32.497 0 4.658-.709 8.847 3.235 12.266 3.517 3.049 8.831 3.269 12.583.5 5.943-4.386 12.9-6.705 20.121-6.705 19.607 0 35.56 17.101 35.56 38.119 0 6.793-1.699 13.471-4.911 19.312-3.207 5.83.242 13.329 6.727 14.713 32.444 6.922 55.991 37.544 55.991 72.812 0 40.952-31.306 74.268-69.787 74.268-5.803 0-11.886-1.333-15.422 4.581-3.104 5.19.02 11.904.02 17.546 0 22.348-16.976 40.53-37.841 40.53-9.363 0-18.352-3.697-25.31-10.409-4.491-4.334-12.079-3.459-15.463 1.784-1.6 2.479-1.868 5.291-1.257 8.12.821 3.8 1.526 7.473 1.526 11.386 0 22.348-16.976 40.53-37.841 40.53-16.4 0-30.851-11.214-35.959-27.906-2.086-6.813-10.771-9.351-16.192-4.704-7.729 6.619-17.049 10.118-26.952 10.118-18.755 0-35.253-12.81-41.051-31.876-2.064-6.784-10.69-9.365-16.135-4.774-8.497 7.161-18.707 10.945-29.524 10.945-26.317 0-47.729-22.866-47.729-50.972 0-7.87 1.636-15.417 4.863-22.43 2.44-5.305-.297-11.765-5.792-13.712-14.913-5.28-24.933-20.132-24.933-36.957 0-4.836.827-9.571 2.457-14.072 2.094-5.777-1.64-12.257-7.679-13.35-14.885-2.696-25.689-16.439-25.689-32.681 0-16.418 10.937-30.187 26.006-32.742 6.885-1.167 10.562-9.172 6.935-15.158-5.31-8.763-8.115-18.915-8.115-29.36 0-6.814 1.168-13.454 3.473-19.735 1.916-5.226-.766-11.016-5.991-12.933-5.228-1.914-11.016.767-12.933 5.991-3.122 8.512-4.705 17.487-4.705 26.678 0 9.852 1.855 19.528 5.426 28.522C12.156 184.421 0 203.216 0 224.816c0 22.14 12.889 41.443 31.837 49.42a61.735 61.735 0 00-.926 10.682c0 21.722 11.325 41.346 29.006 51.627-2.089 6.9-3.144 14.088-3.144 21.472 0 39.22 30.453 71.128 67.884 71.128 10.985 0 21.814-2.832 31.475-8.124 11.023 20.66 31.907 33.829 55.235 33.829 10.157 0 20.151-2.584 29.09-7.421 10.238 18.302 29.056 29.912 50.014 29.912 30.258 0 55.178-24.374 57.774-55.341a55.703 55.703 0 0020.57 3.931c16.282 0 30.886-7.181 41.562-18.401 17.449-18.337 16.423-43.685 16.4-44.384 47.409-2.584 85.223-43.89 85.223-94.294z"/><path d="M181.108 332.182c-9.219 12.764-12.676 26.316-12.819 26.886-1.331 5.322 2.009 10.891 7.332 12.221 5.324 1.33 10.89-2.008 12.221-7.332.026-.102 2.745-10.476 9.604-19.975 8.611-11.923 19.264-16.776 32.572-14.824 5.505.815 10.626-3.005 11.431-8.512.806-5.507-3.005-10.625-8.512-11.431-20.859-3.054-38.776 4.89-51.829 22.967zm191.384-87.198c-4.757-2.893-10.956-1.377-13.845 3.38-10.943 18.01-10.62 37.612.933 56.683 8.158 13.467 19.288 21.936 19.759 22.29 4.767 3.591 11.745 2.146 14.759-2.968 2.561-4.345 1.392-10.099-2.632-13.131-.084-.063-8.576-6.613-14.646-16.634-7.62-12.579-7.93-24.281-.948-35.774 2.89-4.757 1.376-10.956-3.38-13.846zm-244.696-32.823c-4.425 2.704-6.084 8.543-3.729 13.167 2.627 5.159 9.292 7.054 14.24 4.032 22.339-13.652 28.359-32.161 29.476-45.285 1.172-13.772-2.72-24.267-3.168-25.418-2.019-5.188-7.86-7.758-13.045-5.741-5.188 2.018-7.758 7.859-5.741 13.045.028.069 2.645 7.3 1.871 16.405-1.05 12.342-7.747 22.365-19.904 29.795zm186.729-88.551c-5.01-2.426-11.035-.335-13.463 4.675-11.416 23.561-6.477 42.388-.323 54.033 6.459 12.22 15.407 18.946 16.406 19.672 4.823 3.51 11.778 1.948 14.707-3.215 2.488-4.387 1.223-10.122-2.852-13.085-.06-.043-6.172-4.712-10.441-12.791-5.787-10.951-5.571-23.005.641-35.826 2.427-5.009.333-11.036-4.675-13.463z"/><circle cx="147.496" cy="274.508" r="10"/><circle cx="309.732" cy="331.991" r="10"/><circle cx="236.501" cy="173.434" r="10"/><circle cx="79.749" cy="226.334" r="10.078"/><circle cx="67.824" cy="90.284" r="10"/><circle cx="440.442" cy="268.451" r="10"/><circle cx="246.652" cy="252.452" r="10"/><circle cx="282.932" cy="384.807" r="10"/><circle cx="395.803" cy="173.174" r="10"/><path d="M285.92 241.552l12.396 28.31c2.322 5.305 8.863 7.576 13.983 4.846 4.579-2.442 6.561-8.18 4.48-12.93l-12.396-28.31c-2.233-5.099-8.18-7.422-13.273-5.189-5.099 2.231-7.423 8.175-5.19 13.273zm-179.292 80.383c.495 5.217 4.884 9.126 10.021 9.126.319 0 31.73-2.966 31.73-2.966 5.542-.526 9.607-5.443 9.081-10.984-.526-5.542-5.44-9.593-10.985-9.081l-30.766 2.92c-5.542.525-9.608 5.443-9.081 10.985zm158.2-189.856c5.421-1.266 8.789-6.685 7.523-12.105l-7.027-30.096c-1.266-5.421-6.687-8.79-12.105-7.523-5.421 1.266-8.789 6.685-7.523 12.105l7.027 30.096c1.247 5.342 6.761 8.772 12.105 7.523z"/></svg>