<svg id="Capa_1" height="512" width="512" xmlns="http://www.w3.org/2000/svg"><path d="M220.007 281.505a7.489 7.489 0 005.028-9.322 28.915 28.915 0 00-7.407-12.346 14.034 14.034 0 016.006-3.64 7.489 7.489 0 005.028-9.322 7.487 7.487 0 00-9.322-5.028 28.919 28.919 0 00-14.98 10.486c-5.056-1.298-10.386-1.205-15.516.331-3.963 1.186-6.214 5.359-5.028 9.322s5.361 6.215 9.322 5.028c7.449-2.228 15.318 2.018 17.546 9.463 1.192 3.982 5.381 6.209 9.323 5.028zm81.176-5.028a14.004 14.004 0 016.813-8.365 14.004 14.004 0 0110.733-1.098 7.488 7.488 0 009.322-5.028 7.489 7.489 0 00-5.028-9.322 28.897 28.897 0 00-15.503-.313 28.918 28.918 0 00-14.993-10.503 7.49 7.49 0 10-4.294 14.35 14.026 14.026 0 016.017 3.651 28.884 28.884 0 00-7.417 12.335 7.489 7.489 0 005.028 9.322c3.938 1.179 8.13-1.044 9.322-5.029z"/><path d="M169.276 389.708a160.346 160.346 0 01-25.971-21.057c-62.104-62.105-62.104-163.155 0-225.26 44.905-44.904 112.098-58.857 171.182-35.546a7.49 7.49 0 005.497-13.933 174.235 174.235 0 00-56.56-12.021V63.375c14.018-3.381 24.466-16.019 24.466-31.06 0-17.62-14.335-31.955-31.955-31.955S223.98 14.695 223.98 32.315c0 15.041 10.448 27.68 24.466 31.06V81.89c-42.756 1.853-84.251 19.428-115.732 50.909a175.374 175.374 0 00-10.469 11.456H60.453c-11.584 0-21.008-9.424-21.008-21.008V63.375c14.018-3.381 24.466-16.019 24.466-31.06C63.911 14.695 49.576.36 31.956.36S0 14.694 0 32.315c0 15.041 10.448 27.68 24.466 31.06v59.873c0 19.843 16.144 35.987 35.987 35.987h50.559c-18.058 27.02-27.755 58.009-29.09 89.296H63.015c-3.38-14.018-16.019-24.466-31.06-24.466C14.335 224.064 0 238.399 0 256.02s14.335 31.955 31.955 31.955c15.041 0 27.68-10.448 31.06-24.466h18.907c1.343 31.511 11.172 62.718 29.48 89.875H60.453c-19.843 0-35.987 16.143-35.987 35.986v59.255C10.448 452.006 0 464.645 0 479.685c0 17.62 14.335 31.955 31.955 31.955s31.955-14.335 31.955-31.955c0-15.041-10.448-27.68-24.466-31.06V389.37c0-11.584 9.424-21.008 21.008-21.008h62.272a175.328 175.328 0 009.988 10.88 175.415 175.415 0 0028.402 23.026 7.488 7.488 0 0010.36-2.2 7.487 7.487 0 00-2.198-10.36zm69.682-357.393c0-9.361 7.615-16.976 16.976-16.976s16.976 7.615 16.976 16.976-7.615 16.976-16.976 16.976-16.976-7.615-16.976-16.976zM31.955 49.291c-9.361 0-16.976-7.615-16.976-16.976s7.615-16.976 16.976-16.976 16.976 7.615 16.976 16.976-7.615 16.976-16.976 16.976zm0 223.705c-9.361 0-16.976-7.615-16.976-16.976s7.615-16.976 16.976-16.976 16.976 7.615 16.976 16.976c0 9.36-7.615 16.976-16.976 16.976zm16.976 206.689c0 9.361-7.615 16.976-16.976 16.976s-16.976-7.615-16.976-16.976 7.615-16.976 16.976-16.976 16.976 7.615 16.976 16.976z"/><path d="M216.467 374.728c4.419 1.941 9.144 2.926 14.045 2.926 9.938 0 19.209-4.212 25.421-11.158 6.212 6.946 15.483 11.158 25.421 11.158 4.902 0 9.626-.984 14.046-2.926 1.675.152 3.364.229 5.022.229 25.445 0 47.302-17.328 51.496-40.536.326-1.293.191-3.8 2.684-6.034 15.788-14.157 18.144-32.258 10.173-47.87 12.534-15.319 11.92-36.931-1.85-51.596 7.127-18.528-1.82-39.779-21.968-48.182.171-1.355.257-2.725.257-4.091 0-18.953-16.293-34.41-36.515-34.744-6.541-19.659-33.889-26.202-48.766-9.745-14.636-16.187-42.084-10.333-48.765 9.744-20.19.302-36.515 15.772-36.515 34.745 0 1.366.086 2.736.257 4.091-20.137 8.398-29.098 29.648-21.968 48.181-13.766 14.661-14.39 36.271-1.851 51.597-7.943 15.561-5.675 33.66 10.174 47.87 2.482 2.226 2.377 4.814 2.683 6.03 4.193 23.211 26.05 40.54 51.497 40.54a55.016 55.016 0 005.022-.229zm46.956-50.927c0-5.307 4.318-9.625 9.625-9.625s9.625 4.318 9.625 9.625a7.49 7.49 0 0014.978 0c0-13.567-11.037-24.604-24.604-24.604-3.414 0-6.667.7-9.625 1.962V184.038a11.443 11.443 0 0114.672-2.661 7.49 7.49 0 007.558-12.932c-6.634-3.877-14.635-4.768-22.23-2.074v-14.626c0-17.011 23.319-18.372 27.211-4.633 1.629 5.752 7.138 9.767 13.45 9.766h.013c20.154 0 29.334 21.761 15.563 35.016a21.268 21.268 0 01-13.129 5.916 29.96 29.96 0 00-16.368-4.85 7.49 7.49 0 000 14.978c8.365 0 15.17 6.805 15.17 15.17a7.49 7.49 0 0014.978 0c0-4.477-.988-8.725-2.747-12.549a36.313 36.313 0 0012.482-7.873 36.602 36.602 0 006.098-7.702c12.105 5.595 17.187 18.358 12.488 29.328-2.091 4.878-1.004 10.466 2.768 14.237 9.255 9.252 9.914 23.206 1.235 33.131-3.693 4.223-4.313 10.087-1.579 14.941 4.141 7.352 4.466 16.809-1.145 24.715-4.155-11.847-13.005-21.547-24.959-26.227a7.49 7.49 0 00-5.461 13.949c12.322 4.824 19.59 18.001 17.79 32.131-2.825 17.559-20.621 30.499-40.672 28.61a14.33 14.33 0 00-7.145 1.179c-2.533 1.127-5.261 1.699-8.108 1.699-9.338 0-17.932-6.514-17.932-15.497v-23.379zm-88.833 7.403c-1.809-14.135 5.461-27.321 17.788-32.147a7.49 7.49 0 10-5.461-13.949c-11.955 4.68-20.805 14.38-24.959 26.228-5.561-7.835-5.333-17.28-1.145-24.716 2.733-4.853 2.114-10.717-1.579-14.94-8.685-9.932-8.015-23.884 1.235-33.131 3.771-3.77 4.857-9.358 2.768-14.236-4.709-10.991.4-23.743 12.487-29.329a36.538 36.538 0 006.098 7.702 36.31 36.31 0 0012.482 7.874 29.964 29.964 0 00-2.747 12.549 7.49 7.49 0 0014.978 0c0-8.365 6.805-15.17 15.17-15.17a7.49 7.49 0 000-14.978 29.967 29.967 0 00-16.367 4.849 21.29 21.29 0 01-13.131-5.915c-13.813-13.295-4.53-35.016 15.613-35.016h.012c6.261 0 11.77-4.014 13.401-9.766 3.889-13.731 27.21-12.381 27.21 4.633v14.626c-7.567-2.684-15.569-1.818-22.23 2.074a7.49 7.49 0 007.558 12.932c4.94-2.887 11.164-1.641 14.672 2.665v117.118a24.47 24.47 0 00-9.625-1.962c-13.566 0-24.604 11.037-24.604 24.604a7.49 7.49 0 0014.978 0c0-5.307 4.318-9.625 9.625-9.625s9.625 4.318 9.625 9.625v23.377c0 8.971-8.581 15.497-17.932 15.497-2.846 0-5.574-.571-8.107-1.698-4.36-1.941-7.164-.998-10.961-.998-18.441-.002-34.2-12.345-36.852-28.777z"/><path d="M448.984 263.509c3.38 14.018 16.019 24.467 31.06 24.467 17.62 0 31.956-14.335 31.956-31.955s-14.335-31.955-31.956-31.955c-15.04 0-27.679 10.447-31.06 24.464h-18.957c-1.355-32.244-11.434-62.922-29.121-89.296h50.509c19.843 0 35.986-16.144 35.986-35.987V63.405C501.486 60.072 512 47.402 512 32.315 512 14.695 497.665.36 480.044.36s-31.955 14.335-31.955 31.955c0 14.994 10.382 27.602 24.334 31.03v59.903c0 11.584-9.424 21.008-21.008 21.008h-61.78a175.53 175.53 0 00-37.118-33.32 7.49 7.49 0 00-8.314 12.46 160.574 160.574 0 0124.359 19.995c62.104 62.105 62.104 163.155 0 225.26-44.345 44.344-110.873 58.554-169.487 36.203a7.49 7.49 0 00-5.338 13.996 173.84 173.84 0 0054.705 11.263v18.512c-14.018 3.38-24.466 16.019-24.466 31.06 0 17.62 14.335 31.955 31.955 31.955s31.955-14.335 31.955-31.955c0-15.041-10.448-27.68-24.466-31.06v-18.532c42.789-1.883 84.344-19.463 115.732-50.851a177.533 177.533 0 009.996-10.88h62.264c11.584 0 21.008 9.424 21.008 21.008v59.286c-13.951 3.428-24.334 16.036-24.334 31.03 0 17.62 14.335 31.955 31.955 31.955S512 497.306 512 479.685c0-15.088-10.514-27.758-24.598-31.09V389.37c0-19.843-16.143-35.986-35.986-35.986h-50.904c17.929-26.504 28.152-57.393 29.516-89.875zm31.06-24.464c9.361 0 16.977 7.615 16.977 16.976s-7.616 16.976-16.977 16.976-16.976-7.615-16.976-16.976 7.616-16.976 16.976-16.976zm-16.976-206.73c0-9.361 7.615-16.976 16.976-16.976s16.977 7.615 16.977 16.976-7.616 16.976-16.977 16.976c-9.36 0-16.976-7.615-16.976-16.976zM272.91 479.685c0 9.361-7.615 16.976-16.976 16.976s-16.976-7.615-16.976-16.976 7.615-16.976 16.976-16.976 16.976 7.615 16.976 16.976zm207.134-16.976c9.361 0 16.977 7.615 16.977 16.976s-7.616 16.976-16.977 16.976-16.976-7.615-16.976-16.976 7.616-16.976 16.976-16.976z"/></svg>