<svg id="_x3C_Layer_x3E_" height="512" viewBox="0 0 32 32" width="512" xmlns="http://www.w3.org/2000/svg"><g id="lungs_x2C__Organ"><path d="M28.501 30.729c-.245 0-.493-.036-.736-.11l-3.763-1.161A8.455 8.455 0 0118 21.33V10.675a.5.5 0 011 0V21.33a7.458 7.458 0 005.297 7.172l3.761 1.161A1.506 1.506 0 0030 28.23v-8.27c0-4.913-2.165-9.533-5.94-12.676l-1.78-1.48a1.958 1.958 0 00-2.127-.277A1.958 1.958 0 0019 7.34V8.5a.5.5 0 11-1 0V7.34c0-1.178.663-2.22 1.729-2.719a2.97 2.97 0 013.191.415l1.78 1.479A17.447 17.447 0 0131 19.96v8.27c0 .796-.368 1.526-1.008 2.001-.441.328-.96.498-1.491.498z"/><path d="M24.5 21h-1.082a3.399 3.399 0 01-3.057-1.89c-.236-.47-.361-1-.361-1.528v-3.041a.5.5 0 011 0v3.041c0 .374.088.748.255 1.081A2.406 2.406 0 0023.418 20H24.5a.5.5 0 010 1z" id="XMLID_5_"/><path d="M22.451 22.729a.5.5 0 01-.468-.324l-.836-2.23a.501.501 0 01.936-.352l.836 2.23a.501.501 0 01-.468.676z" id="XMLID_2_"/><path d="M23.574 16.899a.5.5 0 01-.374-.832l1.393-1.572a.5.5 0 11.748.664l-1.393 1.572a.498.498 0 01-.374.168z" id="XMLID_1_"/><path d="M26 17h-4c-1.103 0-2-.897-2-2v-1.5c0-1.378-1.122-2.5-2.5-2.5-.827 0-1.5-.673-1.5-1.5v-8a.5.5 0 011 0v8a.5.5 0 00.5.5c1.93 0 3.5 1.57 3.5 3.5V15c0 .551.449 1 1 1h4a.5.5 0 010 1z"/><path d="M21.5 15c-.827 0-1.5-.673-1.5-1.5a.5.5 0 011 0 .5.5 0 001 0v-1a.5.5 0 011 0v1c0 .827-.673 1.5-1.5 1.5zM3.498 30.728a2.485 2.485 0 01-1.49-.497A2.471 2.471 0 011 28.23v-8.27A17.443 17.443 0 017.3 6.516l1.78-1.48a2.97 2.97 0 013.19-.415A2.974 2.974 0 0114 7.34V8.5a.5.5 0 11-1 0V7.34c0-.797-.431-1.475-1.153-1.813a1.958 1.958 0 00-2.126.276L7.94 7.284A16.449 16.449 0 002 19.96v8.27c0 .477.22.914.604 1.199.388.288.876.373 1.341.233l3.757-1.159A7.46 7.46 0 0013 21.33V10.675a.5.5 0 011 0V21.33a8.454 8.454 0 01-6.004 8.128l-3.759 1.16c-.244.074-.493.11-.739.11z"/><path d="M8.582 21H7.5a.5.5 0 010-1h1.082c.921 0 1.75-.512 2.162-1.337.168-.333.256-.707.256-1.081v-3.041a.5.5 0 011 0v3.041c0 .529-.125 1.058-.362 1.529A3.397 3.397 0 018.582 21z" id="XMLID_7_"/><path d="M9.549 22.729a.5.5 0 01-.468-.676l.836-2.23a.5.5 0 11.936.352l-.836 2.23a.5.5 0 01-.468.324z" id="XMLID_414_"/><path d="M8.426 16.899a.5.5 0 01-.374-.168l-1.393-1.572a.5.5 0 01.748-.664L8.8 16.068a.5.5 0 01-.374.831z" id="XMLID_416_"/><path d="M10 17H6a.5.5 0 010-1h4c.551 0 1-.449 1-1v-1.5c0-1.93 1.57-3.5 3.5-3.5a.5.5 0 00.5-.5v-8a.5.5 0 011 0v8c0 .827-.673 1.5-1.5 1.5a2.503 2.503 0 00-2.5 2.5V15c0 1.103-.897 2-2 2z"/><path d="M10.5 15c-.827 0-1.5-.673-1.5-1.5v-1a.5.5 0 011 0v1a.5.5 0 001 0 .5.5 0 011 0c0 .827-.673 1.5-1.5 1.5z"/><path d="M27.6 25h-.1a.5.5 0 010-1c.276 0 .55.224.55.5s-.174.5-.45.5z" id="XMLID_16_"/><path d="M24.6 24h-.1a.5.5 0 010-1c.276 0 .55.224.55.5s-.174.5-.45.5z" id="XMLID_14_"/><path d="M26.6 21h-.1a.5.5 0 010-1c.276 0 .55.224.55.5s-.174.5-.45.5z" id="XMLID_11_"/><path d="M27.6 18h-.1a.5.5 0 010-1c.276 0 .55.224.55.5s-.174.5-.45.5z" id="XMLID_8_"/><path d="M26.6 14h-.1a.5.5 0 010-1c.276 0 .55.224.55.5s-.174.5-.45.5z" id="XMLID_6_"/><path d="M4.5 25c-.276 0-.55-.224-.55-.5s.174-.5.45-.5h.1a.5.5 0 010 1z" id="XMLID_46_"/><path d="M7.5 24c-.276 0-.55-.224-.55-.5s.174-.5.45-.5h.1a.5.5 0 010 1z" id="XMLID_38_"/><path d="M5.5 21c-.276 0-.55-.224-.55-.5s.174-.5.45-.5h.1a.5.5 0 010 1z" id="XMLID_21_"/><path d="M4.5 18c-.276 0-.55-.224-.55-.5s.174-.5.45-.5h.1a.5.5 0 010 1z" id="XMLID_20_"/><path d="M5.5 14c-.276 0-.55-.224-.55-.5s.174-.5.45-.5h.1a.5.5 0 010 1z" id="XMLID_17_"/></g></svg>