<svg id="Capa_1" height="512" viewBox="0 0 512.192 512.192" width="512" xmlns="http://www.w3.org/2000/svg"><path d="M174.594 68.271a23.872 23.872 0 0012.103-20.747V7.5a7.5 7.5 0 00-15 0v40.024a8.848 8.848 0 01-4.486 7.69L98.514 94.067c-29.617 16.75-52.49 42.109-66.146 73.337a7.498 7.498 0 003.867 9.876 7.5 7.5 0 009.876-3.867c12.345-28.229 33.019-51.151 59.786-66.29zM35.337 247.151a140.75 140.75 0 011.624-44.524 7.5 7.5 0 00-5.907-8.81 7.499 7.499 0 00-8.81 5.907 155.755 155.755 0 00-1.794 49.261l3.642 29.575v151.354a7.5 7.5 0 0015 0V278.1a7.6 7.6 0 00-.056-.917zm93.482 205.443c-4.124-.283-7.715 2.829-8.002 6.961l-3.104 44.615a7.499 7.499 0 007.489 8.021 7.5 7.5 0 007.474-6.98l3.104-44.615a7.5 7.5 0 00-6.961-8.002zm3.255-98.573c-4.839-20.363-7.299-62.294-7.299-62.294v-68.938a7.5 7.5 0 00-15 0v107.667c0 14.441-3.019 28.435-8.974 41.593a7.5 7.5 0 1013.666 6.184 116.66 116.66 0 004.902-12.794l.64 2.692a157.052 157.052 0 013.88 47.265l-.849 12.197a7.499 7.499 0 007.489 8.021 7.5 7.5 0 007.474-6.98l.849-12.197c1.21-17.391-.22-34.81-4.25-51.773zm205.504-285.75l40.033 22.642a7.5 7.5 0 0010.221-2.836 7.5 7.5 0 00-2.836-10.221l-40.034-22.642a8.846 8.846 0 01-4.485-7.69V7.5c0-4.142-3.357-7.5-7.5-7.5s-7.5 3.358-7.5 7.5v40.024a23.872 23.872 0 0012.101 20.747zm76.081 25.795l-.754-.426a7.5 7.5 0 00-7.383 13.057l.753.426c49.868 28.204 77.565 83.168 70.562 140.028l-3.698 30.031a7.39 7.39 0 00-.057.917v151.814c0 4.142 3.357 7.5 7.5 7.5s7.5-3.358 7.5-7.5V278.56l3.642-29.574c7.748-62.907-22.894-123.716-78.065-154.92zm-20.078 397.489c-.286-4.132-3.881-7.246-8.002-6.961a7.5 7.5 0 00-6.961 8.002l.878 12.616a7.499 7.499 0 008.002 6.961 7.5 7.5 0 006.961-8.002zm-6.182-199.828a269.82 269.82 0 01-7.3 62.295l-2.528 10.641a172.816 172.816 0 00-3.646 21.175 7.5 7.5 0 0014.912 1.624c.71-6.524 1.83-13.028 3.328-19.331l.639-2.691a116.792 116.792 0 004.903 12.794 7.501 7.501 0 009.926 3.741 7.5 7.5 0 003.74-9.925c-5.954-13.156-8.974-27.15-8.974-41.593V222.79c0-4.142-3.357-7.5-7.5-7.5s-7.5 3.358-7.5 7.5zM207.524 135.489a7.5 7.5 0 00-7.5 7.5v38.264c0 13.39-2.966 26.893-8.576 39.049l-5.955 12.901a7.5 7.5 0 0013.619 6.286l5.955-12.901c6.514-14.114 9.957-29.79 9.957-45.335v-38.264a7.5 7.5 0 00-7.5-7.5zm105.536 104a7.501 7.501 0 006.814 4.359 7.5 7.5 0 006.805-10.645l-5.954-12.901c-5.61-12.155-8.576-25.658-8.576-39.049v-38.264c0-4.142-3.357-7.5-7.5-7.5s-7.5 3.358-7.5 7.5v38.264c0 15.546 3.443 31.223 9.957 45.335zm-68.498-134.766c12.472 0 22.618-10.146 22.618-22.618s-10.146-22.618-22.618-22.618-22.618 10.146-22.618 22.618 10.146 22.618 22.618 22.618zm0-30.236c4.201 0 7.618 3.417 7.618 7.618s-3.417 7.618-7.618 7.618-7.618-3.417-7.618-7.618 3.417-7.618 7.618-7.618zm-69.991 120.437c0-11.969-9.737-21.707-21.707-21.707-11.969 0-21.706 9.737-21.706 21.707 0 11.969 9.737 21.706 21.706 21.706 11.97 0 21.707-9.737 21.707-21.706zm-21.706 6.706c-3.698 0-6.706-3.008-6.706-6.706s3.008-6.707 6.706-6.707 6.707 3.008 6.707 6.707a6.715 6.715 0 01-6.707 6.706zm199.898 79.126c0-10.911-8.876-19.787-19.786-19.787-10.911 0-19.787 8.876-19.787 19.787s8.876 19.787 19.787 19.787c10.91 0 19.786-8.876 19.786-19.787zm-19.786 4.787c-2.64 0-4.787-2.147-4.787-4.787s2.147-4.787 4.787-4.787c2.639 0 4.786 2.147 4.786 4.787s-2.147 4.787-4.786 4.787zm-93.599 46.043c13.348 0 24.208-10.86 24.208-24.208s-10.86-24.208-24.208-24.208-24.208 10.86-24.208 24.208 10.86 24.208 24.208 24.208zm0-33.416c5.077 0 9.208 4.131 9.208 9.208s-4.131 9.208-9.208 9.208-9.208-4.131-9.208-9.208 4.131-9.208 9.208-9.208zm-56.968 87.762c-12.018 0-21.795 9.777-21.795 21.794s9.777 21.795 21.795 21.795 21.795-9.777 21.795-21.795-9.777-21.794-21.795-21.794zm0 28.589c-3.747 0-6.795-3.048-6.795-6.795s3.048-6.794 6.795-6.794 6.795 3.048 6.795 6.794-3.048 6.795-6.795 6.795zm115.554-72.575c-12.018 0-21.795 9.777-21.795 21.795s9.777 21.795 21.795 21.795 21.795-9.777 21.795-21.795-9.777-21.795-21.795-21.795zm0 28.59c-3.747 0-6.795-3.048-6.795-6.795s3.048-6.795 6.795-6.795 6.795 3.048 6.795 6.795-3.048 6.795-6.795 6.795zm-11.638 76.398h-1.412a27.206 27.206 0 00-2.855-10.272l2.451-2.451a7.5 7.5 0 00-10.607-10.606l-2.007 2.007a27.316 27.316 0 00-6.835-3.003v-2.587a7.5 7.5 0 00-15 0v2.587a27.3 27.3 0 00-6.835 3.003l-2.007-2.007a7.5 7.5 0 00-10.606 0 7.5 7.5 0 000 10.606l2.451 2.451a27.243 27.243 0 00-2.855 10.272h-1.412a7.5 7.5 0 000 15h1.412a27.206 27.206 0 002.855 10.272l-2.451 2.451a7.5 7.5 0 005.303 12.803 7.474 7.474 0 005.303-2.197l2.007-2.007a27.316 27.316 0 006.835 3.003v2.587a7.5 7.5 0 0015 0v-2.587a27.28 27.28 0 006.835-3.003l2.007 2.007c1.465 1.464 3.385 2.197 5.304 2.197s3.839-.732 5.304-2.197a7.5 7.5 0 000-10.606l-2.451-2.451a27.243 27.243 0 002.855-10.272h1.412a7.5 7.5 0 10-.001-15zm-28.765 25.376c-6.858 0-12.438-5.58-12.438-12.438v-10.875c0-6.858 5.58-12.438 12.438-12.438s12.438 5.58 12.438 12.438v10.875c0 6.858-5.58 12.438-12.438 12.438zm160.807-40.39h-6.575a30.127 30.127 0 00-3.305-7.944l4.66-4.66a7.5 7.5 0 00-10.607-10.606l-4.659 4.659a30.113 30.113 0 00-7.944-3.305v-6.575c0-4.142-3.357-7.5-7.5-7.5s-7.5 3.358-7.5 7.5v6.575a30.127 30.127 0 00-7.944 3.305l-4.659-4.659a7.5 7.5 0 00-10.607 10.606l4.659 4.659a30.127 30.127 0 00-3.305 7.944h-6.574c-4.143 0-7.5 3.358-7.5 7.5s3.357 7.5 7.5 7.5h6.574a30.113 30.113 0 003.305 7.944l-4.659 4.659a7.5 7.5 0 005.304 12.803 7.478 7.478 0 005.304-2.197l4.659-4.659a30.113 30.113 0 007.944 3.305v6.575c0 4.142 3.357 7.5 7.5 7.5s7.5-3.358 7.5-7.5v-6.575a30.113 30.113 0 007.944-3.305l4.659 4.659c1.465 1.464 3.385 2.197 5.304 2.197s3.839-.732 5.304-2.197a7.5 7.5 0 000-10.606l-4.66-4.66a30.113 30.113 0 003.305-7.944h6.575a7.5 7.5 0 10-.002-14.998zm-35.931-7.797c8.435 0 15.297 6.862 15.297 15.297s-6.862 15.297-15.297 15.297-15.297-6.862-15.297-15.297 6.862-15.297 15.297-15.297z"/></svg>