<svg id="svg11425" height="512" viewBox="0 0 16.933 16.933" width="512" xmlns="http://www.w3.org/2000/svg"><g id="layer1" transform="translate(0 -280.067)"><path id="circle4760" d="M2.91 280.596a.801.801 0 00-.749.53h-.31a.796.796 0 00-.792.792v2.647H.794c-.358-.005-.358.534 0 .529h.793v.793a3.438 3.438 0 003.44 3.44 3.438 3.438 0 003.44-3.44v-.793h.529v.793a3.952 3.952 0 01-2.48 3.68c-.337.127-.134.63.197.49a4.487 4.487 0 002.812-4.17v-1.058a.265.265 0 00-.265-.264h-.264v-2.647a.798.798 0 00-.794-.793h-.309a.803.803 0 00-.75-.529c-.436 0-.793.358-.793.793s.357.795.793.795a.805.805 0 00.75-.53h.309c.15 0 .265.113.265.264v2.647h-.265a.265.265 0 00-.264.264v1.058a2.898 2.898 0 01-2.91 2.91 2.898 2.898 0 01-2.911-2.91v-1.058a.265.265 0 00-.265-.264h-.264v-2.647c0-.15.112-.263.264-.263h.31c.11.306.406.53.748.53.436 0 .793-.36.793-.796s-.357-.793-.793-.793zm0 .53c.15 0 .264.114.264.263s-.114.266-.264.266-.263-.117-.263-.266.114-.263.263-.263zm4.233 0c.149 0 .265.114.265.263s-.116.266-.265.266c-.15 0-.264-.117-.264-.266s.114-.263.264-.263zM.79 285.619a.264.264 0 00-.26.268 4.478 4.478 0 003.703 4.41v.882c0 .146.119.265.265.265h.264v2.117a2.912 2.912 0 005.822 0v-4.498c0-1.03.821-1.854 1.852-1.854 1.03 0 1.852.823 1.852 1.854v1.61c-.895.129-1.589.9-1.589 1.83 0 1.02.834 1.851 1.854 1.851s1.852-.832 1.852-1.851c0-.93-.693-1.702-1.588-1.831v-1.609a2.381 2.381 0 00-4.762 0v4.498c0 1.324-1.06 2.381-2.383 2.381s-2.38-1.057-2.38-2.381v-2.117h.264a.265.265 0 00.265-.265v-1.094c.005-.358-.534-.358-.53 0v.83h-.529v-.83a.265.265 0 00-.232-.263 3.952 3.952 0 01-3.472-3.935.265.265 0 00-.268-.268zm13.763 5.56c.734 0 1.323.59 1.323 1.324 0 .733-.59 1.321-1.323 1.321a1.32 1.32 0 01-1.324-1.321c0-.734.59-1.325 1.324-1.325zm0 .528c-.435 0-.795.36-.795.796s.36.792.795.792c.435 0 .793-.357.793-.792s-.358-.796-.793-.796zm0 .53a.26.26 0 01.264.266.26.26 0 01-.264.263.26.26 0 01-.266-.263c0-.15.117-.266.266-.266z" vector-effect="none"/></g></svg>