<svg xmlns="http://www.w3.org/2000/svg" width="512" height="512"><g id="Outline"><path d="M489.6 371.2A72.36 72.36 0 01432 400h-32a8 8 0 00-5.946 2.648l-28.293 31.437 11.892 10.7L403.563 416H432a88.433 88.433 0 0070.4-35.2z"/><path d="M331.951 471.649A25.181 25.181 0 01313.7 480c-14.13.267-25.695-11.674-25.695-25.807v-.428a25.217 25.217 0 017.387-17.833l.21-.21 70.06-70.06-11.314-11.314-70.065 70.065a25.969 25.969 0 01-23.372 7.114 25 25 0 01-9.751-4.127 25.964 25.964 0 01-3.571-39.665l70.073-70.073-11.314-11.314-70.448 70.437A24.632 24.632 0 01218.483 384a26.646 26.646 0 01-18.213-6.948 25.881 25.881 0 01-4.009-33.192l58.33-56.792A47.992 47.992 0 00264 288h92.408l13.779 15.5A168.464 168.464 0 00496 360v-16a152.454 152.454 0 01-113.855-51.129l-16.166-18.186A8 8 0 00360 272h-95.363c-17.9 0-32.937-14.651-32.632-32.552A32.037 32.037 0 01264 208h152v-16h-63.777l57.514-56H496v-16h-69.831l33.2-32.325c16.01-15.589 16.569-42.846.958-58.984a42.449 42.449 0 00-44.913-9.751c-16.87 6.629-27.3 23.146-40.794 35.3l10.126 12.26c7.7-5.669 13.38-13.592 19.964-20.527s14.819-13.227 24.371-13.913a25.326 25.326 0 0121.6 10.012 26.126 26.126 0 01-2.475 34.133L329.289 192H264a48.261 48.261 0 00-4.939.253L372.746 78.568l-11.314-11.314L308.686 120H249.14a87.428 87.428 0 00-62.227 25.772l-15.974 15.975 11.313 11.315 15.97-15.971A72.01 72.01 0 01249.14 136h43.546l-58.343 58.343-87.578 87.578a26.716 26.716 0 01-19.007 8.018 25.867 25.867 0 01-20.43-10.252 25.439 25.439 0 01-5.038-12.187 25.873 25.873 0 017.367-21.844L168 187.311 156.69 176l-58.347 58.343a41.933 41.933 0 0024.7 71.3l-104.7 104.7A8 8 0 0016 416v72a8 8 0 007.977 8 142.265 142.265 0 00101.28-41.942l40.4-40.4A8 8 0 00168 408v-36.624l8.33-8.111A41.926 41.926 0 00217.94 400h6.511a41.924 41.924 0 0041.489 48 41.791 41.791 0 006.536-.519 41.782 41.782 0 00-.476 6.279v.24c0 22.612 17.884 41.609 40.493 41.992a41.179 41.179 0 0031.343-13.633l24.27-26.965-11.893-10.7zm-177.532-109.38A8 8 0 00152 368v36.687l-38.057 38.056A126.267 126.267 0 0132 479.754v-60.441l184.253-184.252a47.977 47.977 0 0022.1 45.483z"/><path transform="rotate(-45 384 104)" d="M376 92.686h16v22.627h-16z"/><path transform="rotate(-45 360 128)" d="M352 116.686h16v22.627h-16z"/><path transform="rotate(-45 408 80)" d="M400 68.686h16v22.627h-16z"/><path transform="rotate(-45 336 152)" d="M328 140.686h16v22.627h-16z"/><path transform="rotate(-45 312 176)" d="M304 164.686h16v22.627h-16z"/><path transform="rotate(-45 208 280)" d="M200 268.686h16v22.627h-16z"/><path transform="rotate(-45 184 304)" d="M176 292.686h16v22.627h-16z"/><path d="M85.771 417.32a117.127 117.127 0 01-40.3 23.09l5.06 15.18a133.062 133.062 0 0045.777-26.229l44.961-39.34-10.536-12.042z"/></g></svg>