<svg id="Capa_1" height="512" width="512" xmlns="http://www.w3.org/2000/svg"><path d="M489.5 134c-9.777 0-18.114 6.271-21.21 15H420.5c-.838 0-1.668.037-2.5.063V81.5c0-20.678-16.822-37.5-37.5-37.5h-343C16.822 44 0 60.822 0 81.5v241C0 343.178 16.822 360 37.5 360H179v12.5c0 9.649 7.851 17.5 17.5 17.5h4.5v45.5c0 17.92 14.579 32.5 32.5 32.5H363c17.921 0 32.5-14.58 32.5-32.5v-.5h5c9.649 0 17.5-7.851 17.5-17.5v-13.79c8.729-3.096 15-11.432 15-21.21v-60.167c0-4.142-3.357-7.5-7.5-7.5s-7.5 3.358-7.5 7.5V382.5c0 4.136-3.364 7.5-7.5 7.5h-45c-4.136 0-7.5-3.364-7.5-7.5v-156c0-34.462 28.037-62.5 62.5-62.5H467v94h-31.5c-9.649 0-17.5 7.851-17.5 17.5v11.833c0 4.142 3.357 7.5 7.5 7.5s7.5-3.358 7.5-7.5V275.5c0-1.378 1.121-2.5 2.5-2.5h32.79c3.096 8.729 11.433 15 21.21 15 12.406 0 22.5-10.093 22.5-22.5v-109c0-12.407-10.094-22.5-22.5-22.5zM15 322.5v-241C15 69.093 25.094 59 37.5 59h343c12.406 0 22.5 10.093 22.5 22.5v69.517a76.809 76.809 0 00-15 5.153V86.5c0-6.893-5.607-12.5-12.5-12.5h-288c-4.143 0-7.5 3.358-7.5 7.5s3.357 7.5 7.5 7.5H373v15H45V89h7.5c4.143 0 7.5-3.358 7.5-7.5S56.643 74 52.5 74h-10C35.607 74 30 79.607 30 86.5v231c0 6.893 5.607 12.5 12.5 12.5H343v15H37.5C25.094 345 15 334.907 15 322.5zm179 50V360h30v12.5c0 1.378-1.121 2.5-2.5 2.5h-25a2.503 2.503 0 01-2.5-2.5zm186.5 63c0 9.649-7.851 17.5-17.5 17.5H233.5c-9.649 0-17.5-7.851-17.5-17.5V390h5.5c9.649 0 17.5-7.851 17.5-17.5V360h104v22.5c0 9.777 6.271 18.114 15 21.21v13.79c0 9.649 7.851 17.5 17.5 17.5h5zm20-15.5h-25a2.503 2.503 0 01-2.5-2.5V405h30v12.5c0 1.378-1.121 2.5-2.5 2.5zM343 226.5V315H45V119h328v46c0 .107.011.21.016.316C354.771 179.508 343 201.648 343 226.5zm154 39c0 4.136-3.364 7.5-7.5 7.5s-7.5-3.364-7.5-7.5v-109c0-4.136 3.364-7.5 7.5-7.5s7.5 3.364 7.5 7.5z"/><path d="M308.059 258.289a12.417 12.417 0 00-.988-4.515l-44.15-103.477a12.384 12.384 0 00-6.88-6.705 12.478 12.478 0 00-9.675.183c-25.144 11.03-49.588 11.029-74.731 0a12.48 12.48 0 00-9.676-.184 12.388 12.388 0 00-6.88 6.704l-44.15 103.479c-2.58 6.047.017 13.123 5.89 16.085 30.584 15.387 61.383 23.081 92.182 23.081s61.598-7.693 92.182-23.081l.006-.003c4.277-2.156 6.796-6.477 6.869-10.997.001-.145.003-.525.001-.57zm-15.712-.791c-55.316 27.136-111.378 27.136-166.693 0l4.818-11.286c52.146 22.312 104.91 22.312 157.057 0zm-124.454-99.011c27.291 11.33 54.924 11.331 82.215 0l31.534 73.91c-48.238 20.623-97.045 20.623-145.284 0zM92.5 209h-25c-4.143 0-7.5 3.358-7.5 7.5s3.357 7.5 7.5 7.5h25c4.143 0 7.5-3.358 7.5-7.5s-3.357-7.5-7.5-7.5zm-25-15h45c4.143 0 7.5-3.358 7.5-7.5s-3.357-7.5-7.5-7.5h-45c-4.143 0-7.5 3.358-7.5 7.5s3.357 7.5 7.5 7.5zm0-30h45c4.143 0 7.5-3.358 7.5-7.5s-3.357-7.5-7.5-7.5h-45c-4.143 0-7.5 3.358-7.5 7.5s3.357 7.5 7.5 7.5z"/></svg>