<svg id="Capa_1" height="512" viewBox="0 0 511.866 511.866" width="512" xmlns="http://www.w3.org/2000/svg"><path d="M206.775 376.206a7.499 7.499 0 005.229-9.228c-4.104-14.841-17.226-17.149-23.6-16.308a7.5 7.5 0 101.983 14.869c.909-.128 5.537-.432 7.16 5.437a7.504 7.504 0 007.225 5.503 7.423 7.423 0 002.003-.273zm98.317 0a7.499 7.499 0 01-5.229-9.228c4.104-14.841 17.226-17.149 23.6-16.308a7.5 7.5 0 11-1.983 14.869c-.909-.128-5.537-.432-7.16 5.437a7.504 7.504 0 01-7.225 5.503 7.423 7.423 0 01-2.003-.273zm63.558 44.636c-6.994 0-12.684 5.689-12.684 12.684v14.376c0 6.994 5.689 12.685 12.684 12.685h25.171c6.994 0 12.684-5.69 12.684-12.685v-14.376c0-6.994-5.689-12.684-12.684-12.684zm22.854 24.744h-20.538v-9.744h20.538zm-274.949-14.095h23.833c4.143 0 7.5-3.357 7.5-7.5s-3.357-7.5-7.5-7.5h-23.833c-4.143 0-7.5 3.357-7.5 7.5s3.357 7.5 7.5 7.5zm0 25.002h16.833c4.143 0 7.5-3.357 7.5-7.5s-3.357-7.5-7.5-7.5h-16.833c-4.143 0-7.5 3.357-7.5 7.5s3.357 7.5 7.5 7.5z"/><path d="M89.581 297.94a7.499 7.499 0 00-7.5 7.5v168.926c0 4.143 3.357 7.5 7.5 7.5h332.704c4.143 0 7.5-3.357 7.5-7.5V141.343c0-4.143-3.357-7.5-7.5-7.5H89.581a7.499 7.499 0 00-7.5 7.5v134.109c0 4.143 3.357 7.5 7.5 7.5s7.5-3.357 7.5-7.5V148.843h317.704v318.022h-88.631c-.098-.619-.189-1.23-.274-1.832-2.494-17.6 6.059-35.044 21.803-44.449l.461-.277c14.678-8.918 24.293-24.574 25.723-41.881a7.5 7.5 0 00-6.857-8.092c-4.113-.351-7.751 2.729-8.092 6.857-1.035 12.537-7.975 23.863-18.56 30.294l-.38.229c-20.849 12.456-32.205 35.65-28.987 59.151h-27.168l-2.967-117.754 17.762-11.229c4.738-2.996 9.794-4.902 15.02-5.665l.5-.071c15.92-2.212 31.409 5.523 39.465 19.702a7.497 7.497 0 0010.226 2.817 7.501 7.501 0 002.816-10.227c-11.108-19.554-32.532-30.207-54.577-27.148l-.591.084c-7.325 1.069-14.349 3.703-20.875 7.829l-10.187 6.44-1.503-59.635c14.525 2.139 28.026 8.903 38.533 19.411l12.003 12.002c1.464 1.464 3.384 2.196 5.303 2.196s3.839-.732 5.304-2.197a7.498 7.498 0 00-.001-10.606l-12.002-12.001c-13.415-13.415-30.844-21.823-49.522-23.981l-.595-23.607c8.005-.423 15.891-.424 23.513.001 16.85.938 32.729 8.053 44.711 20.036l12.003 12.003c1.465 1.464 3.385 2.196 5.304 2.196s3.839-.732 5.304-2.196a7.5 7.5 0 000-10.607l-12.003-12.003c-14.597-14.596-33.946-23.263-54.486-24.405-8.028-.447-16.319-.454-24.723-.024l-.614-24.364c18.167-3.03 35.669-4.101 52.1-3.191 16.85.938 32.729 8.053 44.711 20.036l12.003 12.003c1.465 1.464 3.385 2.196 5.304 2.196s3.839-.732 5.304-2.196a7.5 7.5 0 000-10.607L384.363 200.1c-14.597-14.596-33.946-23.263-54.486-24.405-16.902-.938-34.805.081-53.324 3.032-.613-10.973-9.547-19.475-20.618-19.475s-20.005 8.501-20.618 19.475c-18.52-2.951-36.423-3.971-53.323-3.032-20.54 1.143-39.89 9.81-54.486 24.405l-12.003 12.003a7.5 7.5 0 1010.608 10.607l12.003-12.003c11.982-11.983 27.861-19.099 44.711-20.036 16.427-.911 33.932.16 52.099 3.19l-.614 24.364c-8.405-.43-16.695-.424-24.723.024-20.539 1.142-39.89 9.81-54.487 24.406L143.1 254.658a7.498 7.498 0 005.304 12.802 7.478 7.478 0 005.304-2.197l12.001-12.002c11.984-11.983 27.864-19.099 44.713-20.036 7.621-.424 15.506-.423 23.512 0l-.595 23.607c-18.678 2.159-36.107 10.566-49.52 23.98l-12.003 12.002a7.498 7.498 0 00-.001 10.606 7.476 7.476 0 005.304 2.197 7.477 7.477 0 005.303-2.196l12.004-12.003c10.506-10.507 24.007-17.271 38.531-19.41l-1.503 59.635-10.187-6.44c-6.527-4.126-13.551-6.76-20.954-7.84l-.518-.074c-14.283-1.984-28.521 1.77-40.084 10.57-11.716 8.918-19.23 21.856-21.16 36.436a108.569 108.569 0 00-.542 4.992c-1.733 20.449 8.36 40.475 25.7 51.009l.489.295c15.731 9.397 24.284 26.843 21.791 44.443-.085.602-.177 1.213-.274 1.831H97.081V305.44c0-4.143-3.357-7.5-7.5-7.5zm177.27 90.909c-7.312 2.529-14.522 2.529-21.837 0l.558-22.128a42.891 42.891 0 0010.361 1.285c3.455 0 6.911-.429 10.36-1.285zm-22.227 15.522c3.765.932 7.537 1.398 11.309 1.398s7.545-.466 11.31-1.398l.559 22.164c-7.952 2.655-15.786 2.656-23.736 0zm2.846-112.978a36.159 36.159 0 008.462 1.013c2.826 0 5.652-.338 8.463-1.012l.557 22.118c-6.079 2.293-11.957 2.293-18.04 0zm15.585-53.205c-4.795 1.947-9.447 1.947-14.243 0l.555-22.047c2.184.505 4.375.758 6.567.758 2.191 0 4.382-.253 6.565-.757zm-7.121 16.461c2.508 0 5.016-.295 7.513-.884l.556 22.081c-5.437 2.128-10.702 2.129-16.141 0l.556-22.081c2.498.589 5.007.884 7.516.884zm0 75.594c3.139 0 6.277-.388 9.411-1.165l.557 22.091c-6.676 2.394-13.261 2.394-19.938 0l.557-22.092a38.952 38.952 0 009.413 1.166zm-12.885 136.622l.626-24.835c4.08 1.004 8.169 1.506 12.258 1.506s8.178-.503 12.259-1.507l.626 24.836zm12.884-292.614c3.09 0 5.572 2.42 5.649 5.509l.524 20.776c-4.179 1.805-8.166 1.805-12.346-.001l.523-20.774a5.62 5.62 0 015.65-5.51zM171.881 407.71l-.369-.224c-12.531-7.612-19.816-22.109-18.559-36.935.118-1.406.275-2.851.466-4.29 1.401-10.587 6.861-19.986 15.374-26.467 8.359-6.361 18.635-9.078 28.93-7.649l.501.072c5.23.763 10.286 2.669 15.025 5.665l17.761 11.229-2.967 117.754h-27.168c3.217-23.501-8.138-46.696-28.994-59.155z"/><path d="M452.285 185.809c4.143 0 7.5-3.357 7.5-7.5v-55.131c0-10.661-8.674-19.334-19.335-19.334h-28.879l-.704-3.845c-4.025-21.961-22.338-38.994-44.531-41.42l-30.611-3.349c-14.767-1.615-27.171-12.367-30.866-26.755l-5.866-22.841c-1.031-4.012-5.118-6.424-9.13-5.399a7.5 7.5 0 00-5.399 9.13l5.866 22.842c5.24 20.399 22.828 35.645 43.765 37.934l30.611 3.35c15.653 1.711 28.569 13.724 31.408 29.213l.209 1.141H115.544l.209-1.14c2.839-15.49 15.754-27.503 31.407-29.215l30.611-3.349c20.938-2.289 38.525-17.534 43.766-37.935l5.866-22.841a7.5 7.5 0 00-5.399-9.13c-4.011-1.024-8.099 1.387-9.13 5.399l-5.866 22.84c-3.695 14.389-16.1 25.141-30.867 26.756l-30.611 3.348C123.337 61.005 105.025 78.038 101 100l-.704 3.844h-28.88c-10.661 0-19.335 8.673-19.335 19.334v369.354c0 10.661 8.674 19.335 19.335 19.335H440.45c10.661 0 19.335-8.674 19.335-19.335V208.296c0-4.143-3.357-7.5-7.5-7.5s-7.5 3.357-7.5 7.5v284.235a4.339 4.339 0 01-4.335 4.335H71.416a4.339 4.339 0 01-4.335-4.335V123.178a4.339 4.339 0 014.335-4.334H440.45a4.339 4.339 0 014.335 4.334v55.131a7.5 7.5 0 007.5 7.5z"/></svg>