<svg id="Layer_1" enable-background="new 0 0 512 512" height="512" viewBox="0 0 512 512" width="512" xmlns="http://www.w3.org/2000/svg"><g><path d="m460.874 124.476h-105.135c1.601-7.173 2.452-14.626 2.452-22.275 0-56.348-45.843-102.191-102.191-102.191-17.492 0-34.756 4.498-49.926 13.007-8.457 4.744-1.117 17.83 7.338 13.082 12.934-7.254 27.66-11.089 42.588-11.089 48.077 0 87.191 39.114 87.191 87.191 0 19.772-6.62 38.025-17.753 52.667-10.635-14.661-24.907-25.403-41.106-31.191 9.597-8.086 15.71-20.182 15.71-33.684 0-24.286-19.758-44.043-44.043-44.043-24.286 0-44.043 19.758-44.043 44.043 0 13.471 6.086 25.542 15.645 33.628-16.464 5.781-30.92 16.523-41.266 30.949-10.997-14.592-17.525-32.732-17.525-52.369 0-19.017 6.012-37.085 17.385-52.252 5.818-7.759-6.182-16.756-12.001-8.999-13.335 17.784-20.384 38.964-20.384 61.251 0 7.649.851 15.102 2.452 22.275h-105.136c-28.191 0-51.126 23-51.126 51.271v208.886c0 28.271 22.935 51.27 51.126 51.27h14.451v68.608c0 6.291 7.641 9.9 12.476 5.611l83.694-74.219h225.936c9.697 0 9.697-15 0-15h-228.782c-1.834 0-3.604.672-4.976 1.889l-73.348 65.044v-59.433c0-4.142-3.358-7.5-7.5-7.5h-21.951c-19.92 0-36.126-16.271-36.126-36.27v-208.886c0-20 16.206-36.271 36.126-36.271h109.722c4.794 12.196 11.872 23.251 20.698 32.644.077.089.138.187.22.273 19.517 20.634 45.88 31.998 74.233 31.998 28.255 0 54.556-11.298 74.058-31.813.074-.078.13-.168.201-.249 8.918-9.438 16.064-20.568 20.893-32.854h109.722c19.92 0 36.126 16.271 36.126 36.271v208.886c0 20-16.206 36.27-36.126 36.27h-28.873c-9.697 0-9.697 15 0 15h28.873c28.191 0 51.126-23 51.126-51.27v-208.885c.001-28.271-22.934-51.271-51.125-51.271zm-233.919-34.482c0-16.015 13.029-29.043 29.043-29.043s29.043 13.029 29.043 29.043c0 14.92-11.31 27.243-25.806 28.859-1.076-.041-2.154-.066-3.237-.066-1.084 0-2.164.025-3.242.066-14.493-1.619-25.801-13.941-25.801-28.859zm25.509 43.889c25.983 2.075 47.357 9.478 62.632 32.365-33.197 30.654-85.285 30.616-118.435-.226 12.359-19.033 33.09-31.008 55.803-32.139z"/><path d="m87.831 242.315h336.338c9.697 0 9.697-15 0-15h-336.338c-9.697 0-9.697 15 0 15z"/><path d="m431.669 285.505c0-4.142-3.358-7.5-7.5-7.5h-336.338c-9.697 0-9.697 15 0 15h336.338c4.142 0 7.5-3.358 7.5-7.5z"/><path d="m87.831 328.695c-9.697 0-9.697 15 0 15h201.829c9.697 0 9.697-15 0-15z"/></g></svg>