<svg id="Layer_1" enable-background="new 0 0 64 64" height="512" viewBox="0 0 64 64" width="512" xmlns="http://www.w3.org/2000/svg"><g><path d="m54.724 16.808c2.573 0 4.666-2.093 4.666-4.665s-2.093-4.665-4.666-4.665c-2.572 0-4.665 2.093-4.665 4.665 0 .777.209 1.499.547 2.144l-4.087 3.405c-3.012-3.022-7.177-4.896-11.771-4.896-.292 0-.576.029-.864.044l-.472-4.207c1.169-.529 1.988-1.7 1.988-3.064 0-1.856-1.511-3.367-3.367-3.367s-3.367 1.511-3.367 3.367c0 1.657 1.206 3.031 2.785 3.308l.469 4.178c-2.184.377-4.221 1.177-6.027 2.32l-4.796-6.691c.748-.828 1.217-1.914 1.217-3.115 0-2.572-2.093-4.665-4.665-4.665s-4.665 2.093-4.665 4.665c0 2.573 2.093 4.666 4.665 4.666.658 0 1.282-.14 1.851-.387l4.782 6.672c-3.194 2.595-5.395 6.351-5.986 10.617l-5.56-.163c-.22-1.046-.767-1.984-1.609-2.664-.828-.67-1.869-1.037-2.931-1.037-1.417 0-2.74.631-3.63 1.732-.783.97-1.142 2.185-1.011 3.425.131 1.239.737 2.353 1.706 3.136.828.67 1.869 1.037 2.931 1.037 1.416 0 2.739-.631 3.63-1.732.459-.569.753-1.226.907-1.919l5.406.158c-.002.106-.016.209-.016.315 0 4.444 1.762 8.477 4.612 11.463l-2.165 2.326c-.443-.215-.935-.347-1.46-.347-1.856 0-3.367 1.511-3.367 3.367s1.511 3.367 3.367 3.367 3.367-1.511 3.367-3.367c0-.611-.176-1.177-.462-1.672l2.157-2.317c2.877 2.378 6.563 3.809 10.578 3.809.525 0 1.043-.031 1.555-.079l1.252 8.109c-1.061.406-1.957 1.185-2.492 2.24-1.162 2.295-.24 5.108 2.055 6.271.65.329 1.378.503 2.103.503 1.77 0 3.366-.98 4.166-2.558.563-1.112.659-2.376.27-3.561-.388-1.184-1.214-2.146-2.326-2.709-.567-.287-1.192-.447-1.824-.486l-1.252-8.11c5.803-1.252 10.484-5.539 12.299-11.114l3.196.832c.08 1.786 1.547 3.219 3.352 3.219 1.857 0 3.368-1.511 3.368-3.367s-1.511-3.367-3.368-3.367c-1.208 0-2.261.645-2.855 1.603l-3.192-.831c.206-1.044.32-2.121.32-3.224 0-3.865-1.337-7.417-3.557-10.244l4.051-3.375c.794.618 1.777 1.002 2.857 1.002zm-24.083-11.24c0-.767.624-1.391 1.391-1.391s1.391.624 1.391 1.391-.623 1.391-1.39 1.391c-.768 0-1.392-.624-1.392-1.391zm-15.681 0c0-1.483 1.206-2.689 2.689-2.689s2.689 1.206 2.689 2.689-1.206 2.69-2.689 2.69-2.689-1.207-2.689-2.69zm-4.674 24.059c-.903 1.117-2.663 1.305-3.782.401-.559-.452-.908-1.094-.984-1.808-.075-.715.131-1.415.583-1.974.513-.635 1.276-.999 2.094-.999.62 0 1.205.206 1.688.597.559.452.908 1.094.984 1.808.075.716-.132 1.417-.583 1.975zm31.494 27.966c.224.683.169 1.412-.156 2.052-.46.911-1.381 1.475-2.402 1.475-.423 0-.831-.097-1.211-.29-1.323-.67-1.854-2.291-1.184-3.613.46-.911 1.381-1.475 2.402-1.475.424 0 .831.097 1.211.29.641.325 1.117.879 1.34 1.561zm15.323-23.741c.768 0 1.392.624 1.392 1.391s-.624 1.391-1.392 1.391c-.767 0-1.391-.624-1.391-1.391s.624-1.391 1.391-1.391zm-37.996 13.773c-.767 0-1.391-.624-1.391-1.391s.624-1.391 1.391-1.391 1.391.624 1.391 1.391-.623 1.391-1.391 1.391zm15.641-3.548c-8.08 0-14.652-6.573-14.652-14.653s6.573-14.652 14.652-14.652 14.652 6.572 14.652 14.652-6.573 14.653-14.652 14.653zm19.976-34.624c1.483 0 2.69 1.206 2.69 2.689s-1.207 2.689-2.69 2.689-2.689-1.206-2.689-2.689 1.206-2.689 2.689-2.689z"/><g><path d="m35.937 25.104c0-2.572-2.093-4.665-4.665-4.665s-4.665 2.093-4.665 4.665c0 2.573 2.093 4.666 4.665 4.666s4.665-2.093 4.665-4.666zm-7.354 0c0-1.483 1.206-2.689 2.689-2.689s2.689 1.206 2.689 2.689-1.206 2.69-2.689 2.69-2.689-1.207-2.689-2.69z"/><path d="m39.61 30.466c0 1.857 1.511 3.368 3.367 3.368s3.367-1.511 3.367-3.368c0-1.856-1.511-3.367-3.367-3.367s-3.367 1.511-3.367 3.367zm4.759 0c0 .768-.624 1.392-1.391 1.392s-1.391-.624-1.391-1.392c0-.767.624-1.391 1.391-1.391s1.391.624 1.391 1.391z"/><path d="m34.614 33.671c-1.856 0-3.367 1.511-3.367 3.367s1.511 3.367 3.367 3.367 3.367-1.511 3.367-3.367c.001-1.856-1.51-3.367-3.367-3.367zm0 4.759c-.767 0-1.391-.624-1.391-1.391s.624-1.391 1.391-1.391 1.391.624 1.391 1.391c.001.766-.623 1.391-1.391 1.391z"/></g></g></svg>