<svg id="Capa_1" enable-background="new 0 0 512.056 512.056" height="512" viewBox="0 0 512.056 512.056" width="512" xmlns="http://www.w3.org/2000/svg"><g><path d="m456.464 101.224h-136.043c-.881-.925-1.774-1.843-2.682-2.751-44.05-44.048-108.226-55.986-163.195-35.834l-43.615-43.616c-25.331-25.328-66.546-25.328-91.876 0-20.991 20.992-25.106 53.475-10.007 78.993 1.4 2.366 3.898 3.682 6.462 3.682 1.298 0 2.614-.337 3.812-1.046 3.565-2.11 4.745-6.709 2.635-10.275-11.609-19.62-8.441-44.6 7.703-60.745 19.481-19.482 51.18-19.484 70.662 0l39.354 39.354c-14.876 7.304-28.818 17.131-41.173 29.487-12.356 12.356-22.183 26.298-29.487 41.174l-24.732-24.732c-2.929-2.928-7.678-2.928-10.607 0-2.929 2.93-2.929 7.678 0 10.608l28.992 28.993c-20.152 54.97-8.214 119.147 35.834 163.195 2.981 2.981 6.058 5.81 9.215 8.497l16.393 130.6c3.951 31.48 30.857 55.22 62.586 55.22h198.237c31.729 0 58.634-23.74 62.586-55.221l.91-7.256c.516-4.111-2.399-7.86-6.508-8.376-4.118-.52-7.86 2.398-8.376 6.508l-.91 7.256c-3.012 23.994-23.519 42.088-47.702 42.088h-198.237c-24.183 0-44.69-18.094-47.702-42.088l-14.608-116.376c25.408 16.313 54.569 24.48 83.735 24.48 39.698 0 79.397-15.11 109.619-45.332.894-.894 1.772-1.797 2.64-2.707 17.006 3.638 35.218 6.423 55.748 6.423 21.851 0 46.332-3.164 74.748-11.794l-12.966 103.295c-.516 4.11 2.398 7.86 6.507 8.376.317.04.632.06.944.06 3.725 0 6.956-2.775 7.432-6.567l25.993-207.079c19.568-8.616 33.271-28.182 33.271-50.899 0-30.656-24.939-55.595-55.592-55.595zm-347.356 205.879c-54.595-54.594-54.595-143.428 0-198.022 27.298-27.298 63.154-40.946 99.012-40.946 35.857 0 71.714 13.648 99.011 40.946 54.595 54.594 54.595 143.428 0 198.022-54.594 54.596-143.428 54.595-198.023 0zm343.822-13.849c-51.026 16.68-88.809 14.868-121.422 8.692 20.122-26.417 30.623-57.865 31.498-89.536h93.459c2.257 0 4.478-.151 6.665-.414zm3.534-95.845h-93.763c-1.966-28.71-11.863-56.972-29.696-81.184h123.459c22.382 0 40.591 18.209 40.591 40.591s-18.209 40.593-40.591 40.593z"/><path d="m284.988 131.223c-42.385-42.384-111.352-42.384-153.737 0-20.533 20.533-31.84 47.832-31.84 76.869s11.308 56.336 31.84 76.869c21.195 21.195 49.027 31.791 76.869 31.789 27.834-.003 55.678-10.599 76.868-31.789 20.533-20.533 31.841-47.832 31.841-76.869s-11.308-56.336-31.841-76.869zm-10.608 143.13c-36.535 36.538-95.985 36.537-132.522 0-17.699-17.698-27.447-41.23-27.447-66.261s9.748-48.563 27.447-66.261c18.268-18.269 42.265-27.403 66.261-27.403s47.993 9.134 66.26 27.403c17.699 17.698 27.447 41.23 27.447 66.261s-9.746 48.563-27.446 66.261z"/><g><path d="m222.538 393.228c-4.14 0-7.497 3.355-7.5 7.495l-.009 11.877c-.003 4.143 3.352 7.503 7.495 7.506 4.146 0 7.503-3.355 7.506-7.495l.009-11.877c.003-4.143-3.352-7.503-7.495-7.506-.002 0-.004 0-.006 0z"/><path d="m349.148 393.352c-4.14 0-7.498 3.355-7.5 7.495l-.009 11.877c-.003 4.143 3.353 7.503 7.495 7.506 4.146 0 7.503-3.355 7.506-7.495l.009-11.877c.003-4.143-3.353-7.503-7.495-7.506-.002 0-.004 0-.006 0z"/><path d="m269.146 410.425c-4.146 0-7.503 3.354-7.507 7.494-.004 4.143 3.352 7.503 7.494 7.507l33.38.029c4.146 0 7.503-3.354 7.507-7.494.004-4.143-3.352-7.503-7.494-7.507z"/></g></g></svg>