<svg height="512" viewBox="0 0 64 64" width="512" xmlns="http://www.w3.org/2000/svg"><g id="Image"><g><path d="m52.21 36.429c-6.567 9.446-17.905 15.333-20.21 16.463-2.305-1.13-13.642-7.017-20.208-16.462-.315-.455-.938-.566-1.392-.251s-.566.938-.251 1.392c7.618 10.959 20.875 17.084 21.437 17.34.258.117.56.122.828 0 .562-.256 13.818-6.381 21.438-17.339.315-.454.203-1.077-.25-1.393-.456-.316-1.077-.204-1.392.25z"/><path d="m8.641 30.632c-3.315-8.366-2.085-19.632 7.359-19.632 6.08 0 11.029 3.518 15.13 10.753.355.627 1.385.627 1.74 0 4.101-7.235 9.05-10.753 15.13-10.753 9.351 0 10.709 11.18 7.361 19.632-.489 1.236 1.374 1.963 1.859.736 3.898-9.835 1.766-22.368-9.22-22.368-6.333 0-11.71 3.466-16 10.307-4.29-6.841-9.667-10.307-16-10.307-10.942 0-13.134 12.486-9.219 22.368.485 1.228 2.347.497 1.86-.736z"/><path d="m62 33h-15c-1.045 0-1.001 1.109-2.591 3.946l-3.429-17.142c-.223-1.111-1.779-1.041-1.966.025l-3.052 17.547-1.98-10.561c-.194-1.039-1.656-1.093-1.944-.09l-1.792 6.275c-1.469.143-2.892-.427-3.211.737l-1.688 6.19-2.355-18.057c-.141-1.094-1.697-1.173-1.961-.113l-2.812 11.243h-16.219c-.553 0-1 .447-1 1s.447 1 1 1h17c.459 0 .858-.313.97-.758l1.721-6.882 2.318 17.769c.141 1.083 1.669 1.187 1.956.134l2.799-10.263h2.236c1.224 0 1.017-1.541 1.798-3.652l2.22 11.837c.203 1.092 1.776 1.085 1.968-.014l3.083-17.729 2.951 14.754c.084.419.424.738.848.795.432.058.837-.162 1.027-.544l2.723-5.447h14.382c.553 0 1-.447 1-1s-.447-1-1-1z"/></g></g></svg>