<svg id="Capa_1" enable-background="new 0 0 512.008 512.008" height="512" viewBox="0 0 512.008 512.008" width="512" xmlns="http://www.w3.org/2000/svg"><g><path d="m463.485 46.53c-29.358-29.626-68.621-46.146-110.559-46.516-23.695-.295-48.86 5.209-70.538 15.933-16.767 8.193-35.999 8.193-52.756.006-21.114-10.419-46.275-16.291-70.696-15.938-41.55.405-80.535 16.69-109.774 45.854-2.933 2.925-2.938 7.674-.013 10.606 2.925 2.933 7.674 2.939 10.606.014 17.336-17.293 38.468-29.578 61.562-36.094 7.689 3.103 15.929 19.094 14.585 35.332-.892 10.165-6.382 28.161-33.125 34.482-29.676 7.014-41.939 27.142-51.793 43.314-9.067 14.88-15.919 26.065-32.941 27.407-.789-26.842 6.831-55.446 21.074-78.371 2.173-3.526 1.076-8.146-2.449-10.32-3.527-2.172-8.147-1.077-10.32 2.45-15.272 24.779-23.344 53.417-23.344 82.819 0 40.687 15.464 79.294 43.543 108.709 9.274 9.716 16.085 21.77 19.694 34.858 15.703 56.935 30.277 113.927 42.148 164.816 6.366 27.291 27.106 45.617 51.619 45.616h.046c27.916-.026 50.458-22.381 52.433-52.001 1.104-16.561 2.673-34.021 4.663-51.895.458-4.117-2.508-7.825-6.624-8.284-4.132-.459-7.826 2.508-8.284 6.624-2.014 18.093-3.603 35.775-4.722 52.556-1.443 21.645-17.556 37.98-37.479 37.999-.011 0-.021 0-.033 0-20.083 0-33.059-17.084-37.011-34.023-11.915-51.08-26.541-108.273-42.295-165.397-4.267-15.469-12.325-29.725-23.306-41.227-21.13-22.136-34.355-50.03-38.208-79.973 24.719-1.941 35.23-19.171 44.607-34.559 9.697-15.916 18.856-30.949 42.435-36.521 26.234-6.201 42.496-23.612 44.616-47.768 1.329-15.134-3.245-30.436-11.208-40.523 6.388-.925 12.88-1.437 19.445-1.5 21.301-.267 44.341 4.694 63.952 14.41 20.954 10.238 44.987 10.237 65.951-.006 18.927-9.346 41.809-14.69 63.808-14.405 77.865.688 141.212 64.611 141.211 142.496 0 36.729-13.938 71.602-39.243 98.194-9.35 9.824-16.425 21.34-21.029 34.229-1.394 3.901.639 8.192 4.539 9.586.834.298 1.686.439 2.523.439 3.08 0 5.967-1.912 7.062-4.979 3.896-10.903 9.874-20.638 17.77-28.935 27.973-29.395 43.378-67.939 43.378-108.535 0-41.943-16.166-81.356-45.52-110.979z"/><path d="m433.239 319.179c-4.001-1.078-8.115 1.293-9.191 5.293-13.686 50.852-25.072 95.539-33.844 132.817-2.652 11.788-12.512 39.998-38.565 39.716-19.614-.187-36.063-16.052-37.448-36.119-3.738-54.184-15.336-136.366-19.947-153.343-6.389-23.562-19.969-36.537-38.238-36.537-18.146 0-31.723 12.963-38.229 36.5-2.378 8.594-6.756 31.563-11.175 63.506-.567 4.103 2.299 7.89 6.402 8.457 4.1.569 7.89-2.297 8.457-6.401 4.301-31.093 8.599-53.707 10.772-61.563 4.677-16.919 12.675-25.498 23.771-25.498 13.933 0 20.611 13.847 23.763 25.466 3.903 14.373 15.618 94.787 19.458 150.446 1.92 27.825 24.88 49.825 52.271 50.085 25.304.305 45.812-18.95 53.31-51.28 8.612-36.602 20.274-82.37 33.727-132.354 1.075-3.999-1.294-8.115-5.294-9.191z"/><path d="m433.557 164.676c4.153.179 7.64-3.026 7.821-7.165.718-16.393-3.553-31.692-12.352-44.242-9.654-13.772-24.421-23.468-42.703-28.038-18.427-4.607-35.793-2.294-50.222 6.687-15.418 9.595-26.691 26.364-30.917 45.955-3.145 14.081.121 26.575 3.278 38.657 3.093 11.832 6.29 24.066 3.774 38.749-4.316 25.189 12.068 49.583 36.525 54.377 2.987.585 5.966.868 8.904.868 21.625 0 41.052-15.276 45.454-37.245 2.252-11.236 9.439-19.816 17.049-28.899 2.593-3.094 5.272-6.294 7.77-9.627 2.483-3.315 1.809-8.016-1.507-10.499-3.315-2.484-8.016-1.809-10.499 1.507-2.252 3.006-4.686 5.911-7.262 8.987-8.482 10.125-17.254 20.596-20.258 35.584-3.383 16.878-19.872 27.917-36.766 24.605-16.252-3.186-27.529-20.187-24.626-37.124 3.062-17.875-.715-32.326-4.047-45.075-2.953-11.301-5.505-21.061-3.141-31.648 3.386-15.695 12.204-28.975 24.192-36.436 11.055-6.88 24.062-8.519 38.657-4.87 33.699 8.425 44.674 35.006 43.707 57.072-.177 4.138 3.03 7.639 7.169 7.82z"/><path d="m97.653 61.705-10.076 3.387c-3.926 1.32-6.039 5.573-4.72 9.499 1.054 3.134 3.976 5.112 7.108 5.112.792 0 1.599-.126 2.391-.393l10.076-3.387c3.926-1.32 6.039-5.573 4.72-9.499-1.321-3.926-5.576-6.038-9.499-4.719z"/><path d="m340.215 144.99c-4.044.897-6.594 4.903-5.697 8.946l2.303 10.377c.674 2.826 4.364 6.742 8.947 5.697 4.044-.897 6.594-4.903 5.697-8.946l-2.303-10.377c-.897-4.044-4.902-6.596-8.947-5.697z"/><path d="m392.615 136.891c1.829 0 3.663-.666 5.107-2.01 3.032-2.822 3.203-7.567.381-10.6l-7.242-7.782c-2.821-3.032-7.567-3.203-10.6-.381-3.032 2.822-3.203 7.568-.381 10.6l7.242 7.782c1.478 1.588 3.482 2.391 5.493 2.391z"/><path d="m371.937 213.276c.965.414 1.968.61 2.954.61 2.909 0 5.677-1.702 6.896-4.544l4.192-9.769c1.634-3.807-.127-8.216-3.934-9.85-3.811-1.636-8.218.129-9.851 3.934l-4.192 9.769c-1.633 3.807.128 8.217 3.935 9.85z"/><path d="m398.45 166.957c.439 2.845 4.029 6.899 8.614 6.189 4.087-.67 6.858-4.526 6.188-8.614l-1.719-10.49c-.67-4.087-4.516-6.861-8.614-6.189-4.087.67-6.858 4.526-6.188 8.614z"/><path d="m35.016 114.434c-1.633 3.807.129 8.217 3.936 9.85.964.414 1.967.609 2.953.609 2.909 0 5.677-1.703 6.896-4.544l4.191-9.769c1.633-3.807-.129-8.217-3.936-9.85-3.808-1.634-8.217.129-9.85 3.935z"/><circle cx="112.504" cy="46.507" r="7.5"/><path d="m352.519 134.017c4.142 0 7.5-3.358 7.5-7.5s-3.358-7.5-7.5-7.5-7.5 3.358-7.5 7.5 3.358 7.5 7.5 7.5z"/><path d="m374.524 165c4.142 0 7.5-3.358 7.5-7.5s-3.358-7.5-7.5-7.5-7.5 3.358-7.5 7.5 3.358 7.5 7.5 7.5z"/><path d="m352.519 194.021c4.142 0 7.5-3.358 7.5-7.5s-3.358-7.5-7.5-7.5-7.5 3.358-7.5 7.5 3.358 7.5 7.5 7.5z"/><path d="m359.514 240.019c4.142 0 7.5-3.358 7.5-7.5s-3.358-7.5-7.5-7.5-7.5 3.358-7.5 7.5 3.358 7.5 7.5 7.5z"/><circle cx="63.504" cy="81.507" r="7.5"/></g></svg>