<svg id="Capa_1" enable-background="new 0 0 512 512" height="512" viewBox="0 0 512 512" width="512" xmlns="http://www.w3.org/2000/svg"><g><path d="m464.394 235.845c-3.072-38.489-16.855-75.225-39.859-106.235l-13.43-18.104c-8.552-11.528-21.363-18.823-35.15-20.014-3.693-.318-7.342-.203-10.896.298 2.911-6.583 6.296-12.956 10.151-19.043 5.414-8.552 8.276-18.422 8.276-28.543v-22.076c0-12.201-9.927-22.128-22.128-22.128h-1.469c-8.855 0-16.836 5.257-20.333 13.396l-3.706 8.632c-6.403 14.905-21.021 24.536-37.243 24.536-15.195 0-28.11 10.359-31.408 25.192l-2.92 13.134c-.871 3.917-4.281 6.652-8.293 6.652s-7.422-2.735-8.293-6.651l-2.92-13.135c-3.298-14.833-16.213-25.192-31.408-25.192-2.25-.021-3.621.08-7.78-.493-4.093-.641-7.931 2.15-8.575 6.241-.646 4.092 2.149 7.932 6.241 8.576 1.935.309 6.043.72 10.114.676 8.111 0 15.005 5.53 16.766 13.447l2.92 13.135c2.408 10.831 11.84 18.396 22.936 18.396s20.527-7.565 22.936-18.396l2.92-13.134c1.761-7.918 8.654-13.448 16.766-13.448 22.225 0 42.253-13.195 51.025-33.617l3.706-8.631c1.127-2.622 3.698-4.316 6.551-4.316h1.469c3.931 0 7.128 3.198 7.128 7.128v22.075c0 7.276-2.058 14.372-5.949 20.519-6.713 10.6-12.152 21.977-16.224 33.842-9.415 5.639-18.035 16.39-21.278 28.133h-43.389c-4.143 0-7.5 3.358-7.5 7.5s3.357 7.5 7.5 7.5h39.012l-17.864 61.221c-1.219 4.175-5.107 7.091-9.457 7.091-5.432 0-9.851-4.419-9.851-9.851v-15.372c0-15.164-12.337-27.5-27.5-27.5s-27.5 12.336-27.5 27.5v15.372c0 5.432-4.419 9.851-9.851 9.851-4.35 0-8.238-2.916-9.456-7.091l-17.865-61.221h55.331c4.143 0 7.5-3.358 7.5-7.5s-3.357-7.5-7.5-7.5h-59.708c-2.955-11.123-11.433-22.163-21.277-28.13-4.072-11.867-9.512-23.247-16.224-33.845-3.893-6.147-5.95-13.243-5.95-20.519v-22.075c0-3.931 3.197-7.128 7.128-7.128 2.854 0 5.425 1.694 6.55 4.315l3.708 8.633c2.021 4.705 4.677 9.101 7.895 13.067 2.609 3.217 7.333 3.708 10.55 1.099 3.217-2.61 3.708-7.333 1.099-10.549-2.347-2.893-4.285-6.102-5.76-9.536l-3.708-8.633c-3.498-8.138-11.48-13.396-20.336-13.396-12.201 0-22.128 9.927-22.128 22.128v22.075c0 10.122 2.862 19.992 8.277 28.544 3.854 6.086 7.241 12.459 10.153 19.044-3.555-.502-7.206-.618-10.899-.299-13.787 1.191-26.599 8.486-35.15 20.014l-13.43 18.104c-18.714 25.227-31.573 54.883-37.188 85.765-5.556 30.558-4.069 62.496 4.3 92.362 1.118 3.988 5.265 6.319 9.245 5.198 3.989-1.118 6.316-5.257 5.198-9.246-15.797-56.373-4.397-118.108 30.492-165.142l13.43-18.104c5.994-8.08 14.886-13.185 24.395-14.006 15.876-1.37 30.632 8.711 35.087 23.978l22.385 76.707c3.073 10.533 12.884 17.889 23.855 17.889 13.702 0 24.851-11.148 24.851-24.851v-15.372c0-6.893 5.607-12.5 12.5-12.5s12.5 5.607 12.5 12.5v15.372c0 13.703 11.147 24.851 24.851 24.851 10.972 0 20.782-7.356 23.856-17.889l22.384-76.707c4.453-15.266 19.21-25.351 35.087-23.978 9.509.822 18.4 5.927 24.395 14.006l13.43 18.104c43.157 58.178 49.474 137.31 16.09 201.598-6.653 12.813-19.755 20.773-34.193 20.773-14.476 0-27.594-7.99-34.235-20.853-11.863-22.976-35.297-37.249-61.154-37.249h-86.018c-25.858 0-49.291 14.273-61.154 37.249-6.642 12.862-19.76 20.853-34.235 20.853-16.208-.063-30.324-10.147-36.703-25.783-1.799-3.729-6.281-5.294-10.015-3.493-3.73 1.801-5.294 6.285-3.493 10.015 7.77 19.403 28.32 34.782 50.211 34.261 20.111 0 38.337-11.101 47.563-28.971 3.874-7.501 9.328-13.811 15.835-18.623v16.176c0 8.798 6.534 16.081 15 17.3v15.4c-8.466 1.22-15 8.502-15 17.3v25c0 8.798 6.534 16.081 15 17.3v15.4c-8.466 1.22-15 8.502-15 17.3v25c0 9.649 7.851 17.5 17.5 17.5h115c9.649 0 17.5-7.851 17.5-17.5v-25c0-8.798-6.534-16.081-15-17.3v-15.4c8.466-1.22 15-8.502 15-17.3v-25c0-8.798-6.534-16.081-15-17.3v-15.4c8.466-1.22 15-8.502 15-17.3v-16.176c6.507 4.812 11.961 11.122 15.835 18.623 9.228 17.87 27.452 28.971 47.563 28.971 20.06 0 38.263-11.059 47.506-28.861 17.791-34.267 25.572-72.724 22.501-111.212zm-253.408 141.155v-15h90v15zm105 117.5c0 1.378-1.121 2.5-2.5 2.5h-115c-1.379 0-2.5-1.122-2.5-2.5v-25c0-1.378 1.121-2.5 2.5-2.5h115c1.379 0 2.5 1.122 2.5 2.5zm0-75c0 1.378-1.121 2.5-2.5 2.5h-37.266c-4.143 0-7.5 3.358-7.5 7.5s3.357 7.5 7.5 7.5h24.766v15h-90v-15h29.234c4.143 0 7.5-3.358 7.5-7.5s-3.357-7.5-7.5-7.5h-41.734c-1.379 0-2.5-1.122-2.5-2.5v-25c0-1.378 1.121-2.5 2.5-2.5h115c1.379 0 2.5 1.122 2.5 2.5zm0-75c0 1.378-1.121 2.5-2.5 2.5h-115c-1.379 0-2.5-1.122-2.5-2.5v-23.95c5.386-1.783 11.107-2.734 16.991-2.734h86.018c5.884 0 11.605.951 16.991 2.734z"/><path d="m95.443 321.66c0 12.407 10.094 22.5 22.5 22.5s22.5-10.093 22.5-22.5-10.094-22.5-22.5-22.5-22.5 10.093-22.5 22.5zm22.5-7.5c4.136 0 7.5 3.364 7.5 7.5s-3.364 7.5-7.5 7.5-7.5-3.364-7.5-7.5 3.364-7.5 7.5-7.5z"/><path d="m373.773 127.697c-12.406 0-22.5 10.093-22.5 22.5s10.094 22.5 22.5 22.5 22.5-10.093 22.5-22.5-10.094-22.5-22.5-22.5zm0 30c-4.136 0-7.5-3.364-7.5-7.5s3.364-7.5 7.5-7.5 7.5 3.364 7.5 7.5-3.364 7.5-7.5 7.5z"/><path d="m426.273 271c0-12.407-10.094-22.5-22.5-22.5s-22.5 10.093-22.5 22.5 10.094 22.5 22.5 22.5 22.5-10.093 22.5-22.5zm-30 0c0-4.136 3.364-7.5 7.5-7.5s7.5 3.364 7.5 7.5-3.364 7.5-7.5 7.5-7.5-3.364-7.5-7.5z"/><path d="m375.996 305.713c-4.142 0-7.495 3.358-7.495 7.5s3.363 7.5 7.505 7.5c4.143 0 7.5-3.358 7.5-7.5s-3.357-7.5-7.5-7.5z"/><path d="m394.996 324.713c-4.142 0-7.495 3.358-7.495 7.5s3.363 7.5 7.505 7.5c4.143 0 7.5-3.358 7.5-7.5s-3.357-7.5-7.5-7.5z"/><path d="m278.486 259.349c0-12.407-10.094-22.5-22.5-22.5s-22.5 10.093-22.5 22.5 10.094 22.5 22.5 22.5 22.5-10.094 22.5-22.5zm-30 0c0-4.136 3.364-7.5 7.5-7.5s7.5 3.364 7.5 7.5-3.364 7.5-7.5 7.5-7.5-3.365-7.5-7.5z"/><path d="m130.305 141.436c-12.406 0-22.5 10.093-22.5 22.5s10.094 22.5 22.5 22.5 22.5-10.093 22.5-22.5-10.093-22.5-22.5-22.5zm0 30c-4.136 0-7.5-3.364-7.5-7.5s3.364-7.5 7.5-7.5 7.5 3.364 7.5 7.5-3.364 7.5-7.5 7.5z"/><path d="m136.188 240c0 15.164 12.337 27.5 27.5 27.5s27.5-12.336 27.5-27.5-12.337-27.5-27.5-27.5-27.5 12.336-27.5 27.5zm27.5-12.5c6.893 0 12.5 5.607 12.5 12.5s-5.607 12.5-12.5 12.5-12.5-5.607-12.5-12.5 5.608-12.5 12.5-12.5z"/><path d="m333.486 216c0 15.164 12.337 27.5 27.5 27.5s27.5-12.336 27.5-27.5-12.337-27.5-27.5-27.5-27.5 12.336-27.5 27.5zm27.5-12.5c6.893 0 12.5 5.607 12.5 12.5s-5.607 12.5-12.5 12.5-12.5-5.607-12.5-12.5 5.607-12.5 12.5-12.5z"/><path d="m113.399 270.254c4.143 0 7.5-3.358 7.5-7.5s-3.357-7.5-7.5-7.5h-.01c-4.142 0-7.495 3.358-7.495 7.5s3.363 7.5 7.505 7.5z"/><path d="m94.112 255.564c0-4.142-3.357-7.5-7.5-7.5h-.01c-4.142 0-7.495 3.358-7.495 7.5s3.363 7.5 7.505 7.5c4.143 0 7.5-3.357 7.5-7.5z"/><path d="m98.241 282.436c0-4.142-3.357-7.5-7.5-7.5h-.01c-4.142 0-7.495 3.358-7.495 7.5s3.363 7.5 7.505 7.5 7.5-3.358 7.5-7.5z"/><path d="m333.091 251.525c-4.142 0-7.495 3.358-7.495 7.5s3.363 7.5 7.505 7.5c4.143 0 7.5-3.358 7.5-7.5s-3.357-7.5-7.5-7.5z"/><path d="m304.91 261.786h-.01c-4.142 0-7.495 3.358-7.495 7.5s3.363 7.5 7.505 7.5c4.143 0 7.5-3.358 7.5-7.5s-3.358-7.5-7.5-7.5z"/><path d="m310.652 235.214h-.01c-4.142 0-7.495 3.358-7.495 7.5s3.363 7.5 7.505 7.5c4.143 0 7.5-3.358 7.5-7.5s-3.357-7.5-7.5-7.5z"/></g></svg>