<svg height="512" viewBox="0 0 60 50" width="512" xmlns="http://www.w3.org/2000/svg"><g id="Page-1" fill="none" fill-rule="evenodd"><g id="027---Eye-Diagram" fill="rgb(0,0,0)" fill-rule="nonzero"><path id="Shape" d="m59 18c-3.7957364-.2592565-7.2499316-2.2843848-9.33-5.47-4.2148779-7.31246142-11.8348888-12.00453053-20.2619068-12.47639514s-16.5232108 3.34018735-21.5280932 10.13639514c-5.23 2.42-7.88 7.4-7.88 14.81s2.65 12.39 7.88 14.81c5.0048824 6.7962078 13.1010752 10.6082598 21.5280932 10.1363951 8.427018-.4718646 16.0470289-5.1639337 20.2619068-12.4763951 2.0800684-3.1856152 5.5342636-5.2107435 9.33-5.47.5522847 0 1-.4477153 1-1v-12c0-.5522847-.4477153-1-1-1zm-11.07 18.47c-3.8903384 6.7745895-10.9534623 11.1112967-18.7551539 11.5155294s-15.2751897-3.1792816-19.8448461-9.5155294c-.11937963-.1663027-.28692309-.2919603-.48-.36-4.55-2.11-6.85-6.49-6.85-13.11s2.29-11 6.81-13c.21049633-.0658557.39331557-.1994543.52-.38 4.5696564-6.33624781 12.0431545-9.91976213 19.8448461-9.51552941 7.8016916.40423273 14.8648155 4.7409399 18.7551539 11.51552941 2.2572763 3.5018733 5.9394842 5.8347915 10.07 6.38v2h-4.71c-3.4511478.0101279-6.5999156-1.9670959-8.09-5.08-3.1531576-6.6475536-9.8425735-10.89455484-17.2-10.92-6.2192055-.00750466-12.0444938 3.04348073-15.58 8.16-3.11.84-5.42 5.3-5.42 10.84s2.31 10 5.42 10.84c3.8764328 5.5666827 10.4266204 8.6444473 17.1861155 8.0753134 6.7594951-.5691338 12.7028316-4.6988241 15.5938845-10.8353134 1.4900844-3.1129041 4.6388522-5.0901279 8.09-5.08h4.71v2c-4.1465203.5661958-7.83165 2.9339007-10.07 6.47zm10.07-10.47h-4.71c-4.222163.0045947-8.069118 2.4254563-9.9 6.23-.08.17-.18.34-.26.5-.814816-2.4589093-1.1971445-5.0404727-1.13-7.63-.0745579-2.6356611.3216481-5.263489 1.17-7.76.07.14.15.28.22.43 1.830882 3.8045437 5.677837 6.2254053 9.9 6.23h4.71zm-48.32-5c.32 0 1.32 1.38 1.32 4s-1 4-1.32 4c-.09032334-.0261556-.17277277-.0742511-.24-.14-.58671454-2.5398909-.58671454-5.1801091 0-7.72.06722723-.0657489.14967666-.1138444.24-.14zm3.32 4c0-3.18-1.17-5.56-2.85-5.94.85-1.93 2.14-3.06 3.35-3.06 2.17 0 4.5 3.62 4.5 9s-2.33 9-4.5 9c-1.21 0-2.47-1.13-3.35-3.06 1.68-.38 2.85-2.76 2.85-5.94zm7 0c0-5.38-2.17-9.73-5.14-10.76 3.3788767-4.1345434 8.5039932-6.44132701 13.8393638-6.22901307s10.2609807 2.91905277 13.3006362 7.30901307c-1.09 1.68-1.8 4.68-2 8.18-1.53-.5-3-1.5-3-3.5.0193903-1.1684315-.1287828-2.3336111-.44-3.46.001277-.0233159.001277-.0466841 0-.07-.96-3.06-3.39-4.47-7.56-4.47-.5522847 0-1 .4477153-1 1s.4477153 1 1 1c2.51 0 4.1.51 5 1.75-1.6952975.0230008-3.2956504.7866395-4.38 2.09-.0990315.117155-.2059468.2274114-.32.33-.4592713.5175029-1.11809.8136688-1.81.8136688s-1.3507287-.2961659-1.81-.8136688c-.2507611-.2788329-.636448-.3939322-.9990098-.2981312-.3625619.095801-.6410503.3863976-.7213434.7527062-.0802931.3663085.0511068.7467507.3403532.985425.8235778.8635037 1.9570101 1.3636532 3.15 1.39 1.2172188-.0355724 2.3754179-.5324541 3.24-1.39.13-.12.26-.26.4-.41.9016584-1.1005631 2.3104639-1.6534814 3.72-1.46.1370658.7453102.2007037 1.5022667.19 2.26 0 2.45 1.48 4.31 4.1 5.27-1.1693306.5855896-2.2203252 1.3823113-3.1 2.35-2-1.22-4.78-.33-5.93.14l-2.55-1.61c-.3036758-.1893508-.6853012-.202309-1.0011216-.0339935-.3158205.1683155-.5178553.4923337-.53.85s.1674458.6946427.4711216.8839935l2 1.24-1.17 1.22c-.1893127.1877666-.2957983.4433625-.2957983.71s.1064856.5222334.2957983.71c.1919418.1798822.4470327.2768886.71.27.2756601.0017015.5397961-.1104658.73-.31l1.86-2c.91-.42 3-1.09 4.27-.42-.4247013.8041205-.7151932 1.6722183-.86 2.57-.2351389 1.714647-1.1875608 3.2487006-2.62 4.22-1.2607748.622076-2.7392252.622076-4 0-.5136248-.2043454-1.0956546.0463752-1.3.56s.0463752 1.0956546.56 1.3c.918814.385514 1.9036441.5892719 2.9.6.9937905.0057423 1.9721608-.2457402 2.84-.73 1.9647373-1.2641852 3.285181-3.3178035 3.62-5.63.4009719-2.2926475 1.926037-4.2309075 4.06-5.16.029849 2.6815617.6584979 5.3225705 1.84 7.73-3.1841306 4.5296089-8.3632999 7.2384263-13.9 7.27-5.0958989.0035603-9.9223301-2.2884435-13.14-6.24 2.97-1.03 5.14-5.39 5.14-10.76z"/></g></g></svg>