<svg id="Capa_1" enable-background="new 0 0 512 512" height="512" viewBox="0 0 512 512" width="512" xmlns="http://www.w3.org/2000/svg"><g><g><path d="m220.007 281.505c3.963-1.186 6.214-5.359 5.028-9.322-1.421-4.749-3.972-8.959-7.407-12.346 1.643-1.676 3.685-2.945 6.006-3.64 3.963-1.186 6.214-5.359 5.028-9.322-1.185-3.963-5.36-6.216-9.322-5.028-6.09 1.822-11.29 5.516-14.98 10.486-5.056-1.298-10.386-1.205-15.516.331-3.963 1.186-6.214 5.359-5.028 9.322s5.361 6.215 9.322 5.028c7.449-2.228 15.318 2.018 17.546 9.463 1.192 3.982 5.381 6.209 9.323 5.028z"/><path d="m301.183 276.477c1.08-3.607 3.499-6.578 6.813-8.365 3.314-1.788 7.126-2.177 10.733-1.098 3.963 1.187 8.137-1.065 9.322-5.028 1.186-3.963-1.065-8.136-5.028-9.322-5.231-1.565-10.563-1.579-15.503-.313-3.691-4.979-8.896-8.679-14.993-10.503-3.96-1.187-8.136 1.065-9.322 5.028s1.065 8.136 5.028 9.322c2.326.696 4.372 1.969 6.017 3.651-3.366 3.317-5.97 7.497-7.417 12.335-1.186 3.963 1.065 8.136 5.028 9.322 3.938 1.179 8.13-1.044 9.322-5.029z"/><path d="m169.276 389.708c-9.309-6.048-18.047-13.132-25.971-21.057-62.104-62.105-62.104-163.155 0-225.26 44.905-44.904 112.098-58.857 171.182-35.546 3.849 1.518 8.197-.37 9.715-4.218s-.371-8.197-4.218-9.715c-18.39-7.256-37.499-11.207-56.56-12.021v-18.516c14.018-3.381 24.466-16.019 24.466-31.06 0-17.62-14.335-31.955-31.955-31.955s-31.955 14.335-31.955 31.955c0 15.041 10.448 27.68 24.466 31.06v18.515c-42.756 1.853-84.251 19.428-115.732 50.909-3.695 3.695-7.176 7.522-10.469 11.456h-61.792c-11.584 0-21.008-9.424-21.008-21.008v-59.872c14.018-3.381 24.466-16.019 24.466-31.06 0-17.62-14.335-31.955-31.955-31.955s-31.956 14.334-31.956 31.955c0 15.041 10.448 27.68 24.466 31.06v59.873c0 19.843 16.144 35.987 35.987 35.987h50.559c-18.058 27.02-27.755 58.009-29.09 89.296h-18.907c-3.38-14.018-16.019-24.466-31.06-24.466-17.62-.001-31.955 14.334-31.955 31.955s14.335 31.955 31.955 31.955c15.041 0 27.68-10.448 31.06-24.466h18.907c1.343 31.511 11.172 62.718 29.48 89.875h-50.949c-19.843 0-35.987 16.143-35.987 35.986v59.255c-14.018 3.381-24.466 16.02-24.466 31.06 0 17.62 14.335 31.955 31.955 31.955s31.955-14.335 31.955-31.955c0-15.041-10.448-27.68-24.466-31.06v-59.255c0-11.584 9.424-21.008 21.008-21.008h62.272c3.151 3.731 6.473 7.366 9.988 10.88 8.663 8.663 18.219 16.41 28.402 23.026 3.481 2.262 8.116 1.256 10.36-2.2 2.255-3.468 1.27-8.107-2.198-10.36zm69.682-357.393c0-9.361 7.615-16.976 16.976-16.976s16.976 7.615 16.976 16.976-7.615 16.976-16.976 16.976-16.976-7.615-16.976-16.976zm-207.003 16.976c-9.361 0-16.976-7.615-16.976-16.976s7.615-16.976 16.976-16.976 16.976 7.615 16.976 16.976-7.615 16.976-16.976 16.976zm0 223.705c-9.361 0-16.976-7.615-16.976-16.976s7.615-16.976 16.976-16.976 16.976 7.615 16.976 16.976c0 9.36-7.615 16.976-16.976 16.976zm16.976 206.689c0 9.361-7.615 16.976-16.976 16.976s-16.976-7.615-16.976-16.976 7.615-16.976 16.976-16.976 16.976 7.615 16.976 16.976z"/><path d="m216.467 374.728c4.419 1.941 9.144 2.926 14.045 2.926 9.938 0 19.209-4.212 25.421-11.158 6.212 6.946 15.483 11.158 25.421 11.158 4.902 0 9.626-.984 14.046-2.926 1.675.152 3.364.229 5.022.229 25.445 0 47.302-17.328 51.496-40.536.326-1.293.191-3.8 2.684-6.034 15.788-14.157 18.144-32.258 10.173-47.87 12.534-15.319 11.92-36.931-1.85-51.596 7.127-18.528-1.82-39.779-21.968-48.182.171-1.355.257-2.725.257-4.091 0-18.953-16.293-34.41-36.515-34.744-6.541-19.659-33.889-26.202-48.766-9.745-14.636-16.187-42.084-10.333-48.765 9.744-20.19.302-36.515 15.772-36.515 34.745 0 1.366.086 2.736.257 4.091-20.137 8.398-29.098 29.648-21.968 48.181-13.766 14.661-14.39 36.271-1.851 51.597-7.943 15.561-5.675 33.66 10.174 47.87 2.482 2.226 2.377 4.814 2.683 6.03 4.193 23.211 26.05 40.54 51.497 40.54 1.659.001 3.349-.076 5.022-.229zm46.956-50.927c0-5.307 4.318-9.625 9.625-9.625s9.625 4.318 9.625 9.625c0 4.136 3.353 7.489 7.489 7.489s7.489-3.353 7.489-7.489c0-13.567-11.037-24.604-24.604-24.604-3.414 0-6.667.7-9.625 1.962v-117.121c3.532-4.348 9.737-5.545 14.672-2.661 3.571 2.087 8.157.885 10.245-2.687 2.087-3.571.884-8.158-2.687-10.245-6.634-3.877-14.635-4.768-22.23-2.074v-14.626c0-17.011 23.319-18.372 27.211-4.633 1.629 5.752 7.138 9.767 13.45 9.766h.013c20.154 0 29.334 21.761 15.563 35.016-3.606 3.471-8.202 5.523-13.129 5.916-4.718-3.063-10.336-4.85-16.368-4.85-4.136 0-7.489 3.353-7.489 7.489s3.353 7.489 7.489 7.489c8.365 0 15.17 6.805 15.17 15.17 0 4.136 3.353 7.489 7.489 7.489s7.489-3.353 7.489-7.489c0-4.477-.988-8.725-2.747-12.549 4.597-1.719 8.84-4.368 12.482-7.873 2.404-2.314 4.44-4.908 6.098-7.702 12.105 5.595 17.187 18.358 12.488 29.328-2.091 4.878-1.004 10.466 2.768 14.237 9.255 9.252 9.914 23.206 1.235 33.131-3.693 4.223-4.313 10.087-1.579 14.941 4.141 7.352 4.466 16.809-1.145 24.715-4.155-11.847-13.005-21.547-24.959-26.227-3.85-1.508-8.196.392-9.705 4.244-1.508 3.852.392 8.196 4.244 9.705 12.322 4.824 19.59 18.001 17.79 32.131-2.825 17.559-20.621 30.499-40.672 28.61-2.43-.227-4.901.18-7.145 1.179-2.533 1.127-5.261 1.699-8.108 1.699-9.338 0-17.932-6.514-17.932-15.497 0-5.507 0-17.823 0-23.379zm-88.833 7.403c-1.809-14.135 5.461-27.321 17.788-32.147 3.852-1.508 5.752-5.853 4.244-9.705s-5.853-5.752-9.705-4.244c-11.955 4.68-20.805 14.38-24.959 26.228-5.561-7.835-5.333-17.28-1.145-24.716 2.733-4.853 2.114-10.717-1.579-14.94-8.685-9.932-8.015-23.884 1.235-33.131 3.771-3.77 4.857-9.358 2.768-14.236-4.709-10.991.4-23.743 12.487-29.329 1.657 2.794 3.693 5.388 6.098 7.702 3.643 3.506 7.885 6.155 12.482 7.874-1.758 3.824-2.747 8.072-2.747 12.549 0 4.136 3.353 7.489 7.489 7.489s7.489-3.353 7.489-7.489c0-8.365 6.805-15.17 15.17-15.17 4.136 0 7.489-3.353 7.489-7.489s-3.353-7.489-7.489-7.489c-6.031 0-11.649 1.787-16.367 4.849-4.925-.394-9.524-2.445-13.131-5.915-13.813-13.295-4.53-35.016 15.613-35.016h.012c6.261 0 11.77-4.014 13.401-9.766 3.889-13.731 27.21-12.381 27.21 4.633v14.626c-7.567-2.684-15.569-1.818-22.23 2.074-3.571 2.087-4.774 6.674-2.687 10.245 2.087 3.572 6.674 4.775 10.245 2.687 4.94-2.887 11.164-1.641 14.672 2.665v117.118c-2.958-1.262-6.211-1.962-9.625-1.962-13.566 0-24.604 11.037-24.604 24.604 0 4.136 3.353 7.489 7.489 7.489s7.489-3.353 7.489-7.489c0-5.307 4.318-9.625 9.625-9.625s9.625 4.318 9.625 9.625v23.377c0 8.971-8.581 15.497-17.932 15.497-2.846 0-5.574-.571-8.107-1.698-4.36-1.941-7.164-.998-10.961-.998-18.441-.002-34.2-12.345-36.852-28.777z"/><path d="m448.984 263.509c3.38 14.018 16.019 24.467 31.06 24.467 17.62 0 31.956-14.335 31.956-31.955s-14.335-31.955-31.956-31.955c-15.04 0-27.679 10.447-31.06 24.464h-18.957c-1.355-32.244-11.434-62.922-29.121-89.296h50.509c19.843 0 35.986-16.144 35.986-35.987v-59.842c14.085-3.333 24.599-16.003 24.599-31.09 0-17.62-14.335-31.955-31.956-31.955s-31.955 14.335-31.955 31.955c0 14.994 10.382 27.602 24.334 31.03v59.903c0 11.584-9.424 21.008-21.008 21.008h-61.78c-3.309-3.945-6.797-7.772-10.481-11.456-8.158-8.159-17.121-15.515-26.637-21.864-3.44-2.296-8.091-1.367-10.387 2.073-2.296 3.441-1.367 8.091 2.073 10.387 8.699 5.804 16.895 12.531 24.359 19.995 62.104 62.105 62.104 163.155 0 225.26-44.345 44.344-110.873 58.554-169.487 36.203-3.864-1.474-8.193.465-9.667 4.329s.465 8.193 4.329 9.667c17.805 6.79 36.271 10.49 54.705 11.263v18.512c-14.018 3.38-24.466 16.019-24.466 31.06 0 17.62 14.335 31.955 31.955 31.955s31.955-14.335 31.955-31.955c0-15.041-10.448-27.68-24.466-31.06v-18.532c42.789-1.883 84.344-19.463 115.732-50.851 3.505-3.505 6.831-7.139 9.996-10.88h62.264c11.584 0 21.008 9.424 21.008 21.008v59.286c-13.951 3.428-24.334 16.036-24.334 31.03 0 17.62 14.335 31.955 31.955 31.955s31.959-14.335 31.959-31.956c0-15.088-10.514-27.758-24.598-31.09v-59.225c0-19.843-16.143-35.986-35.986-35.986h-50.904c17.929-26.504 28.152-57.393 29.516-89.875zm31.06-24.464c9.361 0 16.977 7.615 16.977 16.976s-7.616 16.976-16.977 16.976-16.976-7.615-16.976-16.976 7.616-16.976 16.976-16.976zm-16.976-206.73c0-9.361 7.615-16.976 16.976-16.976s16.977 7.615 16.977 16.976-7.616 16.976-16.977 16.976c-9.36 0-16.976-7.615-16.976-16.976zm-190.158 447.37c0 9.361-7.615 16.976-16.976 16.976s-16.976-7.615-16.976-16.976 7.615-16.976 16.976-16.976 16.976 7.615 16.976 16.976zm207.134-16.976c9.361 0 16.977 7.615 16.977 16.976s-7.616 16.976-16.977 16.976-16.976-7.615-16.976-16.976 7.616-16.976 16.976-16.976z"/></g></g></svg>