<svg id="_x3C_Layer_x3E_" height="512" viewBox="0 0 32 32" width="512" xmlns="http://www.w3.org/2000/svg"><g id="lungs_x2C__Organ"><g><g><g><path d="m28.501 30.729c-.245 0-.493-.036-.736-.11l-3.763-1.161c-3.589-1.101-6.002-4.367-6.002-8.128v-10.655c0-.276.224-.5.5-.5s.5.224.5.5v10.655c0 3.319 2.128 6.201 5.297 7.172l3.761 1.161c.462.137.95.054 1.338-.234.384-.285.604-.722.604-1.199v-8.27c0-4.913-2.165-9.533-5.94-12.676l-1.78-1.48c-.611-.51-1.407-.613-2.127-.277-.722.338-1.153 1.015-1.153 1.813v1.16c0 .277-.224.5-.5.5s-.5-.223-.5-.5v-1.16c0-1.178.663-2.22 1.729-2.719 1.064-.498 2.287-.34 3.191.415l1.78 1.479c4.004 3.334 6.3 8.234 6.3 13.445v8.27c0 .796-.368 1.526-1.008 2.001-.441.328-.96.498-1.491.498z" fill="rgb(0,0,0)"/></g></g><g><g><g id="XMLID_5_"><g><path d="m24.5 21h-1.082c-1.303 0-2.474-.724-3.057-1.89-.236-.47-.361-1-.361-1.528v-3.041c0-.276.224-.5.5-.5s.5.224.5.5v3.041c0 .374.088.748.255 1.081.413.825 1.242 1.337 2.163 1.337h1.082c.276 0 .5.224.5.5s-.224.5-.5.5z" fill="rgb(0,0,0)"/></g></g><g id="XMLID_2_"><g><path d="m22.451 22.729c-.202 0-.393-.124-.468-.324l-.836-2.23c-.097-.258.034-.546.292-.644.258-.096.547.033.644.292l.836 2.23c.097.258-.034.546-.292.644-.058.021-.117.032-.176.032z" fill="rgb(0,0,0)"/></g></g></g><g id="XMLID_1_"><g><path d="m23.574 16.899c-.118 0-.236-.042-.332-.126-.207-.183-.226-.499-.042-.706l1.393-1.572c.184-.206.5-.226.706-.042.207.183.226.499.042.706l-1.393 1.572c-.098.111-.236.168-.374.168z" fill="rgb(0,0,0)"/></g></g><g><g><path d="m26 17h-4c-1.103 0-2-.897-2-2v-1.5c0-1.378-1.122-2.5-2.5-2.5-.827 0-1.5-.673-1.5-1.5v-8c0-.276.224-.5.5-.5s.5.224.5.5v8c0 .276.224.5.5.5 1.93 0 3.5 1.57 3.5 3.5v1.5c0 .551.449 1 1 1h4c.276 0 .5.224.5.5s-.224.5-.5.5z" fill="rgb(0,0,0)"/></g></g></g><g><g><path d="m21.5 15c-.827 0-1.5-.673-1.5-1.5 0-.276.224-.5.5-.5s.5.224.5.5.224.5.5.5.5-.224.5-.5v-1c0-.276.224-.5.5-.5s.5.224.5.5v1c0 .827-.673 1.5-1.5 1.5z" fill="rgb(0,0,0)"/></g></g><g><g><path d="m3.498 30.728c-.531 0-1.049-.169-1.49-.497-.64-.475-1.008-1.205-1.008-2.001v-8.27c0-5.211 2.296-10.111 6.3-13.444l1.78-1.48c.902-.754 2.126-.913 3.19-.415 1.067.499 1.73 1.541 1.73 2.719v1.16c0 .277-.224.5-.5.5s-.5-.223-.5-.5v-1.16c0-.797-.431-1.475-1.153-1.813-.721-.336-1.515-.233-2.126.276l-1.781 1.481c-3.775 3.143-5.94 7.763-5.94 12.676v8.27c0 .477.22.914.604 1.199.388.288.876.373 1.341.233l3.757-1.159c3.17-.972 5.298-3.854 5.298-7.173v-10.655c0-.276.224-.5.5-.5s.5.224.5.5v10.655c0 3.761-2.413 7.027-6.004 8.128l-3.759 1.16c-.244.074-.493.11-.739.11z" fill="rgb(0,0,0)"/></g></g><g><g><g id="XMLID_7_"><g><path d="m8.582 21h-1.082c-.276 0-.5-.224-.5-.5s.224-.5.5-.5h1.082c.921 0 1.75-.512 2.162-1.337.168-.333.256-.707.256-1.081v-3.041c0-.276.224-.5.5-.5s.5.224.5.5v3.041c0 .529-.125 1.058-.362 1.529-.582 1.165-1.753 1.889-3.056 1.889z" fill="rgb(0,0,0)"/></g></g><g id="XMLID_414_"><g><path d="m9.549 22.729c-.059 0-.118-.01-.176-.032-.258-.097-.389-.385-.292-.644l.836-2.23c.097-.259.386-.389.644-.292s.389.385.292.644l-.836 2.23c-.075.2-.266.324-.468.324z" fill="rgb(0,0,0)"/></g></g></g><g id="XMLID_416_"><g><path d="m8.426 16.899c-.138 0-.275-.057-.374-.168l-1.393-1.572c-.183-.207-.164-.522.042-.706s.522-.164.706.042l1.393 1.573c.183.207.164.522-.042.706-.096.084-.214.125-.332.125z" fill="rgb(0,0,0)"/></g></g><g><g><path d="m10 17h-4c-.276 0-.5-.224-.5-.5s.224-.5.5-.5h4c.551 0 1-.449 1-1v-1.5c0-1.93 1.57-3.5 3.5-3.5.276 0 .5-.224.5-.5v-8c0-.276.224-.5.5-.5s.5.224.5.5v8c0 .827-.673 1.5-1.5 1.5-1.378 0-2.5 1.122-2.5 2.5v1.5c0 1.103-.897 2-2 2z" fill="rgb(0,0,0)"/></g></g></g><g><g><path d="m10.5 15c-.827 0-1.5-.673-1.5-1.5v-1c0-.276.224-.5.5-.5s.5.224.5.5v1c0 .276.224.5.5.5s.5-.224.5-.5.224-.5.5-.5.5.224.5.5c0 .827-.673 1.5-1.5 1.5z" fill="rgb(0,0,0)"/></g></g><g><g id="XMLID_16_"><g><path d="m27.6 25h-.1c-.276 0-.5-.224-.5-.5s.224-.5.5-.5.55.224.55.5-.174.5-.45.5z" fill="rgb(0,0,0)"/></g></g><g id="XMLID_14_"><g><path d="m24.6 24h-.1c-.276 0-.5-.224-.5-.5s.224-.5.5-.5.55.224.55.5-.174.5-.45.5z" fill="rgb(0,0,0)"/></g></g><g id="XMLID_11_"><g><path d="m26.6 21h-.1c-.276 0-.5-.224-.5-.5s.224-.5.5-.5.55.224.55.5-.174.5-.45.5z" fill="rgb(0,0,0)"/></g></g><g id="XMLID_8_"><g><path d="m27.6 18h-.1c-.276 0-.5-.224-.5-.5s.224-.5.5-.5.55.224.55.5-.174.5-.45.5z" fill="rgb(0,0,0)"/></g></g><g id="XMLID_6_"><g><path d="m26.6 14h-.1c-.276 0-.5-.224-.5-.5s.224-.5.5-.5.55.224.55.5-.174.5-.45.5z" fill="rgb(0,0,0)"/></g></g></g><g><g id="XMLID_46_"><g><path d="m4.5 25c-.276 0-.55-.224-.55-.5s.174-.5.45-.5h.1c.276 0 .5.224.5.5s-.224.5-.5.5z" fill="rgb(0,0,0)"/></g></g><g id="XMLID_38_"><g><path d="m7.5 24c-.276 0-.55-.224-.55-.5s.174-.5.45-.5h.1c.276 0 .5.224.5.5s-.224.5-.5.5z" fill="rgb(0,0,0)"/></g></g><g id="XMLID_21_"><g><path d="m5.5 21c-.276 0-.55-.224-.55-.5s.174-.5.45-.5h.1c.276 0 .5.224.5.5s-.224.5-.5.5z" fill="rgb(0,0,0)"/></g></g><g id="XMLID_20_"><g><path d="m4.5 18c-.276 0-.55-.224-.55-.5s.174-.5.45-.5h.1c.276 0 .5.224.5.5s-.224.5-.5.5z" fill="rgb(0,0,0)"/></g></g><g id="XMLID_17_"><g><path d="m5.5 14c-.276 0-.55-.224-.55-.5s.174-.5.45-.5h.1c.276 0 .5.224.5.5s-.224.5-.5.5z" fill="rgb(0,0,0)"/></g></g></g></g></g></svg>