<svg id="Capa_1" enable-background="new 0 0 512.192 512.192" height="512" viewBox="0 0 512.192 512.192" width="512" xmlns="http://www.w3.org/2000/svg"><g><path d="m174.594 68.271c7.465-4.221 12.103-12.171 12.103-20.747v-40.024c0-4.142-3.358-7.5-7.5-7.5s-7.5 3.358-7.5 7.5v40.024c0 3.179-1.719 6.125-4.486 7.69l-68.697 38.853c-29.617 16.75-52.49 42.109-66.146 73.337-1.66 3.795.071 8.217 3.867 9.876.978.428 1.998.63 3.001.63 2.89 0 5.644-1.68 6.875-4.497 12.345-28.229 33.019-51.151 59.786-66.29z"/><path d="m35.337 247.151c-1.826-14.827-1.28-29.807 1.624-44.524.801-4.064-1.843-8.008-5.907-8.81-4.064-.804-8.008 1.843-8.81 5.907-3.211 16.28-3.815 32.854-1.794 49.261l3.642 29.575v151.354c0 4.142 3.358 7.5 7.5 7.5s7.5-3.358 7.5-7.5v-151.814c0-.307-.019-.612-.056-.917z"/><path d="m128.819 452.594c-4.124-.283-7.715 2.829-8.002 6.961l-3.104 44.615c-.288 4.132 2.829 7.715 6.961 8.002.177.012.353.019.528.019 3.905 0 7.199-3.025 7.474-6.98l3.104-44.615c.288-4.132-2.829-7.714-6.961-8.002z"/><path d="m132.074 354.021c-4.839-20.363-7.299-62.294-7.299-62.294 0-.003 0-68.938 0-68.938 0-4.142-3.358-7.5-7.5-7.5s-7.5 3.358-7.5 7.5v107.667c0 14.441-3.019 28.435-8.974 41.593-1.708 3.773-.033 8.217 3.741 9.925 1.003.454 2.054.669 3.088.669 2.855 0 5.583-1.639 6.837-4.41 1.898-4.193 3.526-8.463 4.902-12.794l.64 2.692c3.68 15.486 4.985 31.388 3.88 47.265l-.849 12.197c-.288 4.132 2.829 7.715 6.961 8.002.177.012.353.019.528.019 3.905 0 7.199-3.025 7.474-6.98l.849-12.197c1.21-17.391-.22-34.81-4.25-51.773z"/><path d="m337.578 68.271 40.033 22.642c1.167.66 2.435.973 3.686.973 2.615 0 5.155-1.371 6.535-3.809 2.039-3.605.77-8.182-2.836-10.221l-40.034-22.642c-2.767-1.564-4.485-4.511-4.485-7.69v-40.024c0-4.142-3.357-7.5-7.5-7.5s-7.5 3.358-7.5 7.5v40.024c0 8.577 4.638 16.527 12.101 20.747z"/><path d="m413.659 94.066-.754-.426c-3.603-2.038-8.181-.769-10.22 2.837-2.039 3.605-.769 8.181 2.837 10.22l.753.426c49.868 28.204 77.565 83.168 70.562 140.028l-3.698 30.031c-.038.304-.057.61-.057.917v151.814c0 4.142 3.357 7.5 7.5 7.5s7.5-3.358 7.5-7.5v-151.353l3.642-29.574c7.748-62.907-22.894-123.716-78.065-154.92z"/><path d="m393.581 491.555c-.286-4.132-3.881-7.246-8.002-6.961-4.132.288-7.249 3.871-6.961 8.002l.878 12.616c.274 3.955 3.568 6.98 7.474 6.98.175 0 .352-.006.528-.019 4.132-.288 7.249-3.871 6.961-8.002z"/><path d="m387.399 291.727c0 20.949-2.456 41.908-7.3 62.295l-2.528 10.641c-1.642 6.908-2.868 14.032-3.646 21.175-.448 4.118 2.526 7.819 6.645 8.268.275.03.55.044.82.044 3.778 0 7.029-2.847 7.447-6.688.71-6.524 1.83-13.028 3.328-19.331l.639-2.691c1.377 4.332 3.005 8.601 4.903 12.794 1.254 2.771 3.982 4.41 6.838 4.41 1.033 0 2.084-.215 3.088-.669 3.773-1.708 5.448-6.151 3.74-9.925-5.954-13.156-8.974-27.15-8.974-41.593v-107.667c0-4.142-3.357-7.5-7.5-7.5s-7.5 3.358-7.5 7.5z"/><path d="m207.524 135.489c-4.142 0-7.5 3.358-7.5 7.5v38.264c0 13.39-2.966 26.893-8.576 39.049l-5.955 12.901c-1.736 3.761-.094 8.217 3.667 9.953 1.018.47 2.086.692 3.138.692 2.835 0 5.548-1.616 6.814-4.359l5.955-12.901c6.514-14.114 9.957-29.79 9.957-45.335v-38.264c0-4.142-3.358-7.5-7.5-7.5z"/><path d="m313.06 239.489c1.266 2.743 3.979 4.359 6.814 4.359 1.052 0 2.12-.223 3.138-.692 3.761-1.736 5.403-6.191 3.667-9.953l-5.954-12.901c-5.61-12.155-8.576-25.658-8.576-39.049v-38.264c0-4.142-3.357-7.5-7.5-7.5s-7.5 3.358-7.5 7.5v38.264c0 15.546 3.443 31.223 9.957 45.335z"/><path d="m244.562 104.723c12.472 0 22.618-10.146 22.618-22.618s-10.146-22.618-22.618-22.618-22.618 10.146-22.618 22.618 10.146 22.618 22.618 22.618zm0-30.236c4.201 0 7.618 3.417 7.618 7.618s-3.417 7.618-7.618 7.618-7.618-3.417-7.618-7.618 3.417-7.618 7.618-7.618z"/><path d="m174.571 194.924c0-11.969-9.737-21.707-21.707-21.707-11.969 0-21.706 9.737-21.706 21.707 0 11.969 9.737 21.706 21.706 21.706 11.97 0 21.707-9.737 21.707-21.706zm-21.706 6.706c-3.698 0-6.706-3.008-6.706-6.706s3.008-6.707 6.706-6.707 6.707 3.008 6.707 6.707c-.001 3.698-3.009 6.706-6.707 6.706z"/><path d="m352.763 280.756c0-10.911-8.876-19.787-19.786-19.787-10.911 0-19.787 8.876-19.787 19.787s8.876 19.787 19.787 19.787c10.91 0 19.786-8.876 19.786-19.787zm-19.786 4.787c-2.64 0-4.787-2.147-4.787-4.787s2.147-4.787 4.787-4.787c2.639 0 4.786 2.147 4.786 4.787s-2.147 4.787-4.786 4.787z"/><path d="m239.378 331.586c13.348 0 24.208-10.86 24.208-24.208s-10.86-24.208-24.208-24.208-24.208 10.86-24.208 24.208 10.86 24.208 24.208 24.208zm0-33.416c5.077 0 9.208 4.131 9.208 9.208s-4.131 9.208-9.208 9.208-9.208-4.131-9.208-9.208 4.131-9.208 9.208-9.208z"/><path d="m182.41 385.932c-12.018 0-21.795 9.777-21.795 21.794s9.777 21.795 21.795 21.795 21.795-9.777 21.795-21.795-9.777-21.794-21.795-21.794zm0 28.589c-3.747 0-6.795-3.048-6.795-6.795s3.048-6.794 6.795-6.794 6.795 3.048 6.795 6.794-3.048 6.795-6.795 6.795z"/><path d="m297.964 341.946c-12.018 0-21.795 9.777-21.795 21.795s9.777 21.795 21.795 21.795 21.795-9.777 21.795-21.795-9.777-21.795-21.795-21.795zm0 28.59c-3.747 0-6.795-3.048-6.795-6.795s3.048-6.795 6.795-6.795 6.795 3.048 6.795 6.795-3.048 6.795-6.795 6.795z"/><path d="m286.326 446.934h-1.412c-.274-3.671-1.272-7.142-2.855-10.272l2.451-2.451c2.929-2.929 2.929-7.678 0-10.606-2.93-2.929-7.678-2.929-10.607 0l-2.007 2.007c-2.107-1.296-4.404-2.311-6.835-3.003v-2.587c0-4.142-3.357-7.5-7.5-7.5-4.142 0-7.5 3.358-7.5 7.5v2.587c-2.432.692-4.728 1.707-6.835 3.003l-2.007-2.007c-2.929-2.929-7.678-2.929-10.606 0-2.929 2.929-2.929 7.678 0 10.606l2.451 2.451c-1.582 3.13-2.58 6.601-2.855 10.272h-1.412c-4.142 0-7.5 3.358-7.5 7.5s3.358 7.5 7.5 7.5h1.412c.274 3.671 1.272 7.142 2.855 10.272l-2.451 2.451c-2.929 2.929-2.929 7.678 0 10.606 1.464 1.464 3.384 2.197 5.303 2.197s3.839-.732 5.303-2.197l2.007-2.007c2.107 1.296 4.404 2.311 6.835 3.003v2.587c0 4.142 3.358 7.5 7.5 7.5 4.143 0 7.5-3.358 7.5-7.5v-2.587c2.431-.692 4.728-1.706 6.835-3.003l2.007 2.007c1.465 1.464 3.385 2.197 5.304 2.197s3.839-.732 5.304-2.197c2.929-2.929 2.929-7.678 0-10.606l-2.451-2.451c1.582-3.13 2.58-6.601 2.855-10.272h1.412c4.143 0 7.5-3.358 7.5-7.5s-3.359-7.5-7.501-7.5zm-28.765 25.376c-6.858 0-12.438-5.58-12.438-12.438v-10.875c0-6.858 5.58-12.438 12.438-12.438s12.438 5.58 12.438 12.438v10.875c0 6.858-5.58 12.438-12.438 12.438z"/><path d="m418.368 431.92h-6.575c-.723-2.828-1.848-5.495-3.305-7.944l4.66-4.66c2.929-2.929 2.929-7.678 0-10.606-2.93-2.929-7.678-2.929-10.607 0l-4.659 4.659c-2.448-1.457-5.116-2.582-7.944-3.305v-6.575c0-4.142-3.357-7.5-7.5-7.5s-7.5 3.358-7.5 7.5v6.575c-2.828.723-5.495 1.848-7.944 3.305l-4.659-4.659c-2.93-2.929-7.678-2.929-10.607 0s-2.929 7.678 0 10.606l4.659 4.659c-1.457 2.449-2.582 5.116-3.305 7.944h-6.574c-4.143 0-7.5 3.358-7.5 7.5s3.357 7.5 7.5 7.5h6.574c.723 2.828 1.848 5.496 3.305 7.944l-4.659 4.659c-2.929 2.929-2.929 7.678 0 10.606 1.465 1.464 3.385 2.197 5.304 2.197s3.839-.732 5.304-2.197l4.659-4.659c2.448 1.457 5.116 2.582 7.944 3.305v6.575c0 4.142 3.357 7.5 7.5 7.5s7.5-3.358 7.5-7.5v-6.575c2.828-.723 5.496-1.848 7.944-3.305l4.659 4.659c1.465 1.464 3.385 2.197 5.304 2.197s3.839-.732 5.304-2.197c2.929-2.929 2.929-7.678 0-10.606l-4.66-4.66c1.457-2.448 2.582-5.116 3.305-7.944h6.575c4.143 0 7.5-3.358 7.5-7.5s-3.36-7.498-7.502-7.498zm-35.931-7.797c8.435 0 15.297 6.862 15.297 15.297s-6.862 15.297-15.297 15.297-15.297-6.862-15.297-15.297 6.862-15.297 15.297-15.297z"/></g></svg>