<svg id="svg11425" height="512" viewBox="0 0 16.933333 16.933334" width="512" xmlns="http://www.w3.org/2000/svg" xmlns:svg="http://www.w3.org/2000/svg"><g id="layer1" transform="translate(0 -280.067)"><path id="circle4760" d="m2.9104166 280.59633c-.3425668 0-.6394028.22259-.7493081.52917h-.3095413c-.4351618 0-.7927184.35755-.7927174.79272v2.64635h-.26510005c-.3578021-.005-.3578021.53422 0 .52916h.79375005v.79375c0 1.90095 1.5386316 3.43959 3.4395834 3.43959 1.900952 0 3.439583-1.53864 3.439583-3.43959v-.79375h.529167v.79375c0 1.67495-1.024056 3.09321-2.480469 3.67885-.335912.12787-.133527.63119.197403.49093 1.651709-.66417 2.812233-2.27876 2.812233-4.16978v-1.05833c-.000016-.14612-.118465-.26457-.264584-.26458h-.264067v-2.64635c0-.43517-.359622-.79272-.794782-.79272h-.308509c-.110421-.30658-.407773-.52917-.750343-.52917-.435245 0-.792715.35747-.792715.79272s.35747.7953.792715.7953c.341948 0 .638935-.22345.749824-.52968h.309028c.151154 0 .265615.11239.265615.26355v2.64635h-.265099c-.146119.00001-.264567.11846-.264583.26458v1.05833c0 1.61695-1.293469 2.91042-2.910417 2.91042-1.6169481 0-2.9104167-1.29347-2.9104167-2.91042v-1.05833c-.0000159-.14612-.1184646-.26457-.2645834-.26458h-.2640674v-2.64635c0-.15116.112395-.26355.2635515-.26355h.3100573c.1103735.30623.4068471.52968.7487921.52968.4352475 0 .7927155-.36005.7927155-.7953s-.357468-.79272-.7927155-.79272zm0 .52917c.1492647 0 .2635488.11429.2635488.26355s-.1142841.26562-.2635488.26562-.2635488-.11636-.2635488-.26562.1142841-.26355.2635488-.26355zm4.2322986 0c.149265 0 .265618.11429.265618.26355s-.116353.26562-.265618.26562c-.149264 0-.263549-.11636-.263549-.26562s.114285-.26355.263549-.26355zm-6.35309955 4.49378c-.1459217.002-.2624474.12228-.2604492.2682 0 2.21429 1.59812305 4.03332 3.70416675 4.40904v.88263c.0000159.14612.1184646.26457.2645834.26458h.2640674v2.11719c0 1.60779 1.3021042 2.91041 2.9098982 2.91041 1.607793 0 2.9124848-1.30262 2.9124848-2.91041v-4.49792c0-1.03063.820934-1.85363 1.851565-1.85363 1.030632 0 1.851568.823 1.851568 1.85363v1.6092c-.894789.12968-1.588016.90094-1.588016 1.83038 0 1.01975.833884 1.85157 1.853633 1.85157 1.01975 0 1.851565-.83182 1.851565-1.85157 0-.92999-.69274-1.7019-1.588016-1.83089v-1.60869c0-1.31464-1.066096-2.38073-2.380734-2.38073s-2.380731 1.06609-2.380731 2.38073v4.49792c0 1.32379-1.0595288 2.38125-2.3833188 2.38125s-2.380731-1.05746-2.380731-2.38125v-2.11719h.265099c.146119-.00001.264567-.11846.264583-.26458v-1.09451c.0051-.3578-.534228-.3578-.529167 0v.82993h-.5291663v-.82993c-.0000397-.13351-.099534-.24607-.2320263-.26251-1.9636318-.24332-3.4721405-1.90027-3.4721405-3.93465.00204-.14916-.11955785-.27053-.26871745-.2682zm13.76350135 5.55884c.733767 0 1.322399.5907 1.322399 1.32446 0 .73377-.588632 1.32189-1.322399 1.32189-.733766 0-1.324467-.58812-1.324467-1.32189 0-.73376.590701-1.32446 1.324467-1.32446zm0 .52916c-.435247 0-.7953.36005-.7953.7953s.360053.79272.7953.79272c.435245 0 .792716-.35747.792716-.79272s-.357471-.7953-.792716-.7953zm0 .52969c.149265 0 .263549.11635.263549.26561 0 .14927-.114284.26355-.263549.26355-.149264 0-.265617-.11428-.265617-.26355 0-.14926.116353-.26561.265617-.26561z" font-variant-ligatures="normal" font-variant-position="normal" font-variant-caps="normal" font-variant-numeric="normal" font-variant-alternates="normal" font-feature-settings="normal" text-indent="0" text-align="start" text-decoration-line="none" text-decoration-style="solid" text-decoration-color="rgb(0,0,0)" text-transform="none" text-orientation="mixed" white-space="normal" shape-padding="0" isolation="auto" mix-blend-mode="normal" solid-color="rgb(0,0,0)" solid-opacity="1" vector-effect="none"/></g></svg>