<svg id="Capa_1" enable-background="new 0 0 512 512" height="512" viewBox="0 0 512 512" width="512" xmlns="http://www.w3.org/2000/svg"><g><path d="m489.5 134c-9.777 0-18.114 6.271-21.21 15h-47.79c-.838 0-1.668.037-2.5.063v-67.563c0-20.678-16.822-37.5-37.5-37.5h-343c-20.678 0-37.5 16.822-37.5 37.5v241c0 20.678 16.822 37.5 37.5 37.5h141.5v12.5c0 9.649 7.851 17.5 17.5 17.5h4.5v45.5c0 17.92 14.579 32.5 32.5 32.5h129.5c17.921 0 32.5-14.58 32.5-32.5v-.5h5c9.649 0 17.5-7.851 17.5-17.5v-13.79c8.729-3.096 15-11.432 15-21.21v-60.167c0-4.142-3.357-7.5-7.5-7.5s-7.5 3.358-7.5 7.5v60.167c0 4.136-3.364 7.5-7.5 7.5h-45c-4.136 0-7.5-3.364-7.5-7.5v-156c0-34.462 28.037-62.5 62.5-62.5h46.5v94h-31.5c-9.649 0-17.5 7.851-17.5 17.5v11.833c0 4.142 3.357 7.5 7.5 7.5s7.5-3.358 7.5-7.5v-11.833c0-1.378 1.121-2.5 2.5-2.5h32.79c3.096 8.729 11.433 15 21.21 15 12.406 0 22.5-10.093 22.5-22.5v-109c0-12.407-10.094-22.5-22.5-22.5zm-474.5 188.5v-241c0-12.407 10.094-22.5 22.5-22.5h343c12.406 0 22.5 10.093 22.5 22.5v69.517c-5.221 1.21-10.24 2.944-15 5.153v-69.67c0-6.893-5.607-12.5-12.5-12.5h-288c-4.143 0-7.5 3.358-7.5 7.5s3.357 7.5 7.5 7.5h285.5v15h-328v-15h7.5c4.143 0 7.5-3.358 7.5-7.5s-3.357-7.5-7.5-7.5h-10c-6.893 0-12.5 5.607-12.5 12.5v231c0 6.893 5.607 12.5 12.5 12.5h300.5v15h-305.5c-12.406 0-22.5-10.093-22.5-22.5zm179 50v-12.5h30v12.5c0 1.378-1.121 2.5-2.5 2.5h-25c-1.379 0-2.5-1.122-2.5-2.5zm186.5 63c0 9.649-7.851 17.5-17.5 17.5h-129.5c-9.649 0-17.5-7.851-17.5-17.5v-45.5h5.5c9.649 0 17.5-7.851 17.5-17.5v-12.5h104v22.5c0 9.777 6.271 18.114 15 21.21v13.79c0 9.649 7.851 17.5 17.5 17.5h5zm20-15.5h-25c-1.379 0-2.5-1.122-2.5-2.5v-12.5h30v12.5c0 1.378-1.121 2.5-2.5 2.5zm-57.5-193.5v88.5h-298v-196h328v46c0 .107.011.21.016.316-18.245 14.192-30.016 36.332-30.016 61.184zm154 39c0 4.136-3.364 7.5-7.5 7.5s-7.5-3.364-7.5-7.5v-109c0-4.136 3.364-7.5 7.5-7.5s7.5 3.364 7.5 7.5z"/><path d="m308.059 258.289c-.045-1.516-.361-3.045-.988-4.515l-44.15-103.477c-1.317-3.089-3.761-5.47-6.88-6.705-3.142-1.243-6.575-1.177-9.675.183-25.144 11.03-49.588 11.029-74.731 0-3.101-1.361-6.536-1.426-9.676-.184-3.119 1.235-5.562 3.616-6.88 6.704l-44.15 103.479c-2.58 6.047.017 13.123 5.89 16.085 30.584 15.387 61.383 23.081 92.182 23.081s61.598-7.693 92.182-23.081l.006-.003c4.277-2.156 6.796-6.477 6.869-10.997.001-.145.003-.525.001-.57zm-15.712-.791c-55.316 27.136-111.378 27.136-166.693 0l4.818-11.286c52.146 22.312 104.91 22.312 157.057 0zm-124.454-99.011c27.291 11.33 54.924 11.331 82.215 0l31.534 73.91c-48.238 20.623-97.045 20.623-145.284 0z"/><path d="m92.5 209h-25c-4.143 0-7.5 3.358-7.5 7.5s3.357 7.5 7.5 7.5h25c4.143 0 7.5-3.358 7.5-7.5s-3.357-7.5-7.5-7.5z"/><path d="m67.5 194h45c4.143 0 7.5-3.358 7.5-7.5s-3.357-7.5-7.5-7.5h-45c-4.143 0-7.5 3.358-7.5 7.5s3.357 7.5 7.5 7.5z"/><path d="m67.5 164h45c4.143 0 7.5-3.358 7.5-7.5s-3.357-7.5-7.5-7.5h-45c-4.143 0-7.5 3.358-7.5 7.5s3.357 7.5 7.5 7.5z"/></g></svg>