<svg id="Capa_1" enable-background="new 0 0 512 512" height="512" viewBox="0 0 512 512" width="512" xmlns="http://www.w3.org/2000/svg"><path d="m483.186 36.669c-18.199-21.955-42.24-34.547-65.958-34.547h-8.4c-27.71 0-50.567 22.191-50.952 49.469-.176 12.498 4.196 24.378 12.358 33.713-3.676 4.207-6.576 8.943-8.647 14.017-29.915 9.767-54.593 33.354-66.473 63.792-1.507 3.858.4 8.207 4.26 9.713.896.35 1.817.516 2.725.516 3 0 5.832-1.813 6.988-4.775 9.122-23.371 26.922-42.04 48.818-51.779-.182 6.188.728 12.007 2.582 17.523-27.114 14.34-44.105 45.548-40.204 75.664 1.985 15.326 8.588 29.617 15.579 44.748 5.663 12.258 11.519 24.932 14.924 38.504 5.402 21.524 3.801 45.267-4.257 67.108-3.491-4.496-8.069-8.565-13.625-12.148 11.018-36.129-1.041-62.096-12.739-87.243-7.021-15.093-14.28-30.699-16.627-48.791-.512-3.971-.744-7.983-.689-11.928.058-4.142-3.254-7.546-7.396-7.603-.035-.001-.07-.001-.105-.001-4.094 0-7.44 3.29-7.497 7.396-.064 4.652.208 9.38.812 14.059 2.645 20.395 10.401 37.068 17.902 53.193 11.09 23.839 20.773 44.695 12.755 73.921-16.561-6.839-38.205-10.662-63.319-10.662-25.115 0-46.76 3.824-63.322 10.664-2.661-9.721-3.509-19.058-2.576-28.341.414-4.121-2.591-7.798-6.712-8.213-4.116-.406-7.798 2.592-8.212 6.713-1.22 12.14.063 24.249 3.91 36.841-5.552 3.582-10.127 7.65-13.616 12.144-8.057-21.842-9.658-45.584-4.257-67.109 3.405-13.571 9.261-26.246 14.924-38.503 6.991-15.131 13.594-29.423 15.58-44.749 3.902-30.115-13.09-61.324-40.204-75.664 1.882-5.598 2.763-11.425 2.582-17.534 36.171 16.065 59.501 55.722 54.366 95.369-2.352 18.107-9.614 33.719-16.637 48.816-2.159 4.641-4.391 9.439-6.44 14.227-1.63 3.808.135 8.217 3.942 9.847 3.809 1.63 8.216-.135 9.847-3.942 1.959-4.575 4.044-9.058 6.252-13.805 7.503-16.129 15.261-32.807 17.912-53.214 6.425-49.614-25.403-99.231-72.925-114.754-2.071-5.072-4.97-9.808-8.646-14.015 8.162-9.337 12.535-21.217 12.358-33.712-.384-27.277-23.241-49.47-50.951-49.47h-8.4c-23.718 0-47.759 12.592-65.958 34.547-18.585 22.415-28.818 51.403-28.818 81.623s10.233 59.206 28.815 81.621c18.199 21.952 42.239 34.542 65.958 34.542h8.4c27.71 0 50.567-22.192 50.951-49.47.177-12.495-4.195-24.374-12.358-33.713 1.024-1.172 1.987-2.386 2.891-3.636 21.696 11.496 35.294 36.401 32.184 60.406-1.69 13.048-7.825 26.327-14.32 40.385-5.953 12.886-12.109 26.209-15.856 41.145-7.344 29.264-3.325 62.039 10.997 90.305-1.091 13.744 5.681 30.188 18.88 45.595 13.882 16.205 33.093 28.961 52.706 34.996 1.144.352 1.942 1.462 1.942 2.7v21.406c0 13.547 10.375 24.647 23.621 25.271 14.401.695 25.999-10.871 25.999-24.781v-21.896c0-1.238.799-2.349 1.943-2.701 19.612-6.034 38.823-18.789 52.705-34.995 13.199-15.407 19.97-31.851 18.88-45.595 14.322-28.267 18.34-61.042 10.996-90.306-7.908-31.522-26.972-56.793-30.177-81.529-3.109-24.005 10.49-48.91 32.185-60.406.904 1.25 1.867 2.464 2.891 3.637-8.162 9.337-12.534 21.216-12.358 33.712.385 27.278 23.241 49.47 50.951 49.47h8.401c23.719 0 47.759-12.59 65.957-34.542 18.583-22.415 28.816-51.401 28.816-81.621s-10.233-59.208-28.814-81.625zm-353.86 123.226c6.452 6.717 9.932 15.554 9.801 24.882-.27 19.123-16.398 34.681-35.953 34.681h-8.4c-19.239 0-39.07-10.612-54.41-29.115-16.357-19.73-25.364-45.317-25.364-72.049s9.007-52.32 25.363-72.052c15.34-18.507 35.171-29.12 54.41-29.12h8.4c19.555 0 35.684 15.558 35.953 34.681.131 9.328-3.349 18.164-9.8 24.881-4.643 4.833-4.641 12.408.005 17.245 13.069 13.611 13.07 35.107 0 48.722-4.644 4.838-4.646 12.413-.005 17.244zm194.74 255.821c-12.086 14.108-28.752 25.195-45.725 30.417-7.496 2.307-12.532 9.153-12.532 17.038v21.896c0 5.566-4.611 10.048-10.293 9.799-5.143-.243-9.326-4.857-9.326-10.288v-21.406c0-7.885-5.036-14.731-12.532-17.037-16.973-5.223-33.639-16.31-45.725-30.418-10.853-12.668-16.658-26.504-15.151-36.108 3.147-20.066 37.368-34.081 83.218-34.081s80.071 14.015 83.219 34.081c1.506 9.603-4.3 23.439-15.153 36.107zm147.571-225.374c-15.339 18.503-35.171 29.115-54.409 29.115h-8.401c-19.555 0-35.683-15.558-35.953-34.681-.131-9.329 3.35-18.165 9.803-24.883 4.639-4.832 4.637-12.405-.008-17.244-13.092-13.633-13.045-35.135.001-48.721 4.644-4.837 4.646-12.411.005-17.246-6.451-6.715-9.932-15.551-9.801-24.881.271-19.122 16.398-34.68 35.954-34.68h8.4c19.238 0 39.069 10.613 54.409 29.12 16.355 19.733 25.363 45.321 25.363 72.053s-9.008 52.319-25.363 72.048z"/></svg>