<svg id="Layer_1" enable-background="new 0 0 512.001 512.001" height="512" viewBox="0 0 512.001 512.001" width="512" xmlns="http://www.w3.org/2000/svg"><g><path d="m179.611 412.517h51.704c9.386 0 9.813-15 0-15h-51.704c-9.386 0-9.813 15 0 15z"/><path d="m100.801 412.517c9.386 0 9.813-15 0-15h-51.705c-9.386 0-9.813 15 0 15z"/><path d="m504.091 421.857c-8.245-9.488-23.286-10.516-32.757-2.213l-23.701 20.779-61.419-70.684 14.263-12.505c7.057-6.188-2.508-17.746-9.889-11.279l-80.008 70.145c-7.846 6.882-18.596-5.575-10.74-12.463l120.26-105.434c7.849-6.878 18.597 5.576 10.74 12.463l-12.022 10.54c-7.057 6.187 2.507 17.746 9.889 11.279l12.022-10.54c22.238-19.498-7.709-55.015-30.518-35.022l-13.264 11.629-32.679-37.608-10.223-11.766c-.001-.001-.002-.002-.003-.004l-133.963-154.167c-8.077-9.295-22.813-10.303-32.091-2.168l-5.406 4.739-17.558-20.208c-8.077-9.296-22.812-10.301-32.091-2.168l-1.506 1.32-64.327-74.029c-6.158-7.084-17.758 2.432-11.322 9.839l64.37 74.079-1.555 1.363c-9.427 8.265-10.411 22.682-2.193 32.139l17.602 20.257-5.455 4.782c-9.427 8.265-10.411 22.682-2.193 32.14l37.127 42.728c-2.008 1.346-3.33 3.635-3.33 6.233v27.546c0 4.142 3.357 7.5 7.5 7.5h8.568v17.293l-34.48 40.624c-1.023 2.597-2.046 2.597-3.068 0l-34.48-40.624v-17.293h8.568c4.143 0 7.5-3.358 7.5-7.5v-27.546c0-4.142-3.357-7.5-7.5-7.5h-75.622c-4.143 0-7.5 3.358-7.5 7.5v27.546c0 4.142 3.357 7.5 7.5 7.5h8.568v17.293l-34.48 40.624c-5.807 6.841-9.005 15.547-9.005 24.512v41.789c0 9.386 15 9.813 15 0v-16.829h115.456v69.643h-115.456v-12.743c0-9.386-15-9.813-15 0v60.199c0 14.517 11.83 26.327 26.372 26.327h92.713c7.407 0 14.106-3.069 18.9-7.994 4.795 4.925 11.494 7.994 18.9 7.994h92.714c14.541 0 26.371-11.81 26.371-26.327v-133.756l25.073 28.855-13.312 11.671c-22.492 19.722 7.978 54.781 30.518 35.021l54.465-47.751 61.419 70.684-23.749 20.821c-22.494 19.721 7.978 54.781 30.518 35.022l58.729-51.489c9.625-8.436 10.629-23.154 2.24-32.808zm-148.346-87.182-20.486-23.575 29.924-26.234 20.485 23.575zm-79.206-7.614 71.125-62.356 7.681 8.838-71.126 62.357zm-148.817-216.987c-2.816-3.241-2.476-8.185.76-11.021l14.34-12.572c3.183-2.79 8.053-2.525 10.88.728l17.603 20.258-26.023 22.815zm10.714 46.158 59.441-52.113c3.831-2.779 7.458-2.537 10.88.728l14.1 16.227-9.377 8.221c-7.133 6.255 2.769 17.52 9.889 11.279l9.326-8.177 17.865 20.56-21.86 19.165c-7.133 6.255 2.77 17.521 9.889 11.279l21.812-19.123 17.865 20.559-9.377 8.221c-7.133 6.255 2.769 17.52 9.889 11.279l9.327-8.177 17.865 20.56-21.862 19.167c-7.133 6.255 2.77 17.521 9.889 11.279l21.812-19.123 22.018 25.339-71.127 62.356-31.995-37.347v-17.293h8.568c4.143 0 7.5-3.358 7.5-7.5v-27.546c0-4.142-3.357-7.5-7.5-7.5h-61.022l-44.576-51.299c-2.815-3.241-2.474-8.185.761-11.021zm36.716 77.321h60.622v12.546h-8.568-43.486-8.568zm44.553 27.546v12.546h-28.485v-12.546zm43.486 177.031h-115.456v-69.643h115.456zm-218.554-204.577h60.622v12.546h-8.568-43.486-8.568zm44.554 27.546v12.546h-28.486v-12.546zm-71.971 92.388c-.434-8.555-.416-17.864 5.44-24.766l34.017-40.077h36.542l34.017 40.077c5.856 6.901 5.875 16.21 5.44 24.766zm104.085 143.425h-92.713c-6.271 0-11.372-5.081-11.372-11.327v-32.455h115.456v32.456c0 6.245-5.101 11.326-11.371 11.326zm130.515 0h-92.714c-6.271 0-11.371-5.081-11.371-11.327v-32.455h115.456v32.456c0 6.245-5.101 11.326-11.371 11.326zm5.93-168.19c5.856 6.901 5.875 16.21 5.44 24.766h-115.455c-.434-8.555-.416-17.864 5.44-24.766l34.017-40.077h36.094zm36.307 18.5 29.923-26.234 20.486 23.575-29.923 26.234zm197.906 96.165-58.729 51.489c-7.846 6.881-18.597-5.576-10.74-12.463l58.729-51.489c7.889-6.915 18.701 5.484 10.74 12.463z"/></g></svg>