<svg width="4" height="28" viewBox="0 0 4 28" fill="none" xmlns="http://www.w3.org/2000/svg">
<path fill-rule="evenodd" clip-rule="evenodd" d="M2 0C2.53043 0 3.03914 0.210714 3.41421 0.585787C3.78929 0.96086 4 1.46957 4 2V20C4 20.5304 3.78929 21.0391 3.41421 21.4142C3.03914 21.7893 2.53043 22 2 22C1.46957 22 0.96086 21.7893 0.585787 21.4142C0.210714 21.0391 0 20.5304 0 20V2C0 1.46957 0.210714 0.96086 0.585787 0.585787C0.96086 0.210714 1.46957 0 2 0V0ZM2 28C2.53043 28 3.03914 27.7893 3.41421 27.4142C3.78929 27.0391 4 26.5304 4 26C4 25.4696 3.78929 24.9609 3.41421 24.5858C3.03914 24.2107 2.53043 24 2 24C1.46957 24 0.96086 24.2107 0.585787 24.5858C0.210714 24.9609 0 25.4696 0 26C0 26.5304 0.210714 27.0391 0.585787 27.4142C0.96086 27.7893 1.46957 28 2 28V28Z" fill="black"/>
</svg>
