<svg id="Capa_1" height="512" width="512" xmlns="http://www.w3.org/2000/svg"><path d="M474.5 106.18h-96.37c-4.143 0-7.5 3.357-7.5 7.5s3.357 7.5 7.5 7.5h96.37c12.406 0 22.5 10.094 22.5 22.5v254.64c0 12.406-10.094 22.5-22.5 22.5H285.306c-.026 0-.051-.004-.077-.004s-.051.004-.077.004H226.85c-.026 0-.051-.004-.077-.004s-.051.004-.077.004H37.5c-12.406 0-22.5-10.094-22.5-22.5V143.68c0-12.406 10.094-22.5 22.5-22.5h123.865v7.548c0 2.508.106 4.992.296 7.452H40.5c-5.79 0-10.5 4.71-10.5 10.5v186.012c0 4.143 3.357 7.5 7.5 7.5s7.5-3.357 7.5-7.5V151.18h119.023c6.41 26.669 23.959 49.029 47.377 61.728v16.803a9.152 9.152 0 01-6.251 8.681l-72.388 24.34c-23.436 7.873-39.182 29.763-39.182 54.47v73.62H45v-23.129c0-4.143-3.357-7.5-7.5-7.5s-7.5 3.357-7.5 7.5v27.629c0 5.79 4.71 10.5 10.5 10.5h431c5.79 0 10.5-4.71 10.5-10.5V146.68c0-5.79-4.71-10.5-10.5-10.5H350.41c.146-2.156.224-4.325.224-6.507V45.331C350.635 20.335 330.3 0 305.304 0h-98.607c-24.996 0-45.331 20.335-45.331 45.331v60.849H37.5c-20.678 0-37.5 16.822-37.5 37.5v254.64c0 20.678 16.822 37.5 37.5 37.5h181.771V467h-9.474c-19.023 0-34.5 15.477-34.5 34.5 0 5.79 4.71 10.5 10.5 10.5h140.404c5.79 0 10.5-4.71 10.5-10.5 0-19.023-15.477-34.5-34.5-34.5h-9.474v-31.18H474.5c20.678 0 37.5-16.822 37.5-37.5V143.68c0-20.678-16.822-37.5-37.5-37.5zm-71.08 284.64H108.58V317.2c0-18.257 11.638-34.432 28.961-40.251l16.944-5.697a77.922 77.922 0 00-1.166 16.6 77.937 77.937 0 002.071 15.144c-16.399 4.306-28.532 19.253-28.532 36.984v24.683c0 6.982 5.681 12.663 12.663 12.663h7.008c4.143 0 7.5-3.357 7.5-7.5s-3.357-7.5-7.5-7.5h-4.671V339.98c0-12.806 10.413-23.225 23.217-23.235l.019.001.028-.001c12.799.016 23.206 10.432 23.206 23.234v22.346h-4.671c-4.143 0-7.5 3.357-7.5 7.5s3.357 7.5 7.5 7.5h7.008c6.982 0 12.663-5.681 12.663-12.663v-24.683c0-19.187-14.208-35.113-32.654-37.824a63.021 63.021 0 01-2.366-14.871 63.006 63.006 0 012.987-21.686l33.668-11.321 42.328 42.284c5.26 5.254 13.821 5.254 19.082-.001l41.906-41.864 36.816 12.378c2.679 7.01 4.047 14.564 3.977 22.036-.063 6.708-1.311 13.475-3.598 19.819-16.501 2.53-29.18 16.812-29.18 33.997 0 18.966 15.442 34.396 34.423 34.396s34.424-15.431 34.424-34.396c0-15.432-10.225-28.521-24.26-32.864 2.019-6.755 3.125-13.807 3.192-20.81a75.065 75.065 0 00-1.673-16.361l12.061 4.055c17.321 5.819 28.959 21.994 28.959 40.251zM293.861 247.901l-37.028 36.989-37.836-37.797a24.112 24.112 0 007.403-17.384v-10.291a93.3 93.3 0 0029.266 4.799l.338.001c10.209 0 20.169-1.605 29.596-4.694v10.185a24.126 24.126 0 008.261 18.192zm56.845 75.633h.018c10.707.003 19.418 8.703 19.418 19.395 0 10.695-8.714 19.396-19.424 19.396s-19.423-8.701-19.423-19.396c0-10.691 8.707-19.389 19.411-19.395zm-2.521-172.354H467v239.64h-48.58V317.2c0-24.707-15.746-46.597-39.18-54.47l-72.393-24.34a9.153 9.153 0 01-6.248-8.681V213.11c8.075-4.322 15.562-9.852 22.232-16.5 12.733-12.686 21.397-28.354 25.354-45.43zM176.365 45.331c0-16.725 13.606-30.331 30.331-30.331h98.607c16.725 0 30.331 13.606 30.331 30.331v44.951c-7.621-.868-17.014-3.153-26.651-8.496-8.488-4.705-15.829-11.003-21.818-18.717-3.848-4.961-10.949-6.139-16.163-2.682a182.3 182.3 0 01-32.598 17.146c-19.694 7.924-40.531 12.306-62.039 13.08zm0 60.304c23.438-.781 46.157-5.542 67.639-14.186a197.31 197.31 0 0033.005-17.07 85.988 85.988 0 0024.701 20.526c12.382 6.863 24.434 9.564 33.925 10.461v24.307c0 21.283-8.307 41.282-23.391 56.313a79.755 79.755 0 01-21.868 15.481 7.328 7.328 0 00-.956.451c-10.417 4.818-21.853 7.345-33.701 7.299h-.001c-43.755-.15-79.353-36.259-79.353-80.49 0-.097-.004-23.014 0-23.092zm57.906 330.185h43.457V467h-43.457zM302.202 482c9.204 0 16.939 6.409 18.976 15H190.822c2.036-8.591 9.771-15 18.976-15z"/></svg>