<svg id="Layer_1" height="512" viewBox="0 0 64 64" width="512" xmlns="http://www.w3.org/2000/svg"><path d="M54.724 16.808c2.573 0 4.666-2.093 4.666-4.665s-2.093-4.665-4.666-4.665a4.67 4.67 0 00-4.665 4.665c0 .777.209 1.499.547 2.144l-4.087 3.405a16.577 16.577 0 00-11.771-4.896c-.292 0-.576.029-.864.044l-.472-4.207A3.367 3.367 0 0035.4 5.569c0-1.856-1.511-3.367-3.367-3.367s-3.367 1.511-3.367 3.367a3.366 3.366 0 002.785 3.308l.469 4.178a16.501 16.501 0 00-6.027 2.32l-4.796-6.691a4.633 4.633 0 001.217-3.115c0-2.572-2.093-4.665-4.665-4.665s-4.665 2.093-4.665 4.665a4.67 4.67 0 004.665 4.666c.658 0 1.282-.14 1.851-.387l4.782 6.672a16.612 16.612 0 00-5.986 10.617l-5.56-.163a4.61 4.61 0 00-1.609-2.664 4.673 4.673 0 00-2.931-1.037c-1.417 0-2.74.631-3.63 1.732a4.639 4.639 0 00-1.011 3.425 4.632 4.632 0 001.706 3.136 4.673 4.673 0 002.931 1.037 4.65 4.65 0 003.63-1.732 4.63 4.63 0 00.907-1.919l5.406.158c-.002.106-.016.209-.016.315 0 4.444 1.762 8.477 4.612 11.463l-2.165 2.326a3.333 3.333 0 00-1.46-.347c-1.856 0-3.367 1.511-3.367 3.367s1.511 3.367 3.367 3.367 3.367-1.511 3.367-3.367c0-.611-.176-1.177-.462-1.672l2.157-2.317a16.551 16.551 0 0010.578 3.809c.525 0 1.043-.031 1.555-.079l1.252 8.109a4.642 4.642 0 00-2.492 2.24 4.673 4.673 0 002.055 6.271c.65.329 1.378.503 2.103.503 1.77 0 3.366-.98 4.166-2.558a4.632 4.632 0 00.27-3.561 4.634 4.634 0 00-4.15-3.195l-1.252-8.11c5.803-1.252 10.484-5.539 12.299-11.114l3.196.832a3.365 3.365 0 003.352 3.219c1.857 0 3.368-1.511 3.368-3.367s-1.511-3.367-3.368-3.367a3.358 3.358 0 00-2.855 1.603l-3.192-.831c.206-1.044.32-2.121.32-3.224 0-3.865-1.337-7.417-3.557-10.244l4.051-3.375a4.634 4.634 0 002.857 1.002zM30.641 5.568c0-.767.624-1.391 1.391-1.391s1.391.624 1.391 1.391a1.392 1.392 0 01-2.782 0zm-15.681 0c0-1.483 1.206-2.689 2.689-2.689s2.689 1.206 2.689 2.689-1.206 2.69-2.689 2.69-2.689-1.207-2.689-2.69zm-4.674 24.059c-.903 1.117-2.663 1.305-3.782.401a2.673 2.673 0 01-.984-1.808 2.673 2.673 0 01.583-1.974 2.68 2.68 0 012.094-.999c.62 0 1.205.206 1.688.597.559.452.908 1.094.984 1.808a2.677 2.677 0 01-.583 1.975zM41.78 57.593a2.667 2.667 0 01-.156 2.052 2.676 2.676 0 01-2.402 1.475 2.691 2.691 0 01-2.395-3.903 2.676 2.676 0 012.402-1.475c.424 0 .831.097 1.211.29a2.67 2.67 0 011.34 1.561zm15.323-23.741c.768 0 1.392.624 1.392 1.391s-.624 1.391-1.392 1.391c-.767 0-1.391-.624-1.391-1.391s.624-1.391 1.391-1.391zM19.107 47.625c-.767 0-1.391-.624-1.391-1.391s.624-1.391 1.391-1.391 1.391.624 1.391 1.391-.623 1.391-1.391 1.391zm15.641-3.548c-8.08 0-14.652-6.573-14.652-14.653s6.573-14.652 14.652-14.652S49.4 21.344 49.4 29.424s-6.573 14.653-14.652 14.653zM54.724 9.453c1.483 0 2.69 1.206 2.69 2.689s-1.207 2.689-2.69 2.689-2.689-1.206-2.689-2.689 1.206-2.689 2.689-2.689z"/><path d="M35.937 25.104c0-2.572-2.093-4.665-4.665-4.665s-4.665 2.093-4.665 4.665c0 2.573 2.093 4.666 4.665 4.666s4.665-2.093 4.665-4.666zm-7.354 0c0-1.483 1.206-2.689 2.689-2.689s2.689 1.206 2.689 2.689-1.206 2.69-2.689 2.69-2.689-1.207-2.689-2.69zm11.027 5.362c0 1.857 1.511 3.368 3.367 3.368s3.367-1.511 3.367-3.368c0-1.856-1.511-3.367-3.367-3.367s-3.367 1.511-3.367 3.367zm4.759 0c0 .768-.624 1.392-1.391 1.392s-1.391-.624-1.391-1.392c0-.767.624-1.391 1.391-1.391s1.391.624 1.391 1.391zm-9.755 3.205c-1.856 0-3.367 1.511-3.367 3.367s1.511 3.367 3.367 3.367 3.367-1.511 3.367-3.367a3.37 3.37 0 00-3.367-3.367zm0 4.759c-.767 0-1.391-.624-1.391-1.391s.624-1.391 1.391-1.391 1.391.624 1.391 1.391a1.392 1.392 0 01-1.391 1.391z"/></svg>